<mxfile host="app.diagrams.net" modified="2024-03-04T11:32:23.937Z" agent="Mozilla/5.0 (Windows NT 10.0; Win64; x64) AppleWebKit/537.36 (KHTML, like Gecko) Chrome/122.0.0.0 Safari/537.36" etag="7VvwezMS1r7q_2Jw5Y1U" version="23.1.8" type="google">
  <diagram name="‫עמוד-1‬" id="25xvqvwhHJBYHUvyP2hw">
    <mxGraphModel dx="3000" dy="1491" grid="1" gridSize="10" guides="1" tooltips="1" connect="1" arrows="1" fold="1" page="1" pageScale="1" pageWidth="827" pageHeight="1169" math="0" shadow="0">
      <root>
        <mxCell id="0" />
        <mxCell id="1" parent="0" />
        <mxCell id="9yQweUYaB5Ay2i9U1sqV-1" value="" style="shape=image;verticalLabelPosition=bottom;labelBackgroundColor=default;verticalAlign=top;aspect=fixed;imageAspect=0;image=data:image/png,iVBORw0KGgoAAAANSUhEUgAAAmUAAABTCAYAAADeM3C+AAAAAXNSR0IArs4c6QAAAARnQU1BAACxjwv8YQUAAAAJcEhZcwAADsMAAA7DAcdvqGQAADL/SURBVHhe7d0JXJR1/gfwzzxzcCNyKeOtJAoCKqh55VGZ//K/a2brUbm6lVvrWlnt2mEerZaaa2blth5dWrbd2nqnbZYHogIhoCkgqKAoIpcwMDPf/++ZeQbmAsHj39h+36/XZPx4nnl+9+/7zPPMg4oEMMYYY4yxX5Sk/MsYY4wxxn5BHJQxxhhjjHkADspuApU/LMCYOx/DujyTksJ+7S5ufBZ33fMCNheblRTG2H+N0i14ceRwTFieAqOSxNz4FdYT31Pm6cyFeHd0NB4//QQOHJiHeI0tvQQp617D0vXfI+tsFTQhXTHwd0/iuUf6I4xD7ZueKecN3Bn3PAwvHcLumd2hVtIZY79+5sK3MaLjE8h4cCNy19wDbyWdOfLUejJmfYaFaw+jwuwuvFJB2/4u/O1PQ5WfHfHy7eFMR9/Hqh3V6PfAJPSoC8iKsfXpIRg8ZQm2Fwagc/cu8DuzDW88djuGPrkV/OHKzU/dcRweGKZD8gfvIblGSWSMMebxDMe24YM1a/Duu+86vf6JN15bhIXL/61s6Yo/KfNoRvw0tx8SX/XBgozv8ZdI6+cl1T88jZ7Dl+Py2HXYs2482snJ1SlYcPsQzD4YiVn7D2BeL1sEZ8+M86lbsOtoGSwBvEoFSe0F/9C26BYfjy7BOutmFiacz9qH1OPnUGr2R/ueA5DYMcAuir+M7N3bkC71xOhBncTPZhSlbsUPuX6IvWMIugZYt7IyouDAZuwvi8Sw4dFo6fZUwPX9SvPScTT/AoovXkKlUYvA1l0QnxCD1k04HSo/eRApIu8lFdWorTWBND4IiohEXK/uaOWwvxklR3ZiV04L9L+nL/SiLs1Fh7Bp13FU6QLRNm4A+kUGKZ9UmXEpNwU//VyA4vIqGNX+CO/UAwlx7eHvVKbK7N3Yni6h58hB6CSOZy5Mxjc/FiJi4N3oqxdtczkXu9a9j68O5KMmOA7/+/BUjIryU/aWmXF25ShETjuBR3cdweuD7dvGxoyCpA3YnVON+kGsgkpSw8s/FG2j4hEfGQznPV3yVpSKrT/kwi/2DgxxbDgYCw5g8/4yRA4bjuiWQGHyN/ixMAID7xZ1ZSnGLqx7/yscyK9BcNz/4uGpo1BXDPN5pG7ZhaNlZkv+VCoJai9/hLbthvj4LnDobi6aWTbzRfyclIacC6KvVNfCpPJCC30Ueid0Q5iXso1FKbK+3Y6088b6PHkHolXneCTG6eFr3Ui83yWkb9+GjBJr3mXythrvAIR1iEZ8bEcEuRtiNuYCJG3YjZzq+tzbj7coMd4inSqg6e3gPIBEv0zfjm0ZJdZxLZOPpfFGQFgHRMfHoqNLZptWD8b8vdiwNw81dsWwp/K7BcNGJSKsOBVbdh1FmXViqW+nbqKdujj3wUox1rfbjXV3nOaD5tbnTd4fbJ8AHRr0HJY/0gNa+Vi+waI+E5DYNRjyocwFSdiwOweOb2kbY1FijEVeYYxZOc8Hzu3T7OOYziNrXyqOnyuF2b89eg5IRMeARj7/MZfgyM5dyGnRH/f01Yu5VqwlhzZh1/Eq6ALbIm5AP0QG1V8rsM9vh5Ir15M4gOO6J6hUamh9W6JNVG/0jgpxmSNvlOofn0b8sOWonboNOW/frqQ6kYMy5qGMx2hhfx1pY56jpFoljappx2PtSa1NoHnpdYkWFz8aSy0lLSXMSyfH39hU0cYprUgMD7lrOrxUunBK/MMaSq9SNjUk0cxoTf3vtXoauSyNDMqv5d8/F6Mhba/ZSoKJ8taOJb1aTW3Hf0ynTUqyzHSalg/TkdRqCm20vb8z5/erTad5CVqHPIqhRJqWsfTQqnRRkkbUHqZZ8c772vaPobGv/UDFdfmrpq1T24j6HEiLTxgtKVVfPUShknUflTqIEp7YQGfk7WtTaXYvp/dVqSmw23j6Z3q1ZV8rAyU9F0MabS+anWptCcP+mRStlSh83Ho6k7mWHo5rQVp/PXXt1p6CtCpSh/0PrThqPb6N8dirdKtWQzHPJTXQnkX0zggvx/zYv1Q6Ck+YTCtTK5TtZa55M+WtpbF6NanbjqePHRuOTi8fRjqpFU2xNJyB9s+MJq0UTuPWn6HMtQ9TXAst+eu7Urf2QaQVdRH2PyuorhhVG2lKK8lN3lSkC0+kP6xprB2bVzbTyaU0ROe8nYq89LfR81vPipIoytfSvX4qp+3ES6WhoJgHaHWG0o7VW+jRNmrX7Swv8b6tE+mhZXvogn112St6h0Z4udvX+pLHW8LklWTfNE1vB2fVtOVR0YfdHMdyLK/WlPjQMtpjn9km1YNyXJXTNnYvKWgCfS6yVLVxCrVSxozDS26nxD/QmrqJRXCZO9xw3qaZ9XnT94cLa+geX3f58qZ2I16hHy/JbzmCRHzpuo3lJY+xBJq8MpXsR78r1/nAue6bexxDkpjrNPW/1+pH0rK0upXDVfVWmirqVjtwMVmn4Cr66qFQZZ0Sc2NQAj2x4YzSZk75bUI9NbbuQeVFEQOeoM9zHefeG8JURB/dH0aSVx/6m9PabY+DMk928QMaHSBRy/Gf1g8sYybN76MVE/dU2mofBwjWRVxFgfevb3Ag1padpfy8PMpTXiezs+jwzo9o3ugu5CU6aO/ZB5UAoJoKjqbT0ZwcytqziiZ21pDUejJtrLT80nXSlJnO0ldTOlkW7VErT1BdNxdB2RtyUNZ6Cn3T0Crs8n7VdDL5e9qXkkHHc09S7rE02v3pfBrdSUsqv6G09Hgjg0h5L033afTVT0fpeE4u5R5Pp33//gdNuzWEJHUbmryhRNm4lpJfjCWtpjv9dZ8ycdSW0dn8k3Q8+TN65tYgsX1nmv6dXNnVlHdQ5Ck1i06IPGVnJtGmNx+iaB+JAka+Q/l1E7Kbic6YS2/dGSAGZBvq2CaAOt+7lPack8tgpILPJ1EHEcx2+vMu67Y28mTVVk26IUvpZAOTffXFAsrPXk+T5Emtz0u0J1e068lsyjy4kz5ecD9FiQlLGzOT9tb1FTd5E9Pd2a+mUCc5aBy1UpkYZWJRfkMOBlrTFKXhjLlv0Z2iT3q16UhtAjrTvUv3kLUYBfT5pA6kVneiP++yHayWys7m1/W1vDxRZ1mHaedH82h0Fy8RLPSm2QcbnpyaVTZjEWUdSKa0jGOULdrm5Ikj9MP6v9JtIZLoB3+l/UrTGrNfo0Ei0I2avolylDydSN9DXy4cQ110oh1HrKA8S12bqKIonzJW30fhah3FPbtDbC/yn5FEW9+fQ2OjRVtKITRyxfH6fu6gmi4W5FP2+knURq2lPi/toVzLeMukgzs/pgX3R5GvSksxM/eKLW2a3g7OTBVFlJ+xmu4LF/0l7lnakSMfK4OStr5Pc8ZGU4AkUcjIFWQbNk2uh+qLVJBvaz/r68SH4ylc0tHQRWmUV3hJ9CjBMmbsthPtlHV4J300bzR18RJBS+/ZVNfU7uYOZ27mg2bV503fH+Tjnbabq3Po6OGt9NbEriJI9qHhy/OUtsmm9ZPkk8o+9NKeXEv+szMP0s6PF9D9Ub7iZDqGZtYPfjeuHJQ1+zjVBXQ0/Sjl5GTRnlUTqbNGotaTN5Jt6XBRm0wvxmot7VI/BYt16uRxSv7sGbo1SCJ15+lkmYJd8tuEehKc1728vFw6lvYfWvfC7RShlij0d59QsWXLG8eYuZAGiLUi6DfvUkED87mMgzIPZtj7LHXTaCn+pZT6T0qUhVqbMJd+cl7PKtbRvWKh0g15XZlImqFsA00WZ+lu31dMEzv/JBZcbT9akKVMOQ1NrBf+RRNaSeIMehgtPWKb+Y7Qy4kikOz0Z2VgudGUiVoMwHOr7iY/MdhGrjynpLlh9151cYfCmDmf+siL3u83KCkmynt9SIMLXsUXD1KopKXec39SUpyYztE7d3mTFPIgfVm3u7vARz7jvEsEvmpqO+Y9Om6fr+pv6U8dRN0nvqwkKIw5tGSQlqSIh+nfDQWzsuod9Fg7sX/dmaZNJW2d2o7UmmiaaVuFGsibaDj61wRxNikF0bClR6wLrVhejrycSFo50KpruCJRXhFQqdvSmPeOO3yCV/3tn0RwqaXEl48oKQ0r2zCZ9GLbhIbq1aZZZXNWSV9Pks9M76AVhdYBYT2L19GQpSdFy9sRJxT/HCkWF//R9KHl7FpWTOvGiKDcdzi96TSgTHmraFSwWOCjnqW9DR1eqN7xGLUT5Ry42O4kRVYpxrEolyZ6Zl2AYNXUdnBVvG4MBUm+NPzNPKey5dGqUcEkaaLoWSWzzasHeybK/ftgkZf29PiOhvNSr4w2TNZbPtmfa5tYmjLWG9im+fVp72bsD46qv5tOncX+PWen2FJox2NiHNh90m9TuXWqOJaGomfuV/qRO00Iyiyu8jjVO61zW78FZFs6XIj++fqQhk7aK+iLB0NJ0vZW+k9D85cj13pqgGE//bW7OIGPeob2NFLv166Sdv25C2nUHWjqlnIlzb1GLvSyX5rxVD4KTSqEtm5dfy8XVaLyMgFePvBVKWk2al/4eqtA1VWokj+cbQ6/OMRFqmEqOIVTLt8tViMwKBASVaC8rLE3NuLY+tXYdl4E+6X/wZxHFiL5MmA48gW+OWJCyz4DEedwP0dzSQjq3g1t1EYUnjqjpDWPulMcYoKBS/l5SoqEkLBgaKkUxcUGJa2eNiICoRKhorRUSXEiBSIs1BeoKEZxlZLmlgkVFZUwS61x99QJiLS//0TTER3bSjAXnlISFOpwtA7TgS6explyJa1ZvBEfHwW1qQB5ro3qwHhsPVZvOy9O0krxnzmPYKG14fDFN0dgatkHA20NZ6pARaUZUuu7MXVCpHLPhpWmY0e0lcyibZzK4YZfXBwi1SYUNGFb95pSNg2Cg1tAMlfgUqnSb2tqRC8l8U+t5fpFHaklorpGQG0oxKlC5dEzhmTsPlAOdfchGKp3nCql9vdh7CAfmHIPIfncVXyzxjse8VHyeMtzGG9NbgcXBiTvPoBydXcMGap3/AaX1B73jR0EH1MuDiWfgyW3zakHB0YUFBaBpGDR7+vv82mYH+LiIi3tdOoKffCaNFCfjm6+/uDIhDOH01BALRAd10VJa5h3fDyi5DGWd0qU8cZp9DjqQAQFSqCKcjS4dEghCAvWijVDzKEuU7AWERGhlrWntLSp9dqcelJBEk2p8hZrp2OTXlfms5/hzY9zIfWcjD/d4a+kuncDs8GulaG8AtWkgq+fv11DqaGWfzAZUWtNsGOGWe63Wq3oyu4YcWTxcETo78KyY04TruRnCeggArpqJcmexnpQmCwHaEDxl5g7fxcMfWfh3ecTQQdexcNPvYxpDy7EYZ+heHH2WIh46JpIoi7kWwgMVe5y2QQqf/j5iMC1pn5/TUgogiQjiosuiBI6IkMVDHIbBDQ8kNRq+W6eGtQYGps0apGRcQImdVfE9HBqHZUf/ORg2uBcJrVoey+ozJUor3C3QF6JhAB/PzHt1MDgGm/aKcaXc+djl6EvZr37PBLpAF59+Cm8PO1BLDzsg6EvzsZYW8PVZiDjhAnqrjFwLYYfvOW2qVbKYTyCxcMjoL9rGVy7m6/YVu5uV9mOTSybJM+4ot+blONruvZCTKAJSYsn4PEVe3C2Ll8SfHzlu5wNIv/K6lF1GqfPm6HWt0c7l5u4faGPCBaLxSUUl1zFIiwFwN9PVECNOJ6S1Kx2cFGF06fPw6zWo71rZuGrj0CwOLm4VFxiCcqaVQ9Oag1yAKODzqv+rNB4ZDGGR+hx17JjTmNIgp94P5WYVa66qZvCbX26urn6gxPDIax+fx9q9b/FxBGOXwRxRxJzlvUtGx3816zx42iU9cpkXZvc0iAkNAiSsRhFFxx7j3zbl6HKAFL5ivEuv1ETuNRTw+ueuSQVqblm+HfrgS6uw+Y6MSJz9dvYfCkQd/7xUcRe4ThNLCX7JVgnENFxRABWRxWIwACxgJeV4pJz/718CaViAtG0DEWw25NYMy6XFOHChfMocTfhKnNsQyc0DiRfBIUFI1gMJpuKXV9i63kfDJ/6JCbNWYPZg72RsWoO3s2NxGMfrsMTMY30Rjfv55YY3CaRUZ3X1X9fRqWU00YdFm5ZsC6KenGu0rITOThn9kanyA5Kiivb+zX6PWbTaWQeK4aqdTdEhzoPOxFMy/tqXENps0nMZCpJ9AWnTDeRc1ndqtiFL7eeh8/wqXhy0hysmT0Y3hmrMOfdXEQ+9iHWPRFT94mY6XQmjhWr0LpbNFyLYf1mmkarbG2+jBIR6F44X+LwzS0ba9aa1NvcalLZnEjhE/Hm2hdwR0AG3lu0Fml164hoA7mu5ZOeusLKfY1A4l/XXBJqauXPWLzgYxecNJ3KNtzqNaMdXIm8is5LJP51U6VUUwujSPfyEUG++LlZ9eBA1Ifyf/bMl0vEgnoB50vsvy1ro5TU3Y4Naep8UMdNfTaBR/cHB2acWrcAKzO16DdtBu4KUJIbczUD5Gpc83HUCAuXA9qLYq5wmYFxIucczN6dENmh4d5fz109NbTumVG0eRP2V/thwJ1DYP/d9+uqYifeWnMYxjb34fHxba4YdHFQ5sG8goLgJ4KF8kuXRPdRyJe62kgwnTmB7MtKmqImKxMnjGq069q1/qvcN4qmB2Z+dw5nt89QEkwoyjuNSlUo2nXwh6SLxYyVCzBCrNxSSC8MT2zVeGdzeT/3zJcrLZdmdd4+Ssq1k8LCEKIyo+T8hfp6lpnPYfOmfaj27Yvht7VQEp2p4OvjAxVV47J8Wbkh8idMx03Q3BKDGJfYqwY1Iu5WaZ1/UY3SMrHIqYMQHHTjhqqpKA+nK1UIbdcB/pIOsTNWYsGIUBEIhqDX8ES0sjt0bUYGjps0uCUmxvXTWMulIBW02mu6Rn2DqdHm7r9hW2YWDm39G+6sGyiEy5VV4r8+8LXdF+DXCq0CJZjP5OGk83UZ81n8fKIYCBCLRdumXMa7sua0gys/tGoVCMl8BnmumcXZn0+gGAHi5KKtqAFZM+rhl9DE+eDaeW5/cHBpG+a/shmlHX+PedMaC85vRhLCwkKgMpfg/AWHGVhMwZuxaV81fPsOR4NTsL3m1JPpJP619luUtbgD434TdoOCITPOfPIW/pUvIXbytCYF0zdupmfNZEDRsTRkFdpdVpPv0VFb79GpmwPUbTCwfyTUFT/im23FdkGEAYc2bEUORWDonT3/3567Yq+qSpxmqrTQaa2TmKbrH/HOkt8i/MxHmD5tHa7HX4kyl5ai3KxCi+BrvRBaTwoJQ7CWUFpcbHfpwIxzm2fjlU1liLhvGia0a2ioqNE6QgxoOo9z5xouoOlkJo5dUkHfPQbBzm9llu/TIqh8nC6RGk9Z7meRWrdHB8vzgxpgKkeFiFRVXj7wuZp1tKpKlFsEUzqt9Wxd0xV/fGcJfht+Bh9Nn2b3571MOJl5DJdUenSPEWe2SqqNuaIClaSCj/91POe81rI1xLcD4rrbT8Si/cvKQFILBNs+Ztb1Qf/ePjBmfYMvUh2f4GtIeQ8fJRkRNOweDGnk/MBUXiFOIlTwkgN3Ja1BTW4Hd3To0783fIxZ+OaLVBHm2zGk4L2PkmAMGoZ7nDPblHrwIM2qz+bwxP5QpwaHlr2ED/OCMGrWixjusLCbUF4hgkeVF3yu6wBxdiOP08B9vfJJ8exXsKksAvdNm4AGp+A6jdWTK+NP7+P9Hw3Qj3kY917Tn8FxXbvrGH/Cyn9sR5n/cPzxkfgmBdO/roD7Jibfk3FP7zlIjfwLfkhdhFtFVKW5JQ7R/mZsOJqFS+bBCLf0GzH5/uERDPrnX/DlXybjVe/ZGBvjhfwti/Hk20fhP/g1PHn7tX9OZj6/D+vXJ6HIci1EBCgH5QCwsRsUCWbbgyPrxqwaHR56G298ewgTP35aLDD98O9pUU3qdOaSZHy6dg8Kna7FGH9KRQn5IDQ0UEm5DjQhCA2SYDxzDKnZuYgoy8a+r1bg1dc34FSXR/HJot8iRNS9Y53Uq80xQWXKw67Vy/DGsX64//f9ld/UM8ifYpq0SIjpDq2oyfP71mN9UpH1UpO5AHsKzVDpnS7VVGchS7y314B4iCZ24zKOfL0GG7esx5aLEtrHxrleUmwCUi47quwuQ6g7PIS33/gWhyZ+jKf/+A76/XsaojQGZGWegEmbgJjuWrlCsG/9eiQVWS/nmAtEe4mAWR/U1EtOjbk+ZXNmLt6PTz7aj3Mu1/hqkfpTORAQjGBbACzpMW76RCzetRpLHngA/gufwf9GB6Dkp6/w2vOLkKLri3nPj3X/Z80uH8HXazZiy/otuCi1R2xcqEsQ66zp7aD80oEE/bjpmLh4F1YveQAP+C/EM/8bjYCSn/DVa89jUYoOfec9j7FKZptVD57gKuqzKTy5P9iYct/FrOUpUCXMw7wH6y9/XT7yNdZs3IL1Wy5Cah+LuOsxQNxo3nGc57ZzOCj/iZnG722vu6/3zLFUZOdGoCx7H75a8Spe33AKXR79BIt+G3LF+mqonty7jO9Xr0M6ovDMo3deKXuNcrd225RvfQvvppkQ8dCfMKF9E9tH+RYm+4UZs9+iES211OK2RXTE9k1f02l6+w5fUkdMoW8cHvJSS9n/epwSgtXinMsyjxNUWmp921/om/yGvncsq6XUOQnk5XMrvZLhvN1F+mB0IGn11scvGH6YQbfUPQDQ+lJ596MFDT70zkhHFw0kH684evGA4zamC5tpeg9/0rQcRavqH+bVKMvDVp2OX5cP+RhJjXx/uTaV5iZ4kU//VynTuZiGPfSX7jryvX25kiAYM2h+X119XcrH0IVT7wmLaGdB/Ru4qxPnlxQ+mTZWiXqeK9dzf3rVkgEjnVhym6ibHvSc5fvyBtr9VCSJtbV+X5VELcestRzHxvDj09RVo6V+r2Q5fn3exphNSwZ7kaQNpA5Dn6GNDg8ctar8dDwFaVrSRPkJnxbOeRNvc3QRDfTxorgXDzg84kI0HG2e3oP8xf6jVuWLDU/Qktt8yKvHc9av/Rt201OR9Q8Yll8qqSWNWXvBur9ohzlyO9z6Crl2tw9odKCW9A//W0lwclVlc1ZLybPiRVkH0xLlAV3WOrWrd4eXirwT5lCKQyWUU8o/HqTYII3dWJPIr9NIemnLGfftIhizl9BgL4m0gR1o6DMbHR+mbFFJn44PEmNiouXhq7Imt0MjylP+QQ/Givete+CriiS/TjTypS10xi6zza8HGwPtnRlNOt8htNTu0Qi1qXMowcuHbn0lw6VOLn4wmgK1enrY9lwXu/HZVFdTn65urv5gJc8Vt5DWrwc9tcP+GSVGyl4ymLwkLQV2GErPbDzt+EgPWeWnNF7ks+XEzxt5SLObR0w4tE9zj2OgH2bc4ji3yfXYbwE18rxUMQXPp746+4fAyg+l7U0TFu0kuylYcJ2/rBqqJ5mbMlZtoof1Wgq6fRkda6jRmsjt2m1xkT6+P4Q0gf1o3sGmP2+D/8ySRzMh9407EfNsPh79NhNvDHG8KGkuzcGBfWk4VS4hODIR/Xu1ufH3kv1K1ZzLxIGU4zhbVgttizbolpiAqJBf4iKwjRHpc/sh4RUVZh3ej9l1f/iU/RLMFflISUpFbokJ/vpY9OsXiZaed3XPylyB/JQkpOaWwOSvR2y/foj02MzenG6q/tCoGhx4vjcG/l2HF5IPYF78LzXP1OBc5gGkHD+LslotWrTphsSEKFyfKdhTytg0HJR5OPOZVfhNzDQcnbQdGcuHwpNvoWbXkTENc/r2wWv+r+Kn756B8mdPGWPsOrq5Aparc3OV8cZchGbXjdRmPKb9To/8Lz/A1gaeX8p+far3vof1R1pi1OMPoTMHZIwx9l9BPVdQ/p95JC907h0PfUALtI+JR3v5KX3sV6+iqBhS7Hj8eVJPy5cMGGPs+lPBJzAIYVGDcdewOOg96csd140oY4AoYzdRxqGeX0a+fMkYY4wx5gH4HJwxxhhjzANwUMYYY4wx5gE4KGOMMcYY8wAclDHGGGOMeQAOyhhjjDHGPAAHZYwxxhhjHoCDMsYYY4wxD8BBGWOMMcaYB+CgjDHGGGPMA3BQxhhjjDHmATgoY4wxxhjzAByUMcYYY4x5AA7KGGOMMcY8AAdljDHGGGMegIMyxhhjjDEPwEEZY4wxxpgH4KCMMcYYY8wDcFDGGGOMMeYBOChjjDHGGPMAHJQxxhhjjHkADsoYY4wxxjwAB2WMMcYYYx6AgzLGGGOMMQ/AQRljjDHGmAfgoIwxxhhjzANwUMYYY4wx5gE4KGOMMcYY8wAclDHGGGOMeQAOyhhjjDHGPAAHZYwxxhi76ZRueREjh0/A8hSjknLz46CMMcYYYzcZMy7nJOG77/+DtAJPDMoqcXTDIkwbewcGJPZGYv87MHb637E5p1r5vXsclDHGGGOMXTcGHFr4P+g/5iV8cTIQMQMGo0/HWhx69y/4zcBxWJNjUrZzpSJB+X/G2H+1SmTv3o50qSdGD+pkTbqcjd3b0iH1HIlBnXQoSNqA3eJMr37SUEElqeHlH4q2UfGIjwyGTvmNTWX2bmxPl9Bz5CB00l3Ez0lpyLlwCZXVtTCpvNBCH4XeCd0Q5qXsYFGKrG+3I+280XIslUqC2jsQrTrHIzFOD1/rRjBfSsf2bRkoMdtyJOdHA++AMHSIjkdsxyBolN80qDwPKWnZOHepDJdFnoxmQOsXinbRvdCzk+v+DuXxFnkozUP60XxcKL6IS5VGaANbo0t8AmJai19amHEpfTu2ZZSgPpsqSBpvBIR1QHR8LDoGNZ5Lc0ESNuzOQbXdbG2pEy9/hLaNQnx8JILtK95chNStPyDXLxZ3DOmKACXZwliAA5v3oyxyGIZHt3Q9MzdfQvr2bcgoMde1s3wsjXcAwjpEIz62I5yzW5r1LbannYfR2liQ1N4IbNUZ8Ylx0Nsay5iPvRv2Iq/GrhD2VH64ZdgoJIYVI3XLLhwtsx6/vpzdRDm7OJZTcG4Pdy6LbbbVbWNuXj82X98+ezX168p+rLZD/t4N2JtXY1ceeyr43TIMoxJbufkUxs2YrxRjfvvVj3nT+SzsSz2Oc6Vm+LfviQGJHRHQyMc/5pIj2LkrBy3634O+erWl7x7atAvHq3QIbBuHAf0iESSSrezz2wGFb49AxycOYdBzy/FID61l7PsGt0W3hER0DbZVohnnU7dg19GyuvGnUqmh9W2JNlG90TsqxGXOumYVX+DBTr/D553nIfmHWYi1HED0uw/GIv4P/0aneak4MCvasqkLOShjjDEyJNFzMRrS9pqtJMhJz1GMRku9ZqeKn4ronRFe8rTm/qXSUXjCZFqZWmHd2cJASc/FkEbbi2an1pLp5FIaonPeV0Ve+tvo+a1nyaTsReVr6V4/ldN24qXSUFDMA7Q6o9qyWfWWR6mN2mmbum29qHXiQ7Rsz4X693VRSykvxZPW7f7epB84jT45blC2lTmWR94/fV6Cy/4qTUuKfWgVpVfJ+1TTlkfbkFhXHLap29arNSU+tIz2XGg4l0XvjCCx/rvdX64/XXgCTV6ZSnU1b8qjtWP1pFa3pfEfn3Yov+n0chqmk6jVlI1kyZ6z6i30aBu1m+NYj+XVOpEeWraH6rNbTmvv9SOVm201QTH0wOoMUQO247ppU9tLCqIJn4scVW2kKa0kN9vI5UykP6xJt8u3c3u447xN8/rx9e6zza9fN+zHquk0LR+mc1P/tpdEQRM+d9/W133Mi7qeGU0iHFJ+ryX9yGWUZj+EnFRvnSrGsJYGLj5BRjmh6it6KFRpf5WaghKeoA1nlMpwyu+FNfeQr0o5lt1L5d2ORrzyI12ybFVFG6e0IhEXumwnzxERA56gz3MtR75u5D5zmxhjoZO+dqj32sOzKF6roZjnkpQUVxyUMcasrjhBiwn0YgHlZ6+nSWJR0fZ5ifbk5lHeyWzKPLiTPl5wP0X5qkgbM5P2KuuPZZK2XxCNRZR1IJnSMo5Rdu5JOnniCP2w/q90W4hEmu5/pf3K5G3Mfo0GickravomyskTx8g7SSfS99CXC8dQFzHZBYxYQXnyPG2qoKL8DFp9XzipdXH07I4cS34ykrbS+3PGUnSARFLISFpxvKFJV8mfpjtN25BBJ3Jy6eTJHMo6/B2tn38vRXpJ5D/4Ncqs2901CKg+mUzf70uhjONi39xjlLb7U5o/uhNpVX40dOlxyzamiiLKz1hN94WrSRf3LO3IyaOT2RmUtPV9mjM2mgIkiUJGrqAGs1l9kQrys2n9JBHcafvQS3tyLXWSnXmQdn68gO6P8iWVNoZm1lc8mc5+RVM6aUkKH0UrT9S/sen0G5agrPWUb9wv1CLMqCjKp4zV91G4Wkdxz+4QbSCOlZFEW9+fQ2OjA0iSQmjkiuPWRdSYTa8N0pImajptEuXKE+118kQ67flyIY3poiMpYAStsDRWNV0syLf8vu514kMaHy6RbugiSssrpEuW9q+lsrP224ljZx2mnR/No9FdvEQQ25tmH7QFYK7t4cpNmzWnH1/vPtvc+nXHaaxaylNXX/LrBH04Ppwk3VBalJZHhdaKdXUDxnx1wVFKP5pDOVl7aNXEzqSRWtPkjZXWX7pRm/wixYp66/7XfaKlLCmW9j95PJk+e+ZWCpLU1Hn6d5bfuORXHv+n7fpKzlE6vPUtmthVBKk+w2m5tcKptuysU/3k0rG0/9C6F26nCLUInn73CRVbtrxOqr+nJyM1pG79G/rnUduYvEg7n4whnbYbPb3b/ciTcVDGGLNqwgRtUb2DHmsnJuiBi8lurRcqaevUdqTWRNNM20rVpEWzkr6eFEaS1x20otA6iRqSZlK0RkdDlp50/JTLdJb+OVIEIP6j6UPraTBR8ToaEySR7/A3lUXPxkR5q0ZRsCQWymf3KhO+s8byd4k+mxBKknYALaoraFPKI458bhXd7acin5ErlRQ5m2PEAuNLw9/McypTHq0aFUySJoqe3dvA4mlRTTseE/WrHUiLHSueKrdOpXZqDUXP3O9Qzgv/mkCtRMAXNGwpHVF+YTzyMiVq1dTpz99ZPsFyr5jWjQkiyXc4velYqSK7q2hUsAhIop4lS3ZFv5kZrSHdkKV00qn+z/5zJPmq/Gl0XWM5MuX+nQaLvLR/fEcjealXtmEy6dVaSpj7k5JydUGZRbP6sbNr7LPNqV933IxVB6Zc+vtgLanbP047GqvYGzLm61Xv/BN1EO3Vb0GWkuLKlPc6DWnoJKHiC3owVCJt77nWn69Ubotq+m56ZzFOetLslIbHqIVhP/21u0bU9TO0p6G6viqi7296knqKk0JNeH96bPkH9PqUnhSk09OIRfupTNnKHb7RnzF2nXgjPj4KalMB8k4159tQGgQHt4BkrsClUvmqglBTA/nOnJqaWst1hjpSS0R1jYDaUIhThdabZQ3Ju3GgXI3uQ4ZC7zCjSWh/31gM8jEh91AyzpmV5CbzR2xsJNTm0ziZ27xvd0lB3dGtjRrGwlNKigHJuw+gXN0dQ4bqHe/tkdrjvrGD4GPKxaHkc2h2NgXv+HhEqU0oyDsl6k1hPIb1q7fhvDj5Lv3PHDyyMBmXRT6OfPENjphaos/AODjcEmXPkIzdB8qh7j4EQx0rVWT3Powd5ANT7iEkWyq1BjXioCTarNaxsdAyqisi1AYUniqEu1ubjQWFKBLLUHBYKOpuG2qEX1wcIuVynrLV643QlH58bX22efV7FYwFKCwiSMFhCG1KxV61xutKHRiEQIlQUV6mpLiSQsIQrBV9tLhY9E4n2ghEhEqgilIloQlMZ3A4rQDUIhpxXa50c54Kkqh+lbcvfB2b4RpJaHX3Mny3bS4G1CbhnSd+jxnv/4x2U1fhw2f7Od7j6eS6ZoMx9t9MQoC/n5jmamBwmV0bJ8kzo1jSTMqapenaCzGBJiQtnoDHV+zB2boVXYKPr3w3twEG5a73qtOncd6shr59O9eb+n31iAgWk/qlYpQ0e31Twd/fByqqRlWVwzJ7ZZIf/OWbXQxVSkIVTp8+D7Naj/btXBcKX30EgsXidam45KqCMinAH34qERfYVXzxl3Mxf5cBfWe9i+cTCQdefRhPvTwNDy48DJ+hL2L22GBlSzeqTuP0eTPU+vZwza4v9BHBkOgSiuVK1XRFr5hAmJIWY8LjK7CnvrEg+fiKZVu0lsH+RnE7tQZLIKfTeYnaVhiPYPHwCOjvWoZjTpGc5CfeT2xYXdX4YwWuTdP68bX02WbV71WphcFasfCqq9gb4Qp1pVGLLUScZGqkHJoQhAZJMBYX4YJTe4sBhCoDQeXbWBjjyHBoNd7fVwv9bydihGU3I44sHo4I/V1Y5tShzCWpSM01w79bD1wxfmsWM4p/XIRJDyxEcuDteHrJQjx+WzB+XnEvEu9+BT9cbLg+OChjjDVI8g1CWHCwmDQb+FqbE9V1WgCk8Il4c+0LuCMgA+8tWou0ugnfDLNlgldDrUyiJnlVJBL/uln2qQa18lcCvXyuanFSKQVq/nfUTZbFWiWCDfuficS/brNZa/nmopePXXDSHC4VX4FdX27FeZ/hmPrkJMxZMxuDvTOwas67yI18DB+uewIxjS1CIrMmEUaR+Nc1u4SaWvkzIS/4yJUqhWPim2vxwh0ByHhvEdbWNxbMZpMlyFTbGsuJ23o1X0ZJ0QVcOF/i8G1TG6VFLP9tGgm+QWEIDg5FkBzRNcHV9OPm9Nlm1e/VaH6HvWrXPObVYQiXT5wuXsB556Cs7ARyzpnh3SlSSbgC8ymsW7ASmdp+mDbjLuUTKTMul4iA78J5lDh0KDOKNm/C/mo/DLhzCPyU1OvBlL0Kk+59Ed+HP4nNyVvx92dmYsWuNOyaPxg1O2ZjwlNfK1u64qCMMdYgTY+Z+O7cWWyfEaWk/H9Ro83df8O2zCwc2vo33Fn3PAHC5coq8V8f+PpaVwO/Vq0QKJlxJu9k/aU7hfnszzhRDASISb3tDb2M40QEFpXyp2s6WzDrh1atAiGZzyDvpEsucfbnEygWS0inyLZNuox3RaYi5J2uhCq0HTr4S9DFzsDKBSMQKkkI6TUcia2uMPX7tUKrQAnmM3lwze5Z/GytVEQqlapuczf+ti0TWYe24m/1jQW6XAm5Gnx8fa8u2LwuNOgx8zucO7sdM6JuZCdoep9tbv3+qklhCAtRwVxyHhccPkAy45wImvZV+6Lv8NuUtMZd2jYfr2wuRcffz8O0Rs86BNNJ/GvttyhrcQfG/SbsOgZDJhz7ZA12lLTG/bNnYWiY8s5SMAb8ZSke7ymhcNOX1jQ3OChj7L+UoegY0rIK0ewLQaZyVIiVVuXlA58bvdL6dkBcd/sJk1BaVgaSWiA42Lpg6fr0R28fI7K++QKpNZYkhQEp732EJGMQht0zRCyJ/4/MpSgtN0PVwnaJUIc+/XvDx5iFb75IhWM2U/DeR0kwBg3DPUMay6UJ5RVicVd5weeKFV+FKgOg0uqgtWyqQdc/voMlvw3HmY+mY9q6PPFujdD1Qf/ePjBmfYMvHCtVZPc9fJRkRNCwe+CYXV90iOsO2xoko9IylJGEFsHB1yfYvJ5uVD9uQp+9uvr9Bd3IMS+FICxYK/pKMYrtLoGaz23G7Fc2oSziPkyb0E5JbUTNISx76UPkBY3CrBeHN3rflsz40/t4/0cD9GMexr32nbbZDCg6loasQttMSqgUQbhbKjXU8qG8Gr7ycC05YYzdrOT7du6JRa+42zFnv+Oi0LDLOPL1m3hlxmvYclFC+9g4hN6gGcRcvB8fL1+G119/3em1HF//VA4EBCNYmdck/ThMn9gRlLYEDzywCF/tz8SxjD34bP44jFuUAl3fGXh+7BXOhM3ncfCTN5yO9QbW/HBGnK83wlyC5E+WY5nDfuL1pggQSwg+oaHKhhL046ZjYkdC2pIH8MCir7A/8xgy9nyG+ePGYVGKDn1nPI+xDSwOl498jTdfmYHXtlyE1D4WcVeqeDJbH5SpUtV/QqXugIfefgMT2hTh66f/iHeOud6YXUfSY9z0iehIaVjywANY9NV+ZB7LwJ7P5mPcuEVI0fXFjOfHWgMwczH2f+ymDsRr+dc/oVwsj8G2xvIIN6YfN6fPNqt+f1HNrCsxjvZ9VN8X3vjkIIobHUAyDUJCgyAZz+BYajZyf07Btx/MxtghE7D6VBc8smIRfhtypYowIffdWVieokLCk/PwYJsrbX8Z369eh3REYeKjd8JfSb0axiOLcU9sL8TdPgfWqVSDmDuHor2qEJ/OekrMIdkorryM0jMp+GLOdLydQmh3zxjLvm4p38JkjP03MWbTWyNakrbFbbToiPK18dpUmpvgRT79X7X+7Ezss2SwF0naQOow9BnaeNrxq/yyyk/HU5CmJU2UHwJqUUupcxPIy6c/vVr/sC8ntZQ8K15sM5iWKA/qMvz4NHXViFNO+bTT5aUi74Q55PBt9/IU+seDseLY9Q/vVEl+1GnkS7TlTEPHlRkp89X+JM7+7d7f8aXS3kJPfW/7vrxTeQz7LY+DcLef/GDKuBcdHxJZnvIPejA2iDR1x1OR5NeJRr60hRrOppGylwwmL0lLgR2G0jMbHR8Ga1H5KY0P0lDLicpDQo1HadFAH/KKe5EOODwVwEQXNk+nHv5i21GrKN+1Ce2UU8o/HqRY8b4isFPKJJFfp5H00pYz9c/QMvxIT3dtoA7ES+WdQHMaeDSBYe9Mitb50pClyoNDZaIfzpH74a2vUIZznVz8gEYHakn/8L+VhKb0LydX1Y+dXYc+29T6dedKY9WwV/RLHfkOWer0CAsnbh4xUZs6lxK8fKj/q5nNryvDDzTjFqe+oPKmfgvSla3dMVLG/L6ksx+D8kNpe0+gRTsLHOuhoXIbdtNTt2jJr8dTtMPl6StuHolStYke1msp6PZldKyJ3aYhxuy3aERLLbW4bRHZplKiEtq/7HcUY9+24qXStqTY8cspyf0TYiz4zywxxn4lzKjIT0FSai5KTP7Qx/ZDv8iWnnfZzFyB/JQkpOaWwOSvR2y/fohs6bn3Dpkr8pGSlIrcEhP89bHo1y8SHpzdm84vWr81B/B874H4u+4F1ByepyT+AmrOIfNACo6fLUOttgXadEtEwnX780c1OPB8bwz8uw4vJB/AvPgr3Gt2HZkrzyD9YCqyi6qg8gtHZK9ExEbU33PpDgdljDHG2H8jTwnKbqhfLii7Gr/4FWvGGGOMMQao5wrK/zPGGGPsv4XKB4FBYYgafBf699Arib82KvgEBCGs22DcNTQOek/6zokbfPmSMcYYY8wD8OVLxhhjjDEPwEEZY4wxxpgH4KCMMcYYY8wDcFDGGGOMMeYBOChjjDHGGPMAHJQxxhhjjHkADsoYY4wxxjwAB2WMMcYYYx6AgzLGGGOMMQ/AQRljjDHGmAfgoIwxxhhjzANwUMYYY4wx5gE4KGOMMcYY+8UB/wcUkD7g6pDMUwAAAABJRU5ErkJggg==;" vertex="1" parent="1">
          <mxGeometry x="90" y="40" width="613" height="83" as="geometry" />
        </mxCell>
        <mxCell id="9yQweUYaB5Ay2i9U1sqV-11" value="" style="edgeStyle=orthogonalEdgeStyle;rounded=0;orthogonalLoop=1;jettySize=auto;html=1;" edge="1" parent="1" source="9yQweUYaB5Ay2i9U1sqV-2" target="9yQweUYaB5Ay2i9U1sqV-3">
          <mxGeometry relative="1" as="geometry" />
        </mxCell>
        <mxCell id="9yQweUYaB5Ay2i9U1sqV-2" value="start" style="ellipse;whiteSpace=wrap;html=1;fillColor=#d5e8d4;strokeColor=#82b366;" vertex="1" parent="1">
          <mxGeometry x="562" y="180" width="120" height="80" as="geometry" />
        </mxCell>
        <mxCell id="9yQweUYaB5Ay2i9U1sqV-12" value="" style="edgeStyle=orthogonalEdgeStyle;rounded=0;orthogonalLoop=1;jettySize=auto;html=1;" edge="1" parent="1" source="9yQweUYaB5Ay2i9U1sqV-3" target="9yQweUYaB5Ay2i9U1sqV-4">
          <mxGeometry relative="1" as="geometry" />
        </mxCell>
        <mxCell id="9yQweUYaB5Ay2i9U1sqV-3" value="num" style="shape=card;whiteSpace=wrap;html=1;fillColor=#dae8fc;strokeColor=#6c8ebf;" vertex="1" parent="1">
          <mxGeometry x="582" y="310" width="80" height="100" as="geometry" />
        </mxCell>
        <mxCell id="9yQweUYaB5Ay2i9U1sqV-13" value="" style="edgeStyle=orthogonalEdgeStyle;rounded=0;orthogonalLoop=1;jettySize=auto;html=1;" edge="1" parent="1" source="9yQweUYaB5Ay2i9U1sqV-4" target="9yQweUYaB5Ay2i9U1sqV-5">
          <mxGeometry relative="1" as="geometry" />
        </mxCell>
        <mxCell id="9yQweUYaB5Ay2i9U1sqV-4" value="mod=num%100&lt;br&gt;meot=(num-mod)/100" style="rounded=0;whiteSpace=wrap;html=1;fillColor=#fff2cc;strokeColor=#d6b656;" vertex="1" parent="1">
          <mxGeometry x="562" y="450" width="120" height="60" as="geometry" />
        </mxCell>
        <mxCell id="9yQweUYaB5Ay2i9U1sqV-14" value="" style="edgeStyle=orthogonalEdgeStyle;rounded=0;orthogonalLoop=1;jettySize=auto;html=1;" edge="1" parent="1" source="9yQweUYaB5Ay2i9U1sqV-5" target="9yQweUYaB5Ay2i9U1sqV-6">
          <mxGeometry relative="1" as="geometry" />
        </mxCell>
        <mxCell id="9yQweUYaB5Ay2i9U1sqV-5" value="meot" style="shape=document;whiteSpace=wrap;html=1;boundedLbl=1;fillColor=#e1d5e7;strokeColor=#9673a6;" vertex="1" parent="1">
          <mxGeometry x="562" y="570" width="120" height="80" as="geometry" />
        </mxCell>
        <mxCell id="9yQweUYaB5Ay2i9U1sqV-6" value="stop" style="ellipse;whiteSpace=wrap;html=1;fillColor=#f8cecc;strokeColor=#b85450;" vertex="1" parent="1">
          <mxGeometry x="562" y="700" width="120" height="80" as="geometry" />
        </mxCell>
        <mxCell id="9yQweUYaB5Ay2i9U1sqV-15" value="" style="edgeStyle=orthogonalEdgeStyle;rounded=0;orthogonalLoop=1;jettySize=auto;html=1;" edge="1" parent="1" source="9yQweUYaB5Ay2i9U1sqV-16" target="9yQweUYaB5Ay2i9U1sqV-18">
          <mxGeometry relative="1" as="geometry" />
        </mxCell>
        <mxCell id="9yQweUYaB5Ay2i9U1sqV-16" value="start" style="ellipse;whiteSpace=wrap;html=1;fillColor=#d5e8d4;strokeColor=#82b366;" vertex="1" parent="1">
          <mxGeometry x="160" y="180" width="120" height="80" as="geometry" />
        </mxCell>
        <mxCell id="9yQweUYaB5Ay2i9U1sqV-17" value="" style="edgeStyle=orthogonalEdgeStyle;rounded=0;orthogonalLoop=1;jettySize=auto;html=1;" edge="1" parent="1" source="9yQweUYaB5Ay2i9U1sqV-18" target="9yQweUYaB5Ay2i9U1sqV-20">
          <mxGeometry relative="1" as="geometry" />
        </mxCell>
        <mxCell id="9yQweUYaB5Ay2i9U1sqV-18" value="num" style="shape=card;whiteSpace=wrap;html=1;fillColor=#dae8fc;strokeColor=#6c8ebf;" vertex="1" parent="1">
          <mxGeometry x="180" y="310" width="80" height="100" as="geometry" />
        </mxCell>
        <mxCell id="9yQweUYaB5Ay2i9U1sqV-19" value="" style="edgeStyle=orthogonalEdgeStyle;rounded=0;orthogonalLoop=1;jettySize=auto;html=1;" edge="1" parent="1" source="9yQweUYaB5Ay2i9U1sqV-20" target="9yQweUYaB5Ay2i9U1sqV-22">
          <mxGeometry relative="1" as="geometry" />
        </mxCell>
        <mxCell id="9yQweUYaB5Ay2i9U1sqV-20" value="rn=num%10&lt;br&gt;ln=(num-rn)/10&lt;br&gt;sum=rn+ln" style="rounded=0;whiteSpace=wrap;html=1;fillColor=#fff2cc;strokeColor=#d6b656;" vertex="1" parent="1">
          <mxGeometry x="160" y="450" width="120" height="60" as="geometry" />
        </mxCell>
        <mxCell id="9yQweUYaB5Ay2i9U1sqV-21" value="" style="edgeStyle=orthogonalEdgeStyle;rounded=0;orthogonalLoop=1;jettySize=auto;html=1;" edge="1" parent="1" source="9yQweUYaB5Ay2i9U1sqV-22" target="9yQweUYaB5Ay2i9U1sqV-23">
          <mxGeometry relative="1" as="geometry" />
        </mxCell>
        <mxCell id="9yQweUYaB5Ay2i9U1sqV-22" value="sum" style="shape=document;whiteSpace=wrap;html=1;boundedLbl=1;fillColor=#e1d5e7;strokeColor=#9673a6;" vertex="1" parent="1">
          <mxGeometry x="160" y="570" width="120" height="80" as="geometry" />
        </mxCell>
        <mxCell id="9yQweUYaB5Ay2i9U1sqV-23" value="stop" style="ellipse;whiteSpace=wrap;html=1;fillColor=#f8cecc;strokeColor=#b85450;" vertex="1" parent="1">
          <mxGeometry x="160" y="700" width="120" height="80" as="geometry" />
        </mxCell>
        <mxCell id="9yQweUYaB5Ay2i9U1sqV-24" value="&lt;font style=&quot;font-size: 23px;&quot;&gt;&lt;b&gt;.7&lt;/b&gt;&lt;/font&gt;" style="text;html=1;align=center;verticalAlign=middle;whiteSpace=wrap;rounded=0;" vertex="1" parent="1">
          <mxGeometry x="703" y="180" width="60" height="30" as="geometry" />
        </mxCell>
        <mxCell id="9yQweUYaB5Ay2i9U1sqV-25" value="&lt;font style=&quot;font-size: 23px;&quot;&gt;&lt;b&gt;.8&lt;/b&gt;&lt;/font&gt;" style="text;html=1;align=center;verticalAlign=middle;whiteSpace=wrap;rounded=0;" vertex="1" parent="1">
          <mxGeometry x="320" y="180" width="60" height="30" as="geometry" />
        </mxCell>
        <mxCell id="9yQweUYaB5Ay2i9U1sqV-29" value="" style="shape=image;verticalLabelPosition=bottom;labelBackgroundColor=default;verticalAlign=top;aspect=fixed;imageAspect=0;image=data:image/png,iVBORw0KGgoAAAANSUhEUgAAAjAAAAEuCAYAAACQxSgZAAAAAXNSR0IArs4c6QAAAARnQU1BAACxjwv8YQUAAAAJcEhZcwAADsMAAA7DAcdvqGQAAJxiSURBVHhe7N0JQFRV2wfw/9yZYUdHRFYVFxYVBBVcysztwxYtW6zUbDGzejNNWzXN7VVLW0Qt3zIzM832NHNPNHdRRFRElEVAUQFlcYGBmXm+MzMXGGAQcCmnnt/33dfmzLn3nnvOufc8czcUJIAxxhhjzIZI8r+MMcYYYzaDAxjGGGOM2RwOYBhj7BYrWDcekT0fQ1ScTk5h1RVg3fhI9HwsCrdXNd2u5WIcwDDGbFdBAn6aMRIDe3ZGh7Bw9HhgJN5fmwqt/HWFAiT8NAMjB/ZE5w5hCO/xAEa+vxap1TPeAgZcTTuA7Tt34kjWjYyAl3DkxzmYNOUrxFySk6owXNyPJW8NQWTXDmgfGoHeg17Fwp3noZe/v60ZriLtwHbs3HkEN1RNN9vtWq5/pPrtpxzAMMZsU/5WTOjbHU9MX4tznhHodXc7qBO+xcSHe+GZFRkibCiTj60T+qL7E9Ox9pwnInrdjXbqBHw78WH0emYFMioy3rb05/7EB4MicMcTb2Pme0uwPad6SGLIWY9xvXpj5LytuNC4LToGN0bO1oV4JbIXRq/NsagPxm5H9d9P+SkkxpgN0iF+ald0+W8GIhfuxaoXW0MlUg1nf8BTnYfiB4eXsfnofPRyEDnjp6Jrl/8iI3Ih9q56Ea3NGfHDU50x9AcHvLz5KOYbM1pzJRnbNh6BssN96NHKnOdK8jZsPKJEh/t6wJikz0tB7OFknL94CUU6JVw8WiIkPBTNXcp+Hxpw9tN+aDEmFneNn4/nQ9RQSCo4arwR2LEz2nrYyfmsEfNumIwnR8zBLkUXdHc7jG3HwzDn+Da80Uop5zEqxo7XwtBnfhEGLd+F5YObwfhtcdxM9O05GftbTcSeA9MRbtz2aq4gedtGHFF2wMM9WllP0+chJfYwks9fxKUiHZQuHmgZEo7Q5i61/wo2FCAt9hCScwpwuUiLUp0BCjsXuDdrh44dWkJTVibRJp/2a4ExsXdh/PznEaJWQFI5QuMdiI6d28JcTQbkHd2M6BQNuvXvCt+yeYtTsWN9PBBW0U7QZWLv7zG4HNAX/xesMadZMuTh6JZoJLt2wwPdfEV9GZAduxbRJ4tg16ApQu/sCn+NqMU6lcu4vBwcWh+N44UGmAdVBRRKNZwaiXYOC0cbD3tTqkmVvAqFBKW9qJOmQQgL84fbNbvERZzYF4/U3HxcKS6FXmGPBl7+6BARDK9K3bhyGxqy9mH19lQUW4z4Zett7BuAsA6BaGy53htp8+twXfupMYBhjDGbojtJs+9Uk+TxNP16WU4z0dL2sf6kUgXQuB1a8VlHJ2ffSWrJg56unJG028eSv0pFAeN2yCnVafeNp2CVmjpOPlSWQvvGB5NK3ZEmHyoVn0sp7t0wUotDqfFwap4UJLkG0uP/O0xF5pko98sB5KywzGOeFPa+1Hf6dsqT81VXRKuGB1L48E9pT/ZlWv2MB0nqu+iDFJ38vax4E73YTEnq8Gl0xFischfp20FuYp5ONPVwpS8qaPfR+GAVqTtOlhOEKmmlce9SmLpK2SVXCnz8f3S4bCNrUHqw+rzmSUH23t3opRXHRa0a5dKXA5xJYS2fb1+avt1YS1raMS5Q1H8wTYip2J7Sw1MpXK2m8GlHRIuY6TOiqLedknxHrpdTqijeQC/4ijrrPoeSTdVZRL8+5U5icDatU6npRK/8epr0dSqXcfY1NNxTqpLHPCnUHtTl5e8ppaxwNeZVkNq9Ez29KJ6uyFmrMm5XLzsr83l2p7fWnRPllVVpw+zP7iF7K32wfH73jjRs4UG6ZMp9Y21ef9e3n/IlJMaY7dFnIzuXIDXygIeIHirYoX1YW6j1mTh+3HijiB7Z2bkgqRE8KmeEXfswtFXrkXn8uJxyPVRoO3IpovceQmJyGk6lHMO+tfMxrHkmfnrrTSzNNJ/3bvzsd0jLzEB6erp5Sj2Og5sW4smWOYieNQXLaryO5YCBixNxYMnL6NbE8oxLZfqUGBw8B3hG3IGASmdZGiA8IghKXTKOJlz/DT+qtiOxNHovDiUmI+1UCo7tW4v5w5oj86e38ObSzGtenjKUlkJHKrQbvQbHU0UdnTqF1MSD2Lryv7jfOQ6LXnge8xKNl8Qa49nv0pCZIdeRmFKPH8SmhU+iZU40Zk1ZhgyDCgEBfmJ7MnEyudi8AiNtiem+J5VaDRFomBnIVC5JafW0E6BsjCZuEuhiDsxX5Bww4NOjonwnsf/H19AZh/C/197Hn9q6lMs4+72YF3+qPI9pSktC/LblmHC3ErGfvYzxP140rshK3lNIEXWyZcVU9G+YgG9GP4vZsdZvuJF8huKznfsRn5CElLRTos8lYPcPE3CXYQ8+fv1j7C+RM1bR5NmVSEtPwcqnfaFUd8a7u9LM6z12AFu+nYGHGidhxatPYtpucz+5kTavv+vbTzmAYYzZHqU73N0U0J9LxskqN7Q6uLnBRaFHYX6B+KSEu7sbFPpzSK6eEW4uYhmF+XLC9bFv1gF3dQ1Dm9Yt4NeqLbrc/wo+HHM37K4cwK4D8mgiOaOJbzM0b97cPLUMQsfI5zAisikkfR4uXLzGcCDVfpjWieAoyyDB09vLdOmoghK+Tb2gRjFyzl24/kHHvhk63NUVYW1ao4VfK7Ttcj9e+XAM7ra7ggO7DqCGMdOCAvaNmqF1S1FHfn5o2aYjeg2eiK/eewRuRfuwas0pUy7JuQl8m8l1JKaWQR0R+dwIRDaVoM+7gItiGzUBreEhFSHt5CmUDfG6c2eRa1DDw8ujfPupqAjFpICjY5XLDmUkD1MfMlzMFfOak1Sunmjm54+IQdPw5gA30Ond2H5CV4dymeaGq6dFGxunFoEI7fkkpsx8CoFSAeJjywbhqnn90ErUSZ+hk7Hs4yHw1h3F778nynmrUDZBUOcIhLYLRKsWfqLPtcMdj03Eq/c1hiH1IA7W1JfsG8G7mS/cnYz9yU5ev1hv23D0GfIOls4bhqaGk1j32yFze95wm9fH9e2nHMAwxmyPshXuvScUdoXrMGvMZ9iVno+C88mI3bAYkz/digICSrXGX5JKtLr3HoTaFWLdrDH4bFc68gvOIzl2AxZP/hRbzRnNy7yJXN3d4YTLuHChSE6xQn8GB+OzQJpghJku+F8/unIFRWJT7B2dKs5AyJROTnBQEIrFgG68DnDTuIog0gm4fOECrrGV1+TSvj38lQacPpUmp1SnP3MQ8VkETXCY6b4ItX8AWkh6nEpONgcwoh5Xr/wDOcr26NatgWkeI33OeVwQAYy7l5ecUoVkPAOjBhWIAKZaF1DD29sdEl1GQYH1gKBqua5JIYnBVgRToi1q4xwWKupEj7OZmXJKXajg5qaBZLgs+vf1tbJDWBiCxHqz0jPLA8NqbkKbW3d9+ykHMIwxG6RChzc+w5yH/XBm5X9wV4tG0HgFoPMDb2L1OZX4famAs6uLOWeHN/DZnIfhd2Yl/nNXCzTSeCGg8wN4c/U5qOzE2OLsasp3UymV4pBMKCnR1njWQxu7GEv3lMJ34FD0u9EiiPUZD+Z6Xan5syWDwVQGtbryqfkbJ7ZRKYKnkhJoa9rIWihEGznKwZV1WsQuXoo9pb4YOLQfjNUkefmjVSMgf8Nk3B/ZExEBIRi28gKCRr6LkUFl518MyE9MwhlDIwQE+chpVanQ2F0M+vqLyMmt+lQXQVukBSmc4Fp+M7al6uWC7ijm9PGGzz1RSKq0OAMuxh1CmsEFbUL8zUk15hXbZwo4IerE4hJZHUiSMXTVQV91U+pIEm3hLBZRYgr8a3LjbV6T69lPOYBhjNkmlwiM+fko0o7+iTU//YCf1mxFXPoZxLzdQRzMG6KZX5OyjIgY8zOOph3Fn2t+wg8/rcHWuHSciXkbHSQJDZv5yfnqQoKTpon4tesOjXGUqYlC/q6mhzwNmVg+cxGOqbvi5bH9RAlvjKJBA7iKQKAgP7/aO1+u5hegmFRo5O4mhp86kpygaeIGNzHA10whn+2hGzizIy+jhnoyZC7HzEXHoO76Msb2k2tJ7Q9/PyUMhVdgcGuG0PtH4aNfY7Brfn80KR/RCrE1ej9KnDujR7caLiGJ2mji4QaJRABT9bF0QwFOppyHwaGlWFf10ytWy2W4irzsXOTm5FV60geGbKxbuwfFLt3Rr6d8BqamvLKyev1LlfXZa7oZbV6T+u+nHMAwxmyYHZq0uxsDHn0Mjw7ohTAfCft3xOKqQ0fc0bnys6h2Tdrh7gGP4rFHB6BXmA+k/TsQe9UBHe/oLOeoCxVC3t6K8+c2YVz5r/3qFE6O5jMLV69aPdDnb5yBWesK0OKZaRgVfGOXj4xULVrAV9IjKzkZV+U0sxIkHkuGTtkMgYG1X74opwrB21vP49ymcXKCFQonODoqQMVXcfWWjLX52DhjFtYVtMAz00ahvJqUfghoadwWfwxZsAxLPpmBMQODobEYzfTJX+Pz9fnQRA7GgIqopgoJTZo0hsJwEbllN8HIDNlr8fueYjh16YO7G8qJ5WooVw30p77H8i2X0LDv43igxrLYiFve5vXbTzmAYYzZAC2yk+KRePbap9VLji/C7O9Po2G/J/GQ1zUObyXHsWj29zjdsB+efKiGeyRugNLLG00kQs55K2/BLYlF1LvLkK4ZgEkT+5gvP9wgpW933OGvxOVdv2PDBYvBWBuL1RtSQd69ENnhWi8XuQ5KL3iLAZlyzuP8dV62uJaS2Ci8uywdmgGTMLGPZS3Zo3VAc6j0GUhOqX63hiFvN2aNmIbt+k4Y885j8KyxG0ho3MQNaioQAYzFZRPDeax99z2sv+SNR0cNQbMq89dcLmt0OLx0KXZqffDIiIctzhD9XfS4dLnI+Py+KRCpt5vW5nXbn2vbTzmAYYzd9nRH56B/+44I7TsFe02PPxiQtWEBZi9Zi32JqUhNisXmr8Zj4L1vYauyL6bMGIyy+MWQtQELZi/B2n2JSE1NQuzmrzB+4L14a6sSfafMwOBrBTq1MeRgz4r5iJo7F3MtpgXrUqFX6JEevRhR877Cn1llQYUeaUsmYX6cAuGvTsMw39rWbcCFfd9ifpRxuZ9gbZIYfOgcdn89T3yOwuciODGx64znnr8LLrm/4K1n38Pq/UlIPrwZC0aMwKfHXdBj7KvoW48TMJUZkLNnhVwGi2nBOqTqFdCnR2Nx1Dx89WeWyFkTsYwD32Ge5fximvflDpyxNpM+DUsmzUecIhyvThuGytWkgr9/S9Oj8rEbt2J37FEkp6Yg8UA0vps7Bv0798PUvQ3x8LxleDvc4uVxVqgau0NjPHN14hBS0k4g7o+vMXnQ3Riy5DRaP78Qswc2rjxIXrNcVlz9E4uXHwGChmJk5I1eKLwxV4+uwoJZ4/DB+ouQmrdHqPu1Cn8z2rxm1fdnscbr2U/l98EwxthtS5fyCfVrpKaGd8+mo6aXgeko5ZNI0kgK44ls86RQk0fEs/S//ZVfC2ecN1IjWbyITEFqjwh69n/7r/ECObPqL7KrQruDxgWoKspgbZI86Nnf5Dd/abfT2AA1OYeMpc355qRrM76YL4BU1pYrtsPlwa/kfEJpCn3/n3ByU1bUiULtRXe/uYYyqrz3rhJrL7KrxPjyuJrKUDZJ5PHsb+Uv7rOkO/Ye3WG8nmZ1PjGJdgsY+6ec28z48rIAtTOFjN1M1qqp9NBM6uZSfZkKpSu1uHsEzd2WJXpI7XQJM6iLneVyFGTn0YmGzN5CWVYWcM1yWdSj6R2HQtHaEeSj1lDfqKTK5Sk9RFPC7cmx2yxKqLqei1/TQw3U5DPidzmhLkpp/6QwsnfsQR+elBco1jHVuI473hMfxP7yYQ+yl9TUwK8Xvf6b8QV9VVz5gQZrVNRo6E+iHW+szWtTfX++vv2U/5QAY8xG6ZGfFosDhzOQb3CGV2AndA72hLXf3Pr8NMQeOIyMfAOcvQLRqXMwPK/949ykJGYCOnX/CHbv7MfBaWFy6u3MgILUGOyJz8QlyQ3+EXego28tp15KYjChU3d8ZPcOSg5OkxNvf/pLWThxPBkZZ3NQqFXAoZE3/I0vPfOsz6mmEpw/FoO4k+dQWKpGQ982iAgPqvxK/bqyqMf9MdMQVsu9May6+u6nHMAwxlgNbC+AuQ42GsDcdjiA+cvVdgWPMcYYY+y2o5wqyP/NGGPMgsKxATRNgtDjnt4I8anpfSI2TuGIBpomCOpxD+4Iqemlb6xWoh5dRT22EfXYK9QH/9DeclvhS0iMMcYYszl8CYkxxhhjNocDGMYYY4zZHA5gGGOMMWZzOIBhjDHGmM3hAIYxxhhjNocDGMYYY4zZHA5gGGOMMWZzOIBhjDHGmM3hAIYxxhhjNocDGMYYY4zVyHDuB7zS5x5M2aaVU24PHMAwxhhjrJrLh3/H6vh8wOEK0mOO4ZyIX/Tnd+OXP1Khk/P8nTiAYYwxxlgVF/Dbf5/Fo927YvCiLDi6NYGUOB33RfTG4JeisOM2OBnDf8yR/YMYkHd0M6JTNOjWvyt8VXJycSp2rI8Hwu5Dj1by34jVZWLv7zG4HNAXvVyPYfXudJTUsCconAPQe0AEPFGA1ANxOJlTgKvFpSjVE1SOGni1ao8OwV5wkvObGZBzaD2ijxfCYFyuQgFJaQ8X96YICguDv5udOZtVBlw8sQ/xqbnIv1Is1qOAfQMv+HeIQLCX5d+4LUDiH5sQn6ODeRUSlA4N4NkqDBGhPhXlMeTjyKaNSMgzmPIZGfOqHFzRxK8dwtq3gKasroz0WYj5fRfOeXfH/V18oMJVpEUvx9JfY5ChbYT2A0bghQfbwEXODkMODq2PxvFC8/JN5bB3gXvTIISF+ePam5qFfau3I7XYovLL6qqxLwLCOiCwceUFGLLjsO7PNDiHRqJ3kKucaqY7sw9r9xaidZ++CGlk5feZIRuxa6Nx8qoark3D0L2bPzRK81fGedftyYZH137o1szenGhSgozd67C/KBB9e7eDRqpv215B8raNOKLsgId7tJLTLBmQtW81tqcWl7ePWCgUkhL2Lo3hGxCGDoGNUXmplZdpuHgC++JTkZt/BcWleijsG8DLvwMiRL+s1GMS/8Cm+BzoysvtgAaerRAWEQqfig6D/CObsDEhz7x9Rsa8Kge4NvFDu7D2aFGpw4g5cg5hffRxFJorRC67O5oGhSHM361K2SurS9l1Gbtr2Udbo5PfRcQl1r3MVRmy9mH19lRU7ormvtzYNwBhHQJRuSsakB23Dn+mOSM0sjcqd0Udzuxbi72FrdGnbwiqdsXq29wQ3mKbw4M9K/8V6yvJ2LbxCJQdKo5ddWtD4Ub2yzK689j/w//w4fvz8NPRAig978Azr7+Fsc8/gGDNbXD+wxjAMPbPoKUd4wJJpQ6mCTGlchpR6eGpFK5WU/i0I1SWqs+Iot52SvIduZZOz+9NdgrTPm51kjRD6KcisZyDkyhMbSWPQkWaNg/T+3/mkl5ePlERrRnuSWIXr5ZfoXanTk8vovgrctaq9BkU1cvOynye1P2tdXSubCWXvqGHnRXV8pnKE/wkLU4oNucrXk8jfZXV85kmBdl7RdBTUbsot2y5pftoQoiaJI/HaeXpBFo6vD01VLmQT2Abaq5Rk0Jyp36fJJJOzk5Fa2i4p2R12Wr3TvT0oniqaVMp+zO6x97KNsiTsa46DltIBy/J+QV9xgp6XGyPsulg+vZ0RY2Lb8xtKXnS8N9Eg1lz5QcarJHXp1CTT/9P6KjW/FXRvskUIepTHfgSrSuvDEGXTHO6q0nZ7CXabKrSeratdh+ND1aRuuNkOaGqbPrsHntSWFmeaRLldO84jBZaVkKlZeopI6oXifGo2nye3d+idRUdhr552NnKehSk0gTTk4sTyNxjimn9SF8ScV2VfOZJYe9FEU9F0S6LOipaM5w8JSv5jWXv9DQtqrmz16Hscrtecx99nCYOr1+Zq8r+7B6yr3Edxr7ckYYtPChqsYwo+4rHyVeppKaDv6XKXfE0ze9tR5LncKreFWveZo873qDfz1YsSLtvPAWr1NRx8iE5pa5tKNzIfmlSSmd3f0XvPB5BPo09qImLhjw83ahFz+E044dDdKHmqvzLcADD/kH0dG5hpDgINaBB31YcZkr3v0MhIoDpOut4+aCrPzWXeooAptlLm8Xx+iJlZaRTenrFlLxsMHlIdtRrdjyln80XoVHZwURF7Ub/RgknUyjtVBqdPLKHfv/fKOrWWCKl77O0Ks+8fKPSwnOUYbHMUymJdHDLCpr2UGtRRntxUDpQHlBVpqPs4zG0Pz6BklLS6NSpFErY/QO907sJSaq29NZe84irS/mA7lKrKGj0Wko1reMUJR/ZRb+8/wi1tpPItd9CSjcdZPR0OTuDEhY/Sh5KOwp9Y7PIf4pSEmJo0zfT6YmQBiRJjenehSfl+tFT2ieR5Cq237e5N7m0foTm7jpv+k6X9RM97SeCh5ajKLr8SFlKhecyyrfTWI6UxIO0ZcU0eqi1GJjtO9LkA9a31DhYXszKoJSVT4uBQE2d391Faaa6OkYHtnxLMx8LIidxYG/7xq6KA7Mo3/lVz1ErtZI8Biyi5PJISgx084wBjBcNX1NDACO2wljWU8n7adkzAaRS+ohg57L8XTHFz+lFGklFfk//ROXjiO4kzb5TBDB+/6E/5ELUq21rDWCMXTCLMlJW0tMiMFN3fpd2pYnlinY/dmALfTvzMQpyEoNO2zdoV1klVFmmLvs4xeyPp4QkY780tu1u+uGd3tREbEvbt/aa+q/oMPTBXWpSBY2mtalyuZOP0K5f3qdHWovB1rUfLTR3GNJfzqaMhMX0qIeS7ELfoM0i/6mUBIrZ9A1NfyKEGkgSNb53IZ0sq/vSQjpnuQ+Jsice3EIrpj1ErUWAai/KWVMXqFPZ67CPFtW3zFWZ1pFCK58WgZC6M727K02sR5Tn2AHa8u1MeizISQSobemN8kYQ9Odp1XOtSK30oAGLksuPL8YAZp4xgPEaTta6onGb9x84TMdM25xGyUd30Xdv9aDGxm1+c495m4VqAUw92vDG9kuji/TrM82ocfgL9PWBb2mYZwi9vWk7RT0eRI3aTyD5MPS34gCG/aMUb36JmomB0PJsi/HXoZfSiR5YclFOEceBxFnUVQz+geN2yCmWxAD+UQ9xUGpO/zH/5DaxPJhU3u11dGxGZ1JLHvTM6poGTguFq+lZHzFQdZpKh691/KjiyqqnxUHdnv5v4VlRQmN53qZ2KjvqOfeU6XM5/Tn6/F5xsHV5iJbly2l0gZY/oiHJqQ8tKD/AmenTv6ABbpI4KL5Bu8sOSvKZEWXTR+irk5aFLKY/XvYTB/gImn60ppGgQuHqZ8lHtEenqYflFOvK2q37HItBwOjKBnqhmZJU7d6ucsC8QD8M8RSBl4Z6f3xUPuCX0tHp4aLdWtIrWy0GmRpo9xrrz2KQNNIl06IBHiQpvemRr0+Zy6LdTW+2EcFC+3dof23tZa1t6xDAmBRvppfEtqq7z7EIyoyu0IYXmpFS1Y7eLquEuizzyip6uolE9v+30ByMiXnebqciu55z6VTlDkPnPr9XBIou9FBFh6ELyx8RwZwT9VmQXqV/pdMXA9xEMB1Eb5R3mJoU0upnfUR/6URT69fZK5e9Guv76I2XuZg2vyTqWt2d5lRuBNEVXxB9VPyAeduivxhd+IGGeEokaXrTx2Wn80qP0vRwEfS2fIXq0BXNrvxMT4ofQnb/92n5NlcLYOrZhjWp635JRYVUKDZJf24h/Z9DE3p6lfH4VkSFhfVoy1voNriIxdjNo/YPQAtJj1PJyea75PVnsHrlH8hRtke3bg1MeYz0OedxgRRw9/KSUyzpkHU2GyS5oYm7fIPENSnRMjQYbshHRvoFOe0anMMQ6q+E/mwmMutxK7/Kzc10/8Xl/ALTuWCUlIiSErTFWvPnMlIjBAV6Q6k9i8yzenOadj+2x1yCsm1P9PKpvNtLzR/FoLscoU+Lxf7zBlOa/vJlXDFI8Lr/BQzxt7x3QIWWLZtCMohl16HwzmGh8FfqcTYzU06pJ4cwhAWJuspKr1RXuqRv8cXGHPEDrADbpjyP9/dfFduYgJ/XJEDfqDO6h1rew2KdXbv2aOOoR3riMVyR06BsjRGfL8AQ3xysev0/WHSiBBe3LMWvyYBf70iEXPs2iutu22tzQFhYEJT6LKTXr8PATSPBcDkfBeYOgxIxO2mLoa3cYdAoKBDeSq1op7Mw9xgt9m+PwSVlW/Ts5VP5aQ+pOR4ddBcc9WmI3X8e5h5TE2eEhfqLstetv5SrVvaqrO2jN6vM1jmEhSFI9OWs9EzzscVEh6Rvv8DGHAIVbMOU59+HuSv+jDUJejTq3B116IpmKnc0FttMl/KRb3WbjerThjWr837p4ApXO7F0p24Y+d67eDxYbUyEq2ttO8JfgwMY9o8iefmjVSMgf8Nk3B/ZExEBIRi28gKCRr6LkWIgNDMgPzEJZwyNEBDkI6dVVqotFUGBHezsFXLKtSlcnOGoIJQUF8spOhyd0wfePvcgKqnK4URygpODWG5xEcpy14kkwVgand68PFVgRwQ30CPmg6F4aeEunCtfjQRHJ+MNf1oR3MhHuaLTOJ1jgNKnOZpVO/Y4wcfbDRLl40Ke+dBempCAZL0SgcEhMB6yKijgJJatIC2Ky5atO4o5fbzhc08Uqm+qE8ybWq8trSC5wsVZLKBEbIucZHw64pepMxCt7YJJSyYggmLw3oixmD5qGN4/6IheEydjkJuc9VocAxHkp0JJ8nGIOKWc5DMI8z9/AQGFGzFh6AN48LklyGj5DD6ccLd8g+UtaNtrkuAq+pdCDF7aej35IUEydxjzgKYKRMfgBtDHfIChLy3ErooOA8lRtJP4VysGRnOrFuH06RwYlD5oXr3DwMnHG24SIf9CnikY0B2dgz7ePrgnKqnK4CmZ+4uojfp1gSplt6L6Plq/MteX5OoCc1e0aIQLv2DqjGhou0zCkgkRoJj3MGLsdIwa9j4OOvbCxMmDxA+bulJCZTxE6Q01l68+bXgz90vXjnh87Gj0F8H57YQDGPbPovaHv58ShsIrMLg1Q+j9o/DRrzHYNb8/mpT39kJsjd6PEufO6NHNPCRVJn5Nyf9VdwpTcFHBgKt52cjNzUGe5WMNZeTM9V9PBcljKBYsn4jIBsewdPY3iC8/rooDoDgIGg+IyrLjuAh69MbtEv9WX6cIvEqN53Ls4WgaDPQ4fSwJFxReaNPOvdpBwmB6zEMFddmyDVeRl52L3Jy8Sk9wlDFv6vVuadV6FS5H45cNOXDs+yJefXoKvpzcAw4JX2DKkjT4v7QMy8cEi9LVgcofAS1U0GeewIkiOc1Egtu9s/Hl6x1QenAT9pT2wvs/fYKBXmU1cevbtipFtUq4DpIHhi5YjomRDXBs6Wx8U9FhRJvqTYOmsqLDGLsMiMS/VjaESkpNT8HYO9qbNtdwNQ/ZubnIybN8kqrMLagQsbDqi6tfmevNSiNcjv4FG3Ic0ffFV/H0lC8xuYcDEr6YgiVp/nhp2XKMCa5TT6y7+rThLd0vbw8cwLB/FqUfAloanyX0x5AFy7DkkxkYMzAYlk/86ZO/xufr86GJHIwBFVGNDVLC977p2JCQiNiNMxFZ/ggl4eqVIvG/juLXr3zQdfaEZwMJhjPpOFX1TL7hHE4kXxC/slrCv6nxF1YpEhJOQq8KQLDplHFlJcZz2Ao11HU8O3Wz6bPTcfqKAu7NmsNFskP7cYsws58ItKTG6NgnAp51adKrJ/DzW49g0kYx4GpTcPxk1UpxQfcpS8SApAEuZeDkGREQy9/YMqXvfZi+IQGJsRsxs6LDgK5eQZEYyxzFL3NzqzrD07MBJMMZpFfvMDh3IhkX4IqW/k1FL7xd/NVl1iM7/TSuKNzRrLkLJLv2GLdoJvq5S5Aad0SfCM9bMsDWvQ3/+TiAYTZNm52E+MSzFqfr7dE6oDlU+gwkp1Q9iInDWN5uzBoxDdv1nTDmncfqNtjd7pz8ENqmscXOTCgoLARJDeHmJh+q7Trjjk6O0CWuwc+HLK6XCNq4r7Binw6a3v3R01Ek6E/hWFI+FD5tEexWtYIMuHz5CkjhZL60c5PoL10WB1+F+HXsWPvBt6gIWpFLrVab86oC8eJnH2KgxxmsGD0Ky9NruuhgZEDegc8x/M6ueHxuAnzDA2CnS0dS5VMwZvZheP3L93Ffw2R88eIY/Jh1i0MY/SVcFiOQwt4Rjrd0BHKCX2gbNLZoWiooRCFJaOjmJg/uduh8Ryc46hKx5udDqNRjtHH4asU+6DS90d/UYW4XN6PMely6LIJ/hT0c69AIRUVaczCvNudVBb6Izz4cCI8zKzB61HJcsyvekLq04T/fP+Hwzf6tjNd4+7dHx9C+mLK37HClgr9/S6j1mYjduBW7Y48iOTUFiQei8d3cMejfuR+m7m2Ih+ctw9vhdb277vZkuLAX386Pwty5c6tM87Hq8CXA1Q1uZVfIJB88MXooWlA8PnzyScz+da8IUhKw68cZeOKJ2Yiz64JxEwaZL7NpE3EsWQ91QDDaqsV6cvZgRfl65uHrXWdhULhCU/YGuBtx9ShWLZiFcR+sx0WpOdqHVr9kVRUZyl7MVTHAKP2ewqfzhsA3exVee/EzJFWPXYUSHF44CBF3/wcrzofhzZ9jEP3RA2ihLEJKUgq0p/7AF1GV63LBmisIu6M5FKe/w9hx30O+x/kmu4qjqxZg1rgPsP6ihObtQyF+xN98hgvY++18RFlsX9k0f9VhXIKrCHjLOwx8nhiNoS0I8R8+iSdn/4q9x5KQsOtHzHjiCcyOs0OXcRMw6LY6g3ljZb56dBUWzBqHD9ZfhNS8PUJrbQSSL6cqLK4uKeH31KeYN8QX2ateE4F1ksUNvzdBvdrwX0B+Gokx26NLoU/6NSJ1w7tp9tGKx/pKD82kbi7VX46mULpSi7tH0NxtWZUf1a1GS7vfbkd2Tj3pY4tHKUsPTaVwe0e6471j1ebX7nqT2to5Ud/5p+SUUjo0JZzsHbvRrISquS/S1w81ILXPCPq9Dk9dlyndP4nCxPp7fGh+X4t252sUqKq8jRWTghzCp1BcpacdL1Hc/4ZRe42q4kVYComcW95L764/U75NuuQP6W5HewoZv9v0uKh2+1jyr7QeBUmNHqFvcs35RcXQlHB7cuw2i6pv6tf0UAM1+Yz4XU6oTJfyIfWwl0jdwI96vf5b5ZeBmVyhHwZrSNVoqOllgka647Opuyhf6MSYyo+z63Np3egQclE1ogFfZMiJFkwvF3Mm3z6TaG26/LjrhW/oEVEf3s+toQsrH6MG13qRWegk+V0m9WxbUT9TjfVzx3tyQhWiH3/Yw54kdQPy6/U6/Va9EujKD4NJI7ZraFkl1LZMo9L9NClM5OnxofndJ9qd9Fqgysq2mSeFQzhNqdxh6FLc/2hYe1H/5fUi2t65Jd377no6Y7HppYemmPaNbrMSqu0bF79+iBqofWhE/Tp75bJXY30fNaprmSvTUcqHPcheUlMDv170+m+nKz+GbWR6CaKKGg39icxboqPjs7uTo30oTbR4caaRPncdjQ5xEf12AH2RUb09rZLbRx3x3/L9yPKYY1KfNryB/dJW8J8SYP9I+ktZOHE8GRlnc1CoVcChkTf824ehraflu7b/nQyXMxC37xDS8vRw8WmPrl390ehfcc5ZjzNHjkHVrj08/y3n2G8Gw2VkxO3DobQ86F180L5rV/jf7h3GFstcsguvt++FBQ2m4NDeSWjHfbRWHMAwxhhjfzcOYOrtdrqAyRhjjDFWJ3wGhjHGGPu7GXKwZ8U32GvfB88/3gGV/846s4YDGMYYY4zZHL6ExBhjjDGbwwEMY4wxxmwOBzCMMcYYszkcwDDGGGPM5nAAwxhjjDGbwwEMY4wxxmwOBzCMMcYYszkcwDDGGGPM5nAAwxhjjDGbwwEMY4zddgqwbnwkej4WhTidnMTqrmAdxkf2xGNRceDqs65g3XhE9nwMUTbcwTiAYYz9o1068iPmTJqCr2IuySnVXU3diHnjhuCeO8MRGhqBHvc/hQk/HP/7Bj/DVaQd2I6dO48g628qRL3q5NIR/DhnEqZ8FYOaa/mvY7iahgPbd2LnkSwOYKwy4GraAWzfuRNH/q4OdhNwAMMY+2fSn8OfHwxCxB1P4O2Z72HJ9hzo5a8qGJC9+W30Du+PN5cfgzrwTkT+X1e0VCTilx9346JBzvavUp860ePcnx9gUMQdeOLtmXhvyXbkVK9kxm4J/mOOjLF/HMPZDZj85AjM2aVAl+5uOLztOMLmHMe2N1pBKecxMlz4FcM7PI4fNS/g+43z8YCP5be3gCEPR7dEI9m1Gx7o5ivKIoKF2LWIPlkEuwZNEXpnV/hrRBkMZ/FpvxYYE3sXxs9/HiFqBSSVIzTegejYuS087OTloQCJf2xCfI4OxgO5QiFB6dAAnq3CEBHqAydzpnqpc52IMm6Y/CRGzNkFRZfucDu8DcfD5uD4tjfQ6hZVoyHvKLZEJ8O12wPo5musp2zEro3GySI7NGgaiju7+sNcfZ+iX4sxiL1rPOY/HwK1qBeVowbegR3Rua0HyqrPkHMI66OPo9AgD4MKBZRqJzQS9RwW3gYe9ubkOhPliVv3J9KcQxHZO6jyX5TWncG+tXtR2LoP+oY0AmXF4Pdd5+Dd/X508VEBV9MQvXwpfo3JgLZRewwY8QIebOMiz1zWT65C7doUYd27mftJuStI3rYRR5Qd8HCPVtBl7Mbq3ekoqWF0Vzi3Rrv0d9B5bCzuGj8fz4eooZBUcNR4I7BjZ7St6GC3N2MAwxhj/yRFq4ZTYPhw+nRPNl1e/Qx5SGq664MU0snfm+koNao3Oapa0IsbLslpt1jxBnrBV0nq7nMo2VSYIvr1KXeSxKHY+HtSqelEr/x6mvSUS18OcCaFKd1yUpC9b1+avj3PtDi69A097KyokkdMChVpgp+kxQnF5nx1Vo86KVpFwwPDafineyj78mp6xkMi9V0fUErlSr6pije8QL5KNXWfk2xuy6Jf6Sl3Sd5mJWk6vUK/ntYT5X5JA6zWiz359p1OZdVXtGY4eUpV8pgmBak9utDL36dQqTmrVfqze+n7L1fSjtNyLn0GrXjcl5TKpjT4W2M7VtCfnk+97STyHP6baHWi0n0TKEQtkcfjK+l0wlIa3r4hqVx8KLBNc9KoFSS596NPEssq8wr9MFgj9wdRNp/+9MlRrfydoN1H44NVpO44WXzQ0+n5vclOUXWbKiZJM4S++mwAOVvJo7D3pb7Tt5NcRbc1DmAYY/9A+vLBo6jGACabFvd3JqXv87TOOKL8FUr308T2alK1fZP2yONPaeE5yjh1kvb/+Dp100ikbPkKRYu4Q385m05npFN6unlKPX6QNi0cRm3sFOTQex6liw3UpXxAd6lVFDR6LaWa8p2i5CO76Jf3H6HWYrB07bfQlK/u6lcn+opK/ksCmNL9E6m92N62b+4hc/WVUuG5DDp1cj/9+Ho30khKavlKtEjX0+Xs05Qh1116eiodP7iJFg5rIwZ2B+o9L900t6h8OmdRx8YpLSmeti1/h/p6K0lq/Bh9e8GctbpSip/SidRQUZs3d8tpYs3nV9FzrdSk9BhAi8xRqon+9DxTAOM1fI0pgCF9Gn0S6UqSnS8193ah1o/MpV3njfl1lPXT0+SnFNsyyrgtZjpTP0mm/cueoQCVknxEIHRZ/q5yACMUX6SsKtuVvGyw2A/sqNfseEo/m09a/WXKPp1RkSf1OB3ctJCGtbEjhUNvmle/jvO34HtgGGP/QFLtN/iVnETiSS0knwbI/WYKnn+4D7pFhKNLr4F4fsYvSLws57uZJA+4uylguJiLXPleEpWrJ5r5+SNi0DS8OcANdHo3tp/QQXJuAt9mzdG8uXlqGdQRkc+NQGRTCfq8C6Z7UfS5ubgoDuNerYLhZ8rnh9Yhd+LhNxfirT4OuLx7E/6sz1219awT6S8eQSQPd7gpDLgotttcfSq4ejaDn38EBk17EwPcCKd3bzfmhHMTXzST665585YI6hiJ50ZEoqmkR96Fi6a5ReXD06KOjVOLwFD0fHIKZj4VCKkgHrHHS8x5q5Hg3akn7uzUDb3Cm8ppxjIOxAfvD4J77jq8NXI+EuTZDfkFKCQFHJ1doDAmSC3w+KN3Ql16DoY7FmDD92Nxp4fxspAS3gOeRn+xyNP7dhpzmihN/aQ1Ip74Dx4JVCB7704cralo9o3gXWm7mkKZcwZ5Ci+07RSE5l4NYSc5o4lvs4o8LYPQMfI5jIhsCkmfhws2cAMYBzCMsX8nQz7yLxlQun8uRkz4EWl2rdH5zgi0KDmIFZMfR+8hXyDFyg2pJflnkZmRgYxrTJmZ53HJ2sMdUmM0cVODCkQAo5XTyqnh7e0OiS6joMD64KE/cxDxWQRNcBhaq0RCSQmMd79oi7Wm8//lpEYICvSGUivKerYed9VeZ53UXQnyz2ZarbOKKROZ5y9ZfXpIatwEbmpCgQhgqlefN7zdJdDlAjmhKj3OHIxHFmkQHNZaTquZwhidKRzh5FTTMCmhyYMfY1vsDvzviWZymqBLwrdfbEQOiXJuE0Hg+/txVZQ24ec1SNA3QufuoTDfWqPH5ctXYJC8cP8LQ+BvbM8yqpZoKQJVg6irauzaoX0bR+jTE3HsipxWKx2yzmaDJDc0cb/GDUr6MzgYnwXSBCPM1MFubxzAMMb+pUpRKkZJdfBY/JF8DFu+/wIL5n+OH3bsxPz7GyBn43wsqfqODMM5LB7UEn5+ftecmvu1wtMrrZ36UKGxu0b8wr2InNyqkYAIRIpEIKJwgquLtUOzFrGLl2JPqS8GDu1nukFUFdgRwQ30iPlgKF5auAvnyhcpwdHJQfyrFcFNpdCmFtdRJ/VgOLcYg1par7OKqTn8Wj0N69XXGO4aCfqLOahefVoUaQkKp0q3zlbQxmLx0j0o9R2Iof3MeXRH56CPtw/uiUqq/ISa4SLiDqXB4NIGIZUii9pd+GUqZkRr0WXSEkyIIMS8NwJjp4/CsPcPwrHXREwe5CbnLEVCQjL0ykAEh6jlNJnoA04OCrFJxXKCJUcEBvlBVZKM4ydqOgVTXam2VPQwO9jZm87/WKWNXYyle0rhO3Ao5Cq6rXEAwxj7d1I4w8lRHMwdNHAre9jDSNkM/e/tCJUuBccSqwwgUhM8MH0Fvv3221qmlXgn0lmeyZISTTzcIJEIYKo+b2wowMmU8zA4tIS/X/VB05C5HDMXHYO668sY289cYMljKBYsn4jIBsewdPY3iC8/LWGAQW88i6OEsj7j7/XUST1ITR7A9BXW6qvKtPIdWK++JvBwk0AigKlefSeRct4Ah5b+coolAzKXz8SiY2p0fXks5OqD4WoesnNzkZNXXOkMliF7HdbuKYZL937oWa9HuS4j+pcNyHHsixdffRpTvpyMHg4J+GLKEqT5v4Rly8cguKw99KdxLOkCFF5t0M696lAs2s9YIFWVwMZEBf+AFlDpM3HiRJGcVhuqfIbOGkMmls9chGPqrnh5bD9YNv9tS74XhjHG/pFqvIm39DBN7aQmyWcEra30sI6ezn7al+wUrjRo5RU57WbRU3pUL7KTPGn4msp3yerPLqEHNRI5911Ap6rdP5lH615oRSpVa/rP5kI5zcKVUxSfmFt+4zJRMW15uQUp1XfRB/W5q/Z66+QvuomX9OkU1cuOJM/hVLn6RPmWPEgayZn6Ljglp1nIW0cvtFKRqvV/yLL6tPvGU7BKTR0nH7J42khHKVG9yUlqRA8vy7ao0zrQpdAH3dWkbDGKtpjqr5SSPr2X3CUlNX/6ZzprubCiVfR0E4ns+35CWVVXok+jj+62I2WzF+WEMlco6ac3qZePmhRQU/t39pvLXfUm3mqKaevoVqI/dKEZx6w3UN66F6iVSkWt/7OZrPSw2xKfgWGM2TRtdhLiE8+i3ucFVK0RHuYOZO/Alv0Wd1QYcvBHdDx0diGI6FjfF4HURkLjJm5i6ClAruVNMIbzWPvue1h/yRuPjhqCZlWOzCWxUXh3WTo0AyZhYh8r5/ad/BDaprHFKXVCQWEhSGoIN7dr3PNguISMI4dxKl++5+ZvqZN6qOEeIsP5tXj3vfW45P0oRg2xuB/FpASxUe9iWboGAyZNhLXqq0R3GEuX7oTW5xGMeLjJtS9T6HKQfDgJ2eVXcopQJMqlUKuhNl2pUSHwxc/w4UAPnFkxGqOWp5dfqtKfOoakfAV82gbDrdoJmMu4fMV4OaziPIgh7wA+H34nuj4+Fwm+4Qiw0yE96YRY401QEouod5chXTMAkyb2qfz+mtsYBzCMMdulO4o5/dujY2hfTNlbcT+A4cI+fDs/CnPnzsUna5Mgfqzj3O6vMU98jvp8A1JNo4gT+jz9OPwVyVj0yigs3nYUycf34LtJQ/Dmqjx4DXwFTwVcY/C/TqrG7tBIemSdOISUtBOI++NrTB50N4YsOY3Wzy/E7IGWgYigT8OSSfMRpwjHq9OGwdfiS8OFveXbWXmaj1WHLwGubnAz3gpTA+2fE9CzY0fc+cZ6OQCsR50YLmDft/MRZVzfJ2uRVESgc7vx9TzxOepzbDBX8k1Wdg9RFk4cSkHaiTj88fVkDLp7CJacbo3nF87GwMaVhzV92hJMmh8HRfirmDbMt9ZB7+qfi7H8CBA0dCQir3kdRY+kDx9EcIf26PffOHMSyZd+FArzk0ZGSj889ek8DPHNxqrXXsRnSeZ7iLSJx5CsVyMguC3UMCBnzwrMj5Lbb97X2HXWAIWrxpS35PBCDIq4G/9ZcR5hb/6MmOiP8EALJYpSkpBy/bckyfRIWzIJ8+MUCH91GoZZdrDbnXwmhjHGbI8uhT7p14jUDe+m2UcrLgJot4+lAJXpsn+1SeHyIH1V/m6PPNo9uz+1cKx46ZlC2ZDaPhZFe27Rm7x0CTOoi53lS9YUZOfRiYbM3kJZVs7um7ZF7UwhYzdTvpxWRrvzNQqsYTuNy3UIn0Jx13gTW9Hvz5GXZHyPSdl7VYzqWCfa7TQ2QGWxPotJ4UIPVlTyTaSjhBldKr+kTWFHHp2G0OwtWVXe82Okpe1jA0jtHEJjN1etPfFttUtIRbR2hA+pNX0pKqm2a2F6Sl80gBqrNdRnbqI5SXecZnd3JPvQiRRTqd71lLtuNIW4qKjRgC8oQ6+j5A/vJkf7EBq/21jzxnL6k6pSHUrU6JFvTPMaX0zn7NuHJq1Nl9vpAn3ziIZU3s+ZL6WVHqKp4fbkeMd7pm+r09Lut9uRnVNP+tji3TQmpnZUk3PIWLJSRbc1/lMCjLF/Pe25I9iz/wQuUkM0De2KiBaut/D0dAnOH4tB3MlzKCxVo6FvG0SEB6HxX/729svY+FJ7PPB9a3y0byNGB1Y+2/TX1kk9lJzHsZg4nDxXiFJ1Q/i2iUB4UOPyPw9QHyUxE9Cp+0ewe2c/YqaFoX7PG/119GeO4JiqHdp73vwzgraMAxjGGPsX0qd9gns7ToZ+6i5sGtv2th28byVbCWCYdTZ0sYsxxtjNoUfaxt3QPjgHC1/5dwYvzPbxGRjGGGP/SoaL+7By6W4oew7H4HDzDbPMdnAAwxhjjDGbw5eQGGOMMWZzOIBhjDHGmM3hAIYxxhhjNocDGMYYY4zZHA5gGGOMMWZzOIBhjDHGmM3hAIYxxhhjNocDGMYYY4zZHA5gGGOMMWZzOIBhjDHGmM3hAIYxxhhjNocDGMYYY4zZHA5gGGOMMWZzOIBhjDHGmM3hAIYxxhhjNocDGMYYY4zZHA5gGGOMMWZzOIBhjDHGmM3hAIYxxhhjNocDGMYYY4zZHA5gGGOMMWZzOIBhjDHGmM3hAIYxxhhjNocDGMYYY4zZHAUJ8n/fMgqFQv4vxhhjjNm6vyB0qNVfFsDcDhvLGGOMsRtzu4zpfAmJMcYYYzaHAxjGGGOM2RwOYBhjjDFmcziAYYwxxpjN4Zt4GWOMsX8og8GAtWvX4vvvv0d2djbUajVatmyJkSNHIiwsTM5VP7fLmM4BDGOMMfYPYxxzP/roI7z//vu4cOGCnFpZSEgIPv74Y0RGRsopdcNPITHGmI0ynNuBJR98jO/jCuSU+ijAuvGR6PlYFOJ0chJjldxYH9Hr9Rg0aBDefPNNU/DSunVrzJ8/33QmZvXq1Xjrrbfg4uKCo0ePol+/fli0aJE8p23hAIYxxuqp5MBSTBz/NqZ9dxwlclqdGa4i7cB27Nx5BFkcwDBrbrCPPPfcc/jll1/g4OCATZs2ITk5GaNHj8b999+PBx98ELNnz8bFixcxffp0U/4XX3wRP//8s+m/bQkHMIwxVk8KlRJKhQIqtYoPouy2EhMTg2XLlkGlUmH37t1ISUlBnz598OOPP5q+N94TM378eNx333245557TJeQjIxBT2lpqem/bQXfA8MYY/Wk3TIKQfd8gcaTDmDf1FCoRJoh5xDWRx9HocF4rFNAISlh7+KOpkFhCPN3g51pTsFwFp/2a4ExsXdh/PznEaJWQFI5QuMdiI6d28LDlNGA7Lh1+DPNGaGRvRHkappTpsOZfWuxt7A1+vQNQSPk4ejmaKRouqF/V19TWYyKU3dgfTwQdl8PtHIwp+ky9+L3mMsI6NsHwRog59B6RB8vhLnIohxKe7i4N0VQWBj83cpLbJUhax9Wb09FscWhXaGQoLR3QWPfAIR1CERjy0UYshG37k+kOYcisncQKm/SGexbuxeFrfugb0gj60HhlWRs23gEyg73oYfYoHqvX5eNY3vjkXy+AAaX5uhwZwRauJatSY+8lFgcTj6Pi5eKoFO6wKNlCMJDm8OlUmEMN1Rnda6DdsX4X619xLrHH3/cFKxMnDgRgwcPRpcuXVBUVAR7e3tkZmbijz/+wPPPP4+rV6+icePGyM3NRdu2bXH8+HHTjb7G+Wtz24zpxgDmVvuLVsMYY38J7Z9jqLVKTZ3/m0A6Oa1ozXDylGA63lWaFGpy7/Q0LYq/IufMpS8HOJOiaj7xe9Lety9N354n8ugpY8Xj5KtUUtPB39JpvXlOE/1pmt/bjiTP4fRbkfis3UHjAlWkDp5AMaXmLESldHhqOKnV4TTtSFmiWGZUb7JT+tLI9cXicxGtGe5JYnyuUg6QQu1OnZ5eROVFtiL7s3vIXoxjVec1TwpSu3ekYQsP0iU5P+kzaMXjvqRUNqXB354WpamgPz2fettJ5Dn8N1Eq67T7xlOwqPOOkw+ZPtd3/aUxEyhYbfG9VyR9FGesB+OXcfRumNpifjEpJHINfJz+d9iyRDdWZ3Wvg7r0kery8/NJBBemvFlZWZSQkECOjo6mzyKAoZycHPruu+/IycnJlNakSRPTfF999ZXpc0REhOlzbYx5bwccwDDGWD1pd71OgWIwveP9pPIAhkoL6VxGOqWny9OpFEo8uIVWTHuIWtuLgafjZDogxxL6y9l02iJv6vGDtGnhMGpjpyCH3vMo3Tiy6c/TqudakVrpQQMWJVesRwQw84wBjNdwWmMcW/XnaGGkPSkaDKJvy6OFUtr/TogIYLrSrONlc+rp1NyeIoBpRi9tNg/cpYXnKKOsvGI6lZJIB7esoGkPtRbBgb0IFg6IJdWg+CJlZaTQyqfFgKzuTO/uShPLOEUpxw7Qlm9n0mNBTmJQb0tv7JKDBEF/fhU910pNSo8BtCi5fIvEJs0zDd5ew9fUOYCp9/q15+hkwklKTU2kXV8MpVYqsb5nV5M53iimjLgdtPdQIiWnGZexj9YueJqCHUUQc8//KMMi0rihOhPqWgd16iNVHDp0yDTeBgQEyClEX375JfXp04eGDRtGkydPpmnTplG/fv2of//+FBsba8pjDGyM8zVs2ND0uTYcwDDGmI3S7nub2onBtMeHqRWBRY0KafWzPmKQ7URTD19jaCveSqNbKUndYTLFlWW78AMN8ZRI0vSmj49qzWmlR2l6uBgAW75CW01jczFtfqmZWL7l2RbjmQIvUjo9QEsuykmipImzupJaFUjjdsjLqknhanrWR5Sl01S6VpEr1t2d5lgMxkZXNrxAzZQqavf2XrJc24UfhpCnJJGm98dUsUnTKVytpJavbBVLtK5aAGNS//WbFG+hl/3E9nWdSYk1NmA2fX6PA0mNh9EvNUVVlupcZ9dfB1b7iIXdu3ebxtsOHTrIKUQbN24kV1dXsrOzM31nnIxnY4KCgigzM9OUp6ioyJTu4OBg+lyb22VMt3qpkTHGWM0ktRpq+SZehZxWM2eEhfpDqT+LzMyaHynRnzmI+CyCJjgMrU03suiQ9O0X2Ch+HFPBNkx5/n3svwpoE37GmgQ9GnXujlB7Yz41/ANaQNKfQnKyefn6M6ux8o8cKNt3Q7cGpiRBj5zzF0AKd3h5KeW0GjiHIdRfCf3ZTFyjyNfkEBaGIKUeWemZYktkuiR8+8VG5IgxsGDbFDz//n5chRYJP69Bgr4ROncPhWmTbgKr6y+jbABNAwl0+RIKjcOxVa5wd3cCLl/AhSI56VrqWmc3UAfV+0hlIlAx/Wt8wsgoISHBdKPu5cuXTffAdO/eHZ06dTJGH0hKSsKdd94JnU5X/p4YR0dH07+2ggMYxhirL5XKdLOsUl1xN6Xu6Bz08fbBPVFJIlSwJMHJyUEEOsUoKpaTqtEidvFS7Cn1xcCh/cw3d174BVNnREPbZRKWTIgAxbyHEWOnY9Sw93HQsRcmTh4EN9O8Erz8W6ER8rFh8v2I7BmBgJBhWHkhCCPfHSkGcVMmwJCPxKQzMDQKQJCPMVGHo3P6wNvnHkQlVS4xJCc4OYjQrLhIlPr6SK4ucBaLKNFq5RTjJk3FjGgtukxaggkRhJj3RmDs9FEY9v5BOPaaiMmDzFt0M1hbfwUVlMbRT6+HwWBOsUapFPVEJWIZZZluvM6uvw6s9JEqAgICTEFIRkYGjh07hilTppjSjY9Q5+XlYefOnYiNjUVWVpYpkDHe1Gu84Xf58uWmfF27djX9ays4gGGMsXpSqNRQipBELf4tO4garuYhOzcXOXnFpvP0lcnnaWr4tW/IXI6Zi45B3fVljO3nYkq7HP0LNuQ4ou+Lr+LpKV9icg8HJHwxBUvS/PHSsuUYE1zxE1zt7w8/pQGFVwxwaxaK+0d9hF9jdmF+/yYVB/nCrYjeXwLnzj3QzfRUkgFX87KRm5uDPMtHecpcu8i1U8gLKHcZ0b9sQI5jX7z46tOY8uVk9HBIwBdTliDN/yUsWz4GFptUjeSkQRM3N7hr5EeqalNt/fVXtgjTRROTG62z668Da32kKuNZFuOfCDAyvuvF+G6XJk2aYO7cueZgTGZ8+sj4nhij//73v6bvjYwvuLMlHMAwxlg9KRr4oFUrf7TwvBkXPPKxccYsrCtogWemjZIHMD2y00/jisIdzZq7QLJrj3GLZqKfuwSpcUf0ifCsdPBW+gWgpZP4D/8hWLBsCT6ZMQYDgzUWefRI/vpzrM/XIHLwADT5O478+mykn74ChXszNHeRYNd+HBbN7Ad3SULjjn0Q4XntQqlC3sbW8+ewaVyQnHKrKeDk6AgFFePq1esO4yq77jqw1kesGzt2rOlf47tgjKZNmwZJLL8qPz8/9O3bF4mJiTh//jyaN2+O3r17y9/ahr+jGzPGmE2TfJ/FyuNHsfBBZznl+pXERuHdZenQDJiEiX0qLgwUFWnFGKqGWm3+Wa8KfBGffTgQHmdWYPSo5Ui3vIJh3xoBzVXQZyQjpdr9Fwbk7Z6FEdO2Q99pDN55rHLwc2P0uHS5CKSwh6NjbWc8imDeJOP9Q8bPKgS++Bk+HOiBMytGY9Ty9CqX3uqiPuuvLyW8vJtAohwxwNe/ZNZdXx3U1EesMf6hxrIzKkbG97wUFFT/kxfGt/Ma39RrZHzpnfFPDNgaDmAYY6yerm6diLuC2uK+D+Kq3yBaH/o0LJk0H3GKcLw6bRh8y4/IBEPZC/HKx2Ul/J76FPOG+CJ71Wt48bOkinWr/OHfUg19Ziw2bt2N2KPJSE1JxIHo7zB3TH907jcVexs+jHnL3kb4TbpL9urRVVgwaxw+WH8RUvP2CHWvZTghQ/nL3yo2yQ9PfToPQ3yzseo1EaAl1b0267d+A3L2rMD8qLmmwX3uvO9w4ELFzS+GnD1YMT/K/F35tADrUvVQ6NMRvTgK8776E1nXuF+mTq6nDmrsIzUznoUx/hFHo8mTJ5suGRlfUGe8J8b4grs77rjDdL+M8W8jGYOYbdu2oUOHDqb8NsX8MNKt9RethjHG/hLnF91LjgqJ3Ib9Uv7ektJDUyjc3pG6zap4uV2Zi18/RA3UPjTi98rP42q3j6UAtTOFjN1M+XKamY6Oz+5OjvahNLHi7XQm+tx1NDrEhVSNBtAX5S8oKaVDM7uRS7UXuylI6dqC7h4xl7ZlVS2VmGdKONk7dqNZCdVKTF8/1IDUPiOoSpFlOkr5sAfZS2pq4NeLXv+t8kvZTK78QIM1Kmo09CdzHemO0+zujmQfOtHihXtGespdN5pCXETeAV9UeudKzeq7fi3tGBdAqip149B1JhmfPNfuGEcBKsvvqk+Sx7P0W9GN1JlwHXVQcx+pnQhMTO+AsbY9xseqR44cSampqXLuujPOfzvgPyXAGGP1dSUF2zcdhTr8XtzR/GY9+Huj9LiUdQLHkzNwNqcQWoUDGnn7o31YW3ga749h/1rGp43WrVtnehLJeLnIx8cHAwcOhLPz9V0CvV3GdA5gGGOMMVZnt8uYzvfAMMYYY8zmcADDGGOMMZvDAQxjjDHGbA4HMIwxxhizORzAMMYYY8zmcADDGGOMMZvDAQxjjDHGbA4HMIwxxhizORzAMMYYY8zmcADDGGOMMZvDAQxjjDHGbA4HMIwxxhizORzAMMYYY8zmcADDGGOMMZvDAQxjjDHGbA4HMIwxxhizORzAMMYYY8zmcADzL1Cwbjwiez6GqDidnHKDSvZg9kM90W/iRlyGHmnfvIA+fV7AN2l6OcM/SME6jI/sicei4nCTao8JN71PMnZTFWDd+Ej0fCwK3EVvXxzA/OMZcDXtALbv3IkjWTdpTzTkImnvTuw8lgMFCFdPHcTOnYeQXiR//w9iuJqGA9vFth7J4gDmprkFfZKxm8lwFWkHtovj2hFwF719cQDD6k/hCmcnJZxdXaAUXcjFxQUKhTNcXRVyBsYYY+zWUpAg//cto1CI3+m3fjX/aIa8o9gSnQzXbg+gm69SJGQjdm00ThbZoUHTUNzZ1R8akWx2BcnbNuKIsgMe7tECZz/thxZjYnHX+Pl4PkQNhaSCo8YbgR07o62HnTyPATmH1iP6eCEMclMpFEqonRrBOzAM4W08YG9OBnQHMLFjd6y4ex2SPu2Lq4vvh/crEhae+x3PaeQ8lRiQd3QLopNd0e2BbjAXPxZro0+iyK4Bmobeia7+GhEMyQoS8cemeOTojAVRiPIq4dDAE63CIhDq42TOY2TIw9HN0UjRdEP/rr5QycnFqTuwPh4Iu68HWjmY03SZe/F7zGUE9O2DYNdziPl9F855d8f9XXzEfOLXVvRyLP01BhnaRmg/YAReeLANXMR8hrOfol+LMYi9azzmPx8CtUKCylEj6qQjOrf1QFntWXMleRs2HlGig7EcdlnYt3o7Uost9gOxX0hKe7g09kVAWAcENq66NMt2bGWsNMSt+xNpzqGI7B0EVzmXie4M9q3di8LWfdA3pFG1XyaGiyewLz4VuflXUFyqh8K+Ibz9OyA82BNyFZldSca2jUeg7HAfesiVV5D4BzbF58DcHMYyO6CBZyuERYTCsjnEWir3obLtc2+KoLAw+LtV9LW69UlrrrdOXHF692rsTi+BRQtYUMA5oDcGdLJHevwxZOTmIa/gKvSif3q1Fv0/2KtyPdVJXevDSIfsY3sRn3weBQYXNO9wJyJauFq0Y9Xtvs6+r7H2m9WAgtQDiDuZg4KrxSgV/YNUjtB4tUL7DsHwqtTGQqU+Yof8I5uwMSGv/Lhh2k6VA1yb+KFdWHu00JSVTlalj+myj2FvfDLOFxjg0rwD7oxoAdeyYurzkBJ7GMnnL+JSkQ5KFw+0DAlHaHOX2n99GwqQFnsIyTkFuFykRanOAIWdC9ybtUPHDi1RtViVytUiD5/2a4ExsXdh/PznEaI2bpOoE+9AdOzcFhWHzRwcWh+N44UGuV+J45VSDadGoi+HhaONh/moacjah9XbU1F595egtHdBY98AhHUIRKXdX5eNY3vjxXYXwODSHB3ujECL8koxHk83IzpFg279u8K3ovGxw9z45fuuaHzs/T0GlwP64v+CGyA/LR7HMnKRl1eAq3oxdni1Rli4aON6du7bZkw3BjC32l+0mn+04g0vkK9STd3nJJPOmFD0Kz3lLpnqVuwxpOn0Cv16Wm/KS9p9ND5YReqOk00fc78cQM7Gaz3GvBaTwt6X+k7fTnmmXEW0ZrgniV2kWj4o1OTR5WX6PqXUlJN0iTSrqyO1e3sfacXHK989Rg0aPk7fXzF/XV0xbXjBl5Tq7jQn2VR6UfynyF0yL1+h1FCnV36lsuJf+uZh6+VVaSj4ycWUUGzOR9odNC5QbGfwBIqRi0ZUSoenhpNaHU7TjpQl6ikjqjfZKX1p5Hoxc+k+mhCiJsnjcVp5OoGWDm9PDVUu5BPYhppr1KSQ3KnfJ4nmes79kgY4K6qVRUQA5Nt3Om03V54VWto3PphU6o40+ZAoR/ZndI+9leXIk0LtTh2HLaSDl+TZjaq0I+kzaMXjoh6VTWnwt6fFVlXQn55Pve0k8hz+m2jJqozb34vE8bHyeo3tescb9PvZiiVp942nYJWaOk4+JKdcom8ediZF1XnFbx+VJpieXJwgWrdMzX3IuH2dnl5E8XIfqVuftOJ660R/mub3trOyHWWTRJohP9Glw1Opk7rKdwoVNWo/jL44XL1mr63u9UGlMTQhWG3xvRdFfhRXUbdVt/t6+741pQdpUljFuismYxu3oYff/5NyLSq2ch8ppvUjRf1Xm9c8Key9KOKpKNplsYDK85dSzIRgUpfNI/qkV+RHFCcXtTTuXQqr0h4KyZUCH/8f1dYcpQerz2ueFGTv3Y1eWnHcdPwqU7lcufTlAOv93t63L00v2/GL1tBwT/k4XGVSqD2oy8vfk/Gwmf3ZPWRvpb+bJwWp3TvSsIUHxd5mVhozgYLLyy6+94qkj8oqRZR6x7hAcWwJpgkVjU+lou+Gq9UUPu2IqFUzfUaU2AeU5DtyvTEDTe1UtZ1FGzdqT8O+OGzluFEz47y3Aw5gbETp/onUXq2itm/ukXe6Uio8l0GnTu6nH1/vRhpJSS1fiTZ9U/0gf5myT2dQenq6eUo9Tgc3LaRhbcQB3aE3zUs3H1xKC89RRlke05RGSfHbaPk7fclbKVHjx76lC+acdDb+Tzp42rxD6fOTaPfuJMq3HD0qKaX9E9uTWtWW3twjHzJKC+lcxik6uf9Her2bhiRlS3ol2rg8HaV8cJfIG0Sj16aay3EqmY7s+oXef6Q12YmDV7+F6eaBSn+OFkbak6LBIPq2fOAX63onRBzEu9Ks4+ZgyXgQPzW3pziIN6OXNhvXoae0TyLJVbIj3+be5NL6EZq767wpYNFl/URP+ylJ2XIUmYoj8l7OPm1RL6l0/OAmWjisDdkpHKj3vHRjJiuqBDDiQH8xK4NSVj5tCkQ7v7uL0sTyTqUcowNbvqWZjwWRkzh4t31jV82DlqA/v4qea6UmpccAWiQHg0b60/NMg7XX8DVWD0S67OO0/8BhOpaUQmmn0ij56C767q0e1Fiy7FNVD+KCLoU+uEtNqqDRtDbVXAenko/Qrl/ep0da25Hk2o8Wyv3HqGofOpWSSAe3rKBpD7UWB3B7sdwD5oNrHftkNTdQJ8UXs6r072RaNtiDJLteNDs+nc7mi1ooTqeDO/ZR/LFkUz0lxW+nH2Y8RK3UCnLu+RElVSy+TupcH6IFzp1MoJOpqZS46wsa2kpFkteztLoswKm2T19v37dCXraq3Wj6LeEkpaSdorSTR2jP7/+jUd0ai33Tl55dVRFSVu0j+svZlJGwmB71UJJd6Bu0WfSTUykJFLPpG5r+RAg1kMSx496FdFIuUtX5tedOUsLJVEpN3EVfDG1FKsmLni3b8OIMituxlw4lGtsjhY7tW0sLng4mR3EcuOd/GebjQA3M61FRu9Fr6HhqGp06dUqs4yBtXTmDHva3J8n5LppzrKJBrW3X6YyKtks9fpA2LRxGbewU5NB7Hpm7qPk4XJbHNKUlUfy25fROX29SSo3psW/FUbP4ImVlpNDKp40/5DrTu7vSRN5TlHLsAG35diY9FuQkAp629MYuuY205+ikaIvU1ETa9cVQaqUS/fjZ1WSuFT2dWxgp+k8DGlTR+GKMeIdCRADTddZx848vQX9qLvUUAUyzlzaLT8WUfnAH7Ys/RsnGNk6Kp+0/zKCHxL6jcO5JH9Wjc3MAw+pFn27siMZfk1YGqMs/0zB3idSdppo/WznIV1dMW0e3EjtTB5ocVxHFW6XdS2+1FQe4wNdpl+VPljrTU7rxICp50vA11YfXyz8PI3dJTZ2mHhafxMD/djtS2fWkuacqH5705z6ne50U5PLQMso3pRTT5peaiW2w/MVp/NXrRUqnB2jJRTlJ7M6Js7qKoCiQxu2QN0A+I6Js+gh9ddJy+4vpj5f9xDIjaPrRmnfo4q2jqZUIRDpMjpNTqqoawJgVb36JmlmeSStzZQO90EwpBpG3aW9FNGG1HS/8MIQ8xaCg6f0xHZXzlh6dLn59GYPYrRUBUG2u/ExPNpbI7v8+pbKTMNUCGFGGt9upyK7nXKrcHOIg+vm9IuhyoYeWmVvjmgpX07M+SlMfPVxjd6tDn7yZdaJPo496iMCn+X+oprHdRH+eFvcXv8Yd76XPz19ryKyHa9ZHMW0x9cGuNDNR7iXVtvsG+n5VFsu26KomumMzqLNaIo9nVsspVvqIcGH5I+JHlBP1WSD/uCijT6cvBriRJH6QvLHbvH5r85cp3vIy+Yn9o+vMRDnFiuzP6R4HERQN+8VqsF7Gcj1Vqzj/xyGmY86ds5PllGuXq1zxVhrdSrRbh8lU+2HzLWorAqjA13fJKWVtVnEmusyVDS+I44IItt7eW/5jolzxFnpZ/KhSd51JZd2h7DhiebalaM1w8lI60QMVjU+6xFnUVfzwDRy3Q06pSk/nF/cnZ4Uj3fv5eTmtdrfLmF7rZUR2e5AaN4GbmlCQmwutnFZO7Q1v4/WYywVyQh3oz+BgfBZIE4yw1lUvBlelgCR6isLRCU7X1WMkNG7iBjUVIDe3WulF8b1hvBp2ucBc/pISndg9tCjWGveTClKjIAR6K6E9m4mzpie21fAPaAFJfwrJyeZHBfRnVmPlHzlQtu+Gbg1MSYIeOecvgBTu8PIy32mjv3wZVwwSvO5/AUP8LbdfhZYtm0IynEVmZk2PH+hx5mA8skiD4LDWctoNcghDWJAS+qx01LhaI10Svv1iI3LEMaRg2xQ8//5+XBU9IuHnNUjQN0Ln7qEV9yrVRuWOxhrRby7lI79yVVsogbk5ilG5OSQ0CgqEt1KLs5lnRY3UwjkMof5i+0Tb1Vyt9emTFq63TnRZOJtNkNyawL38BiwrJA3aBPlCqTuL02cMcuINumZ9KNFA0wASXcalwpoa5vr7fn0oW4Yi2A3Iz0iXU6zRYv/2GFxStkXPXj6V702RmuPRQXfBUZ+G2P3nUVvtKRto0MB4LLhUKKdY4eoOdyfg8oULuN4HH13at4e/0oDTp9LklLrRnzmI+CyCJjgMtR82JVEXCjg6Vb2JqDqHsDAEKfXISs+s/rSjsgE0DYzH90so6w5q/wC0kPQ4lZxszi/2ndUr/0COsj26VTQ+9DnncYEUcPfyklOqkqBpEwRfpQ5nT5+R02wHBzC2QtUY7mKw0V/MQW7V0UIM9kVidFE4VbqF8Zq0sYuxdE8pfAcORT/TbDocndMH3j73ICqp8goMF+NwKM0AlzYhqDTW14OqsTs0Yoe7mJNbbbAjbZEYHBVwcjXeNqtCYMdgNNDH4IOhL2HhrnMV+SVHOBlvNtOK4Ma0I4sAxL8VGiEfGybfj8ieEQgIGYaVF4Iw8t2R4oBgzCMY8pGYdAaGRgEI8jEnliYkIFmvRGBwiBgKLIlyiJUojAGU5R13lrSxWLx0D0p9B2KoufJunOQKF2eFiBe01QNUCxd+mYoZ0Vp0mbQEEyIIMe+NwNjpozDs/YNw7DURkweJ0abOlFAZq0NvqHlgUQWiY3AD6GM+wNCXFmLXuYrWk0RAa26OYtMF9Wv1IUgi+HUQ21dchGI5qarqfbJurr9OSqEtFSW3s4O9KFrNJDi7OJn6RFFxfQKY668PldJ4aNaLpqlpfdff9+tF4QJnRwWopKZWMyrC6dM5MCh90LxZ9QOEk4833ERQkn8hr9YAxtghTVsu+mTNlFCKTaGSEmjr0xwWFOJY46ggUf31CYG0iF28FHtKfTFwaD/zDeO6o5jTxxs+90ShchMbcDHuENIMLmgT4i+n1UwS5THv/tb2fhXM3UGPsu4gefmjVSMRWG6YjPsjeyIiIATDVl5A0Mh3MbKi8ZGfmIQzhkYICPKR06qTnF3gJOpCW3StNr49cQBjK5RN4OEmonARwORUORYaCk4i5bwBDi1r31FMDJlYPnMRjqm74uWx/UxP2xg7+9W8bOTm5iCv0sBtQPa6tdhT7ILu/Xqi9t8S1imbeJgOYhdzcqoEMAYUnEzBeYMDWvr7ic8SPIYuwPKJkWhwbClmfxNfMaCLvdd0XBNHr7LDpNrfH37il1ThFQPcmoXi/lEf4deYXZjfv0lF5y7ciuj9JXDu3APdTHfb63H6WBIuKLzQpp17tZ3AYHqcQgW11WDNgMzlM7HomBpdXx6LfubKuwkU4v9qcxnRv2xAjmNfvPjq05jy5WT0cEjAF1OWIM3/JSxbPgbB1xlg1kjywNAFyzExsgGOLZ2Nb+IrDrAGgzigin+VyrKV1tSHZPIGWvlGzGqtT1ohBn5NEze4uZc97nYDdWI6E143ejF4QCECHbv6HDJvoD7q4Pr6fv0pau2YItAS1UMk/rWyMVRSanqCzd7R3rTJkpMGTdzcxA+y6yxQ+b5C11135cuw6AO1lcuQuRwzFx2DuuvLGFu24xuuIi87F7k5eZWeMDI+Hbdu7R4Uu3RHv551OGrWXsmVqf3h76eEofAKDG7NEHr/KHz0awx2ze+PJhWNj63R+1Hi3Bk9rtX4ovH0ojbs7K/19N/tqT57I/s7SU3QpLEChotiZ6n0q0MEGGt/FwGGE7r0uVtOu7b8jTMwa10BWjwzDaNqG/H0p/D98i241LAvHn/A4sBYT1KTJmisEL9KcnNNg145saOv/V3s6E5d0OfuhuY0pS/um74BCYmx2DgzsiJooqu4UiSOEsZLWfL+rvQLQEtjBv8hWLBsCT6ZMQYDgzUW5dQj+evPsT5fg8jBA+SduxQJCSehVwUgOLjy+Rcj0yUshRpqaz/L8zdixqx1KGjxDKaNCi4PpP4S+mykn74ChXszNHeRYNd+HBbN7Ad3SULjjn0Q4Xlrdmel732YviEBibEbMTOy4mBMV6/A3BxO8oBy/ercJ1UheHvreZzbNM78+S+pExGIXCkSg6UdHBxvdEtvnuvr+7eCMzw9G0AynEH6qaoXQAw4dyIZF+AqfqA0Nb0qQRXyNraeP4dN44LMWepL4QRH41mh4qu4ev0RTDXXLlc+Ns6YhXUFLfDMtFG1/lDQn/oey7dcQsO+j+OBW1HxSj8EmBsfQxYsw5JPZmDMwGBYPiWvT/4an6/PhyZyMAZcowwGeT+2c3CUU2zHLevSzDptdhLiE89WOm1cpzSpsfh1oAYViADG4iyj4fxavPveelzyfhSjhjSTU6+hJBZR7y5DumYAJk3sU/m9GVboDi/F0p1a+DwyAg/fwI5o/R4eA86vfRfvrb8E70dHYUizyst38gtFm8YWaVSAwkKC1FD8Ai87S2rfGgHNVdBnJCOl2sVjA/J2z8KIaduh7zQG7zzmae7wIig7lpQPhU9bBLtV3SYDLl++AhIHSdMlnUpKEBv1LpalazBg0kT0uY6rR/pLl8XBQiF+jTpex6BfhCJReQq1CK5MM6sQ+OJn+HCgB86sGI1Ry9PFkHWrOMEvtA0qN0chCklCQ/Gr9TouTlSoZ5+s7K+oEwMKCi7BoGgIN7drtJrhEjKOHMap/Eoh+q1zPX3/lrBD5zs6wVGXiDU/HxJ7iQVtHL5asQ86TW/073mTBkilF7zFsYhyzuP8revwlZTERuHdZenQDJiEibXu+DocXroUO7U+eGTEwxaBox6XLotAWGFvCsBujD1aBzSHSp+B5OqND0PebswaMQ3b9Z0w5p3HcK043lBQgEsGhWk/tjV/6Q/Ifz3j9dL+nTDlkD/e3HEIs7vZ1T1NNFVjd/HrSp+FE4dSkOZdiJQ9v2LhrI+x+nRrjPxuNgZaji5W6ZG2ZBLmxykQPm0ahvnWlv8q/ly8HEcQhNdHRtZ8Wr8uyu7hyTqBQylp8C5MwZ5fF2LWx6txuvVIfDd7oDw4GnBh73dYsfd89dPRpYdw+BLgKna08hOiKn/4t1RDvyUWG7fuhp2vBxo5luJiejx2rPoany7ZhMwmj2DhsrcRXnYnpzYRx5L1UIcHo61arDFnD1au3Ids0woNyNp1VgxWPtBUvBnQRJ+2BJPmx0ERPg3ThvnWb0C4ehSrvvwN61eux0WpOdqHVr90VSsylL8QrfzwJ36JPfXpPPwROxTfvvYiPuv6O0YF3cTd2nABe79bgb1ipKjeHIdxSYQbbm7XeynAqL59soqbWidi0N//A74R7V+574kB6VAeyNEd7g1qLp/2zwnoGfk/aJ/9DamL+9frxXdV++D5AxfE/9ayx11P378lJPg8MRpD50Rj8YdP4kmX9/H6A+3gmncYv34wAbPj7NBl2gQMsvYDyJCDPStXYl+2uX8Zzh/ABRH/mbfcgJw9K7FyX3aV9ihFql4BfbpYX9Q8JHV9DM/0rHLzcDmxjAPfYd7c6MrfX96LOt+PrU/DkknzEacIx7Rpw1D7YfNPLF5+BAh6HSMjzVty9egqfPnbeqxcfxFS8/YIdb/WQqpst+E8DlRUikwFf/+WUOu3IHbjVuy284VHI0eUXkxH/I5V+PrTJdiU2QSPLFyGt+XGN+Ttxw/f7MLZypUpfqQeQh45wt294uZfmyE/jXRL/UWruf3pUuiTfo1I3fBumn1Ufvitrmmko4QZXcjO8mVICjvy6DSEZm/JqvxIbukhmhpuT453vCcnyLTbaWyAmpxDxtLmak++Wnnst2gtjfBRk6ZvVL3ff1GNLoFmdKn8IjGFnQd1GjKbtmRZLlxLO18LJDHcVGyn5aRwoPApcRaPRZbSoZndyKXaS6IUpHRtQXePmEvbKi1fFCX5Q7rb0Z5Cxu82PbKo3T6W/FWV55UaPULf5Jrzm2lp+9gAUjuH0NjqlWeFKNfUcLJ3vIPeO6YTTfoh9bCXSN3Aj3q9/lv5S/sqXKEfBmtI1Wgo/VT2bGjVdtQdp9ndHck+dKLFy8uM9JS7bjSFuKio0YAvKKOuT/pqd9JrxpehRfyXEuQqKj00lcLtHemO946ZE+Q8leu2YlI4hNOU8udJxTZPMW5zN5pVtsByF+nrhxqQ2mcE/W757Os1+2Qd3EidaHfT2+3syKnnx2R+qlVLe42P8FvZTmOfMK5jXw1PIhsV/f4ceUkqamPxrqa61od2xzgKqNQHjXXblWaWPSJtdZ+uf9+3ymLZFq9FMdPuojfbijrqO19OMGav0kdkl+L+R8Paiz5cXh6xHzm3pHvfXU9naiqG8YV8AVX6l9jHu848YvySdowLqPlYYJok8njW2ssbRdc49h7dYbxT1+p8YlKoKWDsn3LumhmPDwFqZwoZu1l+fYMFK4+gF60dQT5qDfWNSpKPyzpK+bAH2UtqauDXi17/rfILF02u/ECDNaKvDv1JbIu17VaQQ9eZVP7EvFB6aCZ1c6m+fQqlK7W4ewTN3VZ5XNDufZvaVelj5fPYh9LEa3XuKozz3A74TwnYkpLzOBYTh5PnClGqbgjfNhEID2p8zdfZ110JYiZ0QveP7PDO/hhMC6vLL9b6KTl/DDFxJ3GusBTqhr5oExGOoGqvz78eelzKOoHjyRk4m1MIrcIBjbz90T6sLTwrbtlgVZXswuvte2FBgyk4tHcS2t3QdaB/u8vY+FJ7PPB9a3y0byNGB/5VlXmb9X3DZWTE7cOhtDzoXXzQvmtX+Df6B3eskhhM6NQdH9m9g/0x03ALDpvXpL+UhRPHk5FxNgeFWgUcGnnDv30Y2t7ixr9dxnQOYJjs1gcw7DbDAcxNo0/7BPd2nAz91F3YNLYtX5v/t/ibA5i/y+0yptd2NY8xxtg16ZG2cTe0D87Bwlc4eGHsr8JnYJjMgIv7VmLpbiV6Dh+McKt/VZr9oxhvoFzxDfba98Hzj3eo59M/jDEYLmLfyqXYreyJ4YPD8W85bPIlJMYYY4zZHL6ExBhjjDF2nTiAYYwxxpjN4QCGMcYYYzaHAxjGGGOM2RwOYBhjjDFmcziAYYwxxpjN4QCGMcYYYzaHAxjGGGOM2RwOYBhjjDFmcziAYYwx9o9Ssmc2HurZDxM3Xjb+pU1880If9HnhG6Tp5QzsH4EDGMYYY/8ohtwk7N25E8dyFABdxamDO7HzUDqK5O/ZPwMHMIwxxv5RFK7OcFI6w9VFKUY5F7i4KKBwdoWriGfYPwcHMIwxxv5RlC4N4KwQAYwxYpEawNVJDmBueMQzIDt2Db777nv8vHYXkvMtr0npcGbfb/hpzV5kauWkMiUZ2L3qZ2w5li+WIBhycGjt9/hu5UqsFJNxeT/+uhZb9yfjYolpjkquJG/DL7/uQGqxnMBMOIBhjDH2j6JwcYGz8QyM6ZSLPVxd7OHg7AI789c3oBh/fvg0hg4ZjEEDeqBd8EB8mlAWcYgAZt1/8ezAu/F/Y9fjgilSMdNnfo+3Hn8CwxccQKkxoWQf5o8YiiFDh2KomIaI5T3+yAD06RIIL99wPPPFYVw1zWlUgoQvX8ETT7yKr5N0choz4gCGMcbYP4rSfzgWbViO0WHGkMUB987YgPX/vUf8141ywiOLjiP9VDL2L3saLbI3YNZHG3HF9J0DurzzJab0dEby4v/gtV/Pmc+2GBGBxD+SQr6G5XAv5sWfQnp6ujydQkriQWxZMRX9Gybgm9HPYnYsByu14QCGMcbYP4vKC6F3d4SvvfGDhIaBd+COwIY3ZcBTunqimV9rRDzxHzwSqED23p04WnYSxj4Ury2eg/vdMrFi9CgsTzdfYtLn5OIiSWjQqCGUphQVXD2boXnz5vLkh1ZtOqLP0MlY9vEQeOuO4vffE005Wc04gGGMMcbqy64d2rdxhD49EcfMp2BMlK1H4PMFQ+Cbswqv/2cRTpRcxJalvyIZfugdGSJCl2tzDguFv1KPs5mZcgqrCQcwjDHGWL05IjDID6qSZBw/YXnnrQSfQfPx+QsBKNw4AUMfeBDPLclAy2c+xIS75YtYuqOY08cbPvdEIanKu2kkJyc4KIDiIr5jtzYcwDDGGGP1poJ/QAuo9Jk4caLKG2YkN9w7+0u83qEUBzftQWmv9/HTJwPhVTbiGq4iLzsXuTl5KDbeHFOF+U4ZK1+wSjiAYYwxxurlKk78/BYembRRBCBapBw/iWq33Lp0x5Qlk9FDA1zKOIkzVyweS2I3BQcwjDHGbJgW2UnxSDxbn0su1uapW5oh7wA+H34nuj4+Fwm+4Qiw0yE96YTVt/zah72OL9+/Dw2Tv8CLY35EFscwNxUHMIwxxmyW7ugc9G/fEaF9p2CvlZfAWWNtnrqklRxeiEERd+M/K84j7M2fERP9ER5ooURRShJSdHqc+uMLRM2di7nl0wKsuRKGO5orcPq7sRj3/fmKR6vZDeMAhjHGmM1SOLnBzUUF5yaN6/ymXWvz1J5mQM6fP2GT9g5MXLUPm95/EC1c2qBDiAvo/Gmc1mmxd9EbeO211ypPr8/Cb6dKQXQBx4+dNgcwkj3sHZRQ2TtALb8appzKEY72Sjg6lr21RhJ5HaBUOcDRrmrmfzcFCfJ/3zIKhUI0Ht+QxBhjzHbpzxzBMVU7tPc0v83l3+p2GdM5gGGMMcZYnd0uYzpfQmKMMcaYzeEAhjHGGGM2hwMYxhhjjNkcDmAYY4wxZnM4gGGMMcaYzeEAhjHGGGM2hwMYxhhjjNkcDmAYY4wxZnM4gGGMMcaYzeEAhjHGGGM2hwMYxhhjjNkcDmAYY4wxZnM4gGGMMcaYzeEAhjHGGGM2hwMYxhhjjNkcDmAYY4wxZnM4gGGMMcaYzeEAhjHGrClYh/GRPfFYVBx0cpLtKcC68ZHo+VgU4mx3I/61CtaNR2TPxxB1kxrvZi/v78YBDGOMWWG4moYD23di55Es2w1gDFeRdmA7du48giwOYGyMAVfTDmD7zp04clMa72Yv7+/HAQxjjDHGbI6CBPm/bxmFQoG/YDWMMVYrQ84hrI8+jkKD8ZikgEJSwt7FHU2DwhDm7wY7czYYzn6Kfi3GIPau8Zj/fAjUCgkqRw28Azuic1sPOZ8B2XHr8GeaM0IjeyPI1ZQo0+HMvrXYW9gaffqGoGHBUWyOToGmW3909VXJeYqRumM94hGG+3q0goMpTYfMvb8j5nIA+vYJhkYyIOfQekQfL4S5yApISnu4uDdFUFgY/N3KSmyF4Sw+7dcCY2Lvwvj5zyNELeZVOULjHYiOndvCwzirIQ9HN0cjRdMN/bv6orxkqTuwPh4Iu68HWpkLBl3mXvwecxkBffsgWFP1968BF0/sQ3xqLvKvFKNUr4B9Ay/4d4hAsJe8AJmhIBUH4k4ip+AqiktLoScVHDVeaNW+g8jrJOcyqnv9Nqrh53jd1yVcSca2jUeg7HAferSyQ/6RTdiYkGeudyNj3asc4NrED+3C2qOFpqy2ZJXmF9usy8axvfFIPl8Ag0tzdLgzAi1cr3Xe4AqSt23EEWUHPNyjBc5+2g8txsTirvHz8XyIWvRVY9m9EdixM9qaGs+orv3DUMfl1e62GdONAcyt9hethjHGKtOfpb3ff0krd5ymUjmpaM1w8pRgOi5VmhRqcu/0NC2Kv2LOmPslDXBWWMlnT759p9P2PGMmPWWseJx8lUpqOvhbOq03zWmmP03ze9uR5Dmcfisi0u4YR4EqNQVPiCkvC5UepqnhalKHT6MjZYn6DIoS8yl9R9L6YmNCEa0Z7kli2KtWFoXanTo9vYjKilxdLn05wJkU1eZVkL1vX5pu3AjtDhoXqCJ18ASKqSgYHZ4aTmp1OE2rKBhlRPUmO6UvjTQXrDJjuXvZVVmPsYye1P2tdXSuvG5K6eCkMFJXyWfKq9JQm4ffpz9zyzLXvX6tq8+6RFXsG0/Boo06Tj4kPhXT+pG+pLQyr2l+ey+KeCqKdtU4v1h7zAQKVpfNoyC1VyR9FGel7spo99H4YNEWHSebPuZ+OYCcRaxQfd2+1Hf6djJ1wXr0j7otr3bGeW4H1woFGWPMpumOfoaXh43AUyPnYX+JOc3h3nmIP5WO9HR5OpWCxINbsGJqfzRM+Aajn52NWOMtAo2fxXdpmcgoy5eeiuMHN2Hhky2REz0LU5ZliEwSmg1egE+f8cP5H8fipS9ToDetxcx4pIeIHsT/QxUQAD+lDpknk1FsTDfRokQr/lGpoTZmMjGADOIfSSmfDXHAvfPicaq8HOk4lZKIg1tWYGr/hkj4ZjSenR1bw306jfHsd2nIzKiYN/X4QWxa+CRa5kRj1pRlyJACEOCnhC7zJJIrCgatuWBQVxRM/MI3FQzKKiceTCQfDP1sJ/bHJyApJQ2nRL0m7P4BE+4yYM/Hr+PjsgYQ21eq04FU7TD6twScNOZNO4kje37HwhfbIGf1RAx9Yw3yTXnrXr/W1WddVdmj39w4pCUsxqMeStiFvoHNqca6T0DMpm8w7SF3nFjxGh4c9jmSLQtlQRX2KlYdOonU1ETs+mIImuVuwQfzNuKq/H1tGj/7HdIyM8rbLj31OA5uWognW+YgetYULMswtkfd+0fdlmdD5EDmlvqLVsMYY5Xos1fTuJ6d6K6XvqMMy1/vVhXS6md9SKnuRFMPl5+KqKZ462hqpVRTh8lxcopw4Qca4imRpOlNHx/VmtNKj9L0cDUpW75CW40/uos300vNlJXPthStoeFeSnJ6YAldlJNIl0izuqpJFTiOdsiLqlHhanrWRyyz01S6RpGrK95Ko1uJ+TpMprjSYtr8UjOx3ZZnW4y/6r1I6fQALakoGCXO6kpqVSCNq7VgFa6sepqaSPb0fwvPkrkJtLRvfDCp1B1p8qEqhdYdoxmd1SR5PEOrLc+q1KV+rarfuqqeQTG6sPwR0khO1GdBulx+mT6dvhjgRpIqiN7YbS6TtfnLFW+hl/1EnXedSYk6Oa2qKmdgrCumraNbifbqQJPjamn0OvWPeixPdruM6XwGhjH2jyU1eRAfb4vFjv89gWa1Hu2cERbqD6X+LDIza3pKQ48zB+ORRRoEh7WW03RI+vYLbMwhUME2THn+fewXP7G1CT9jTYIejTp3R6i9yKb2R0ALCfpTyUg2LV4sa/VK/JGjRPtu3dDAmGSkz8H5CwSFuxe8lHJaTZzDEOqvhP5sJmosshX6MwcRn0XQBIehtUoN/4AWkPSnkGwumPh+NVb+kQNl+27oVlEw5Jy/AFK4w6vWglVQubmZ7uO5nF9gPmNyLcqWCA12A/IzkH6h7GxAHeu3vqyuqyot9m+PwSVlW/Ts5VP5qRepOR4ddBcc9WmI3X8etZ67UDaApoEEunwJhbVWxDXoz+BgfBZIE4yw1tZOhVmoS/+oz/JuMxzAMMb+VXRH56CPtw/uiUqqdDnCeDh0cnKAAsUosriUUok2FouX7kGp70AM7SffUXrhF0ydEQ1tl0lYMiECFPMeRoydjlHD3sdBx16YOHkQxDApFu8F/1aNxIC5AZPvj0TPiACEDFuJC0Ej8e7IIJSFBIb8RCSdMaBRQBB8TIk6HJ3TB94+9yAqqcq1CskJTg4KoLjI4rJUbbSIXbwUe0p9MXBoP7iK7fbyb4VGyMeGyfcjsmcEAkKGYeWFIIx8dySCKgqGxKQzMDQKQJC5YHUjSaZLPDp9DddZKlHAxdkRCipBcbE8yte1fuvNyrqqKcLp0zkwKH3QvFn1wd3JxxtuEiH/Ql7tAQxUUBpHXFEPhhu4UqONXYyle0rhO3AozF3wxvpH9eXZDg5gGGP/KoarecjOzUVOXrGVMwLy3RRWxzMDMpfPxKJjanR9eSz6uZhTL0f/gg05juj74qt4esqXmNzDAQlfTMGSNH+8tGw5xgSXDXxq+Pv7QWkoxBWDG5qF3o9RH/2KmF3z0b9JxaG4cGs09pc4o3OPbvJTSQZczctGbm4O8qwNtNcqshWGzOWYuegY1F1fxlh5I9T+/vBTGlB4xQC3ZqG4f9RH+DVmF+b3b1IxSBRuRfT+Ejh37oFulR8qurkU8gbJ6l6/16HKuqrTG+MNEIl/rVQwlZRCJ9LtHe1NzSA5adDEzQ3umltUQYZMLJ+5CMfUXfHy2H4wt94N9A+ry7MdHMAwxlhd5G/EjFnrUNDiGUwbFSzfYKtHdvppXFG4o1lzF0h27TFu0Uz0c5cgNe6IPhGeFgdZJfwCWsL44K7/kAVYtuQTzBgzsPLjyPpkfP35euRrIjF4gEXwcNPkY+OMWVhX0ALPTBuFsrFf6ReAluaCYcGyJfhkxhgMDNZYrF+P5K8/x/p8DSIHD4BFvHWL1ad+bwVneHo2gGQ4g/RTVa/BGHDuRDIuwBUt/ZuazqCpQt7G1vPnsGlckDnLTZa/cQZmrStAi2emYdSNBG6ym728v9pf1g0ZY+yvp0NO8mEkZZc9AXO9ShAb9S6WpWswYNJE9LE41V5UpBW/ctXlT+uoAl/EZx8OhMeZFRg9ajnSLc7q27cOQHOVHhnJKaJkVRjysHvWCEzbrkenMe/gMc+bf3guiY3Cu8vSoRkwCRMtN8K+NQKaq6DPSEZK9YIhb/csjJi2HfpOY/DOY7c6aKisPvV789mh8x2d4KhLxJqfD4leYEEbh69W7INO0xv9ezrKibdQSSyi3l2GdM0ATJrYR4RNN+hmL+9vwAEMY+wfS5/0IR4M7oD2/f57Q38LSJ+2BJPmx0ER/iqmDfO1OHASDGUvxCu/GqGE31OfYt4QX2Sveg0vfpZUHqyo/P3RUq1HZuxGbN0di6PJqUhJPIDo7+ZiTP/O6Dd1Lxo+PA/L3g7H9dyXek36NCyZNB9xinC8Om0YfC2P/ip/+LdUQ58Zi41bdyP2aDJSUxJxIPo7zB3TH537TcXehg9j3rK3EX7TC3Yt9avfm0+CzxOjMbQFIf7DJ/Hk7F+x91gSEnb9iBlPPIHZcXboMm4CBlk9JWVAzp4VmB81F3PnimnedzhQ483CtdEjbckkzI9TIPzVaRhWqfGux81e3t/DNkvNGGN1oHBsDHdXFZwbN4ajPABK9vZwUKpg76Auuz2gnMrREfZKRzhWuoWhBLvnf4wtJe3w4szRCK10pl0BO5FZpXSAk73F4VTyxqNRn+E/7bTY8u4bWJopD1wuHdE11BlXt07Dvd0j0D6gNfzbdUbfoW9i6XFfDP5oE3Z/NwJtKgUJEuztHaBUiXJbvJPFTAVHR3soRblru+uiZPd8fLylBO1enInRlTdCcEHHrqFwvroV0+7tjoj2AWjt3w6d+w7Fm0uPw3fwR9i0+zuMqFywOpHsneAo6tvRsexNr2J7HIzb4wBHu6rbo4C9qE+l2gEOKuN39azfauqzLmNZxX+LsjqUl1Vo1B8f/zIfTwZkY9WER3BHcBuE3PUEpvxhQO+JP+DnCTUFmzok/TgNr497Da+9JqY3ZmP9aQNUDTVwqe/IW7Ib8z/egpJ2L2Lm6FD58mWZ6+gf11ye7eA/JcAYY38l/SVknTiO5IyzyCnUQuHQCN7+7RHW1tN0f8zfR49LWSdwPDkDZ3MKoVU4oJG3P9qHtYXn31uw24PhMjLi9uFQWh70Lj5o37Ur/BvV42msuiiJwYRO3fGR3TsoOThNTrz93C5jOgcwjDHG2O2AA5h64UtIjDHGGLM5fAaGMcYYux0YLiJm5VLsUvbEuMHhcuLthy8hMcYYY8zm8CUkxhhjjLHrxAEMY4wxxmwOBzCMMcYYszkcwDDGGGPM5nAAwxhjjDGbwwEMY4wxxmwOBzCMMcYYszkcwDDGGGPM5nAAwxhjjDGbwwEMY4wxxmwOBzCMMcYYszkcwDDGGGPM5nAAwxhjjDGbwwEMY4wxxmwOBzCMMfZvUrAO4yN74rGoOOjkJFZVAdaNj0TPx6IQd7tX0r+4PTmAYYyxm6EgAT/NGImBPTujQ1g4ejwwEu+vTYVW/rpCARJ+moGRA3uic4cwhPd4ACPfX4vU6hlvCcPVNBzYvhM7j2TdwIB3CUd+nINJU75CzCU5qQrDxf1Y8tYQRHbtgPahEeg96FUs3Hkeevn725rhKtIObMfOnUeQdZtHBTenPW0TBzCMMXaj8rdiQt/ueGL6WpzzjECvu9tBnfAtJj7cC8+syIBBziYyYuuEvuj+xHSsPeeJiF53o506Ad9OfBi9nlmBjIqMty39uT/xwaAI3PHE25j53hJsz6kekhhy1mNcr94YOW8rLjRui47BjZGzdSFeieyF0WtzLOqDseunIEH+71tGoVDgL1gNY4z9DXSIn9oVXf6bgciFe7HqxdZQiVTD2R/wVOeh+MHhZWw+Oh+9HETO+Kno2uW/yIhciL2rXkRrc0b88FRnDP3BAS9vPor5xoxWXUHyto04ouyAh3u0Mqckb8PGI0p0uK8HWonZ9HkpiD2cjPMXL6FIp4SLR0uEhIeiuUvFb1XD2U/Rr8UYxN41HvOfD4FaIUHlqIF3YEd0busBOzlfdQac3TAZT46Yg12KLujudhjbjodhzvFteKOVUs5jVIwdr4Whz/wiDFq+C8sHN4Px2+K4mejbczL2t5qIPQemI9y47dVU38bqaXrkpcTicPJ5XLxUBJ3SBR4tQxAe2hwWm2mdoQBpsYeQnFOAy0ValOoMUNi5wL1ZO3Ts0BKasjKJNvm0XwuMib0L4+c/jxC1ApLKERrvQHTs3BYepkoyIO/oZkSnaNCtf1f4ls1bnIod6+OBsPvQw9goRrpM7P09BpcD+uL/gjXmNEuGPBzdEo1k1254oJuvqC8DsmPXIvpkEewaNEXonV3hr7Go4yvJ2LbxCJQd7kN3xy/r1J6GnENYH30chQZ5LBbjslLthEZim8LC28DD3pxcF7fNmG4MYG61v2g1jDH219OdpNl3qknyeJp+vSynmWhp+1h/UqkCaNwOrfiso5Oz7yS15EFPV85I2u1jyV+looBxO+QUK7T7aHywitQdJ5cl0L7xwaRSd6TJh0rF51KKezeM1OJ4azzmmicFSa6B9Pj/DlOReSai3C9pgLPCIo88KezJt+902p4n56umiFYND6Tw4Z/SnuzLtPoZD5LUd9EHKTr5e1nxJnqxmZLU4dPoiLFY5S7St4PcxDydaOrhSl9UqLaNQtW00jh6N0xdpewSuQY+Tv87XL6VVpUefJfC1BbzlU8KsvfuRi+tOC5q1SiXvhzgTApr+Xz70nRTJWlpx7hAUf/BNCGmYntKD0+lcLWawqcdES1ips+Iot52SvIduV5OqaJ4A73gK+qs+xxKNlVnEf36lDuJeMy0TqWmE73y62nSmzIbq2Q8BavU1HHyoTq3Z9Ga4eQpVcljmhSk9uhCL3+fUl7e2hjnux3wJSTGGLsR+mxk5xKkRh7wENFDBTu0D2sLtT4Tx48bbxTRIzs7FyQ1gkfljLBrH4a2aj0yjx+XU66HCm1HLkX03kNITE7DqZRj2Ld2PoY1z8RPb72JpZnyhZvGz+K7tExkpKcj3TSl4vjBTVj4ZEvkRM/ClGUZ5nzVOGDg4kQcWPIyujWxPONSmT4lBgfPAZ4RdyCg0lmWBgiPCIJSl4yjCTdww4+qLUYujcbeQ4lITjuFlGP7sHb+MDTP/AlvvbkUZZtpjaG0FDpSod3oNTieKuro1CmkJh7E1pX/xf3OcVj0wvOYl2i8JNYYz36XhsyMsjpKR+rxg9i08Em0zInGrCnLkGFQISDAT2xPJk4mF5tXYKQtMd33pFKrIQIgMwOZLptJSqunnQBlYzRxE9HFxRyYr8g5YMCnR0X5TmL/j6+hMw7hf6+9jz+tVVsd29Ph3nmIP1WxPcYpLSke25ZPwN3KWHz28nj8eNGU1WZwAMMYYzdC6Q53NwX055JxssoNrQ5ubnBR6FGYXyA+KeHu7gaF/hySq2eEm4tYRmG+nHB97Jt1wF1dw9CmdQv4tWqLLve/gg/H3A27Kwew60CJnEuCcxNfNGveHM1NU0sEdYzEcyMi0VTSI+/CNUYxqfYhQ5eZgSyDBE9vL9OlowpK+Db1ghrFyDl34Qbug7FHsw53oWtYG7Ru4YdWbbvg/lc+xJi77XDlwC6Ub2aNFLBv1AytW4o68vNDyzYd0WvwRHz13iNwK9qHVWtOmXJJzk3g26ysjpqjZVBHRD43ApFNJejzLuCi2EZNQGt4SEVIO3mq/AZa3bmzyDWo4eHlUb79VFSEYlLA0bGGy4OSh6kPGS7minnNSSpXTzTz80fEoGl4c4Ab6PRubD9h7TbdOranyhWeFttjnFoEhqLnk1Mw86lASAXxiD1ea+XdVjiAYYyxG6FshXvvCYVd4TrMGvMZdqXno+B8MmI3LMbkT7eigIBSrfGnsxKt7r0HoXaFWDdrDD7blY78gvNIjt2AxZM/xVZzRvMybyJXd3c44TIuXCiSU6zR48zBeGSRBsFhreW060NXrqBIbIq9o1PFGQiZ0skJDgpCsRjQjdchbh5XERw6AZcv4JqbeQ0u7dvDX2nA6VNpckp1+jMHEZ9F0ASHme5fUvsHoIUIEk4lJ5sDGP0ZrF75B3KU7dGtWwPTPEb6nPO4IAIYdy8vOaUKyXgGRg0qEAFMtS6ghre3OyS6jIKCuoZ99WtPhTEwVTjCycm2QgIOYBhj7Iao0OGNzzDnYT+cWfkf3NWiETReAej8wJtYfU4FOzGMO7u6mHN2eAOfzXkYfmdW4j93tUAjjRcCOj+AN1efg8pOjCHOrqZ8N5VSKUInQkmJtuazHtpYLF66B6W+AzG03w2WQazPOLDodaXmz5YMBlMZ1OrKl9BuBqVYL6gEJdrrO7ejEG3kKAdX1mkRu3gp9pT6YuDQfiJkEgOolz9aNQLyN0zG/ZE9EREQgmErLyBo5LsYGVR2/sWA/MQknDE0QkCQj5xWlQqN3TWQ9BeRk1v1qS6CtkgLUjjBtda7lGVW2lN3dA76ePvgnqikyo+yGy4i7lAaDC5tEOJfwyWu2xQHMIwxdqNcIjDm56NIO/on1vz0A35asxVx6WcQ83YHSFJDNPNrUpYREWN+xtG0o/hzzU/44ac12BqXjjMxb6OD+BXcsJmfnK8uJDhpmsDNzR0ah6rnOiwo5O9qfGrEgMzlM7HomBpdXx6LfuZY67opGjSAqwgECvLzKw+UwtX8AhSTCo3c3apcXroGyQmaJm5wEwP8tdS6mbVSmM8Y1bAAQ+ZyzFx0DOquL2NsWSWp/eHvp4Sh8AoMbs0Qev8ofPRrDHbN748m5aNrIbZG70eJc2f06FbTE2ZKNPFwg0QigKn6WLqhACdTzsPg0FKsqy4BhvX2NFzNQ3ZuLnLyiiud/TJkr8PaPcVw6d4PPZ3kRBvBAQxjjN0UdmjS7m4MePQxPDqgF8J8JOzfEYurDh1xR+fKDyfbNWmHuwc8isceHYBeYT6Q9u9A7FUHdLyjs5yjLlQIeXsrzp/bhHHlv/arUzg5ms8sXL1q/bJN/kbMmLUOBS2ewbRRwaZHwG+EqkUL+Ep6ZCUn46qcZlaCxGPJ0CmbITCwHiOlKgRvbz2Pc5vGyQnWKODk6AgFFePq1euOYK4hHxtnzMK6ghZ4ZtooBJdVktIPAS2N2+KPIQuWYcknMzBmYDA0FiOrPvlrfL4+H5rIwRhQEdVUIaFJk8ZQGC4it+wmGJkhey1+FwGGU5c+uLuhnHgt9WpPPU59vxxbLjVE38cfsAi6bAMHMIwxVi8GXMo4gsOn8k2XQ2pScnwRZn9/Gg37PYmHvK5xqC05jkWzv8fphv3w5EM13CNxA5Re3mJgIuSct/YW3BLERr2LZekaDJg0EX1uwhUspW933OGvxOVdv2PDBYsa0sZi9YZUkHcvRHao+W0z10cJL+8mkCgH589X38obVRIbhXeXpUMzYBImVqoke7QOaA6VPgPJKdVvsDXk7casEdOwXd8JY955DJ41dgMJjZu4QU0FIoCxuAnGcB5r330P6y9549FRQ9Cs1hG7nu2pO4ylS3dC6/MIRjws6k9OthUcwDDGWH1o/8SEnh3R8c43sN709KwBWRsWYPaStdiXmIrUpFhs/mo8Bt77FrYq+2LKjMEoi18MWRuwYPYSrN2XiNTUJMRu/grjB96Lt7Yq0XfKDAy+VqBTG0MO9qyYj6i5czHXYlqwLhV6hR7p0YsRNe8r/JlVEVTo05Zg0vw4KMJfxbRhvrUMCAZc2Pct5kcZl/sJ1iYVgegcdn89T3yOwuciODGx64znnr8LLrm/4K1n38Pq/UlIPrwZC0aMwKfHXdBj7KvoewOXKgw5e7BiflSlbZw7dwHWpeqh0KcjenEU5n31Jyw2swoDcg58h3mV5p+LeV/uwBlr8+jTsGTSfMQpwvHqtGHwrVRJKvj7tzQ9Kh+7cSt2xx5FcmoKEg9E47u5Y9C/cz9M3dsQD89bhrfDr/2mOFVjd2iMZ65OHEJK2gnE/fE1Jg+6G0OWnEbr5xdi9sDGtQ7Y9WtP4Oqfi7H8CBA0dCQib/DS4d9Cfh/MLfUXrYYxxm69ot/pOS+JVG3epD2mt57pKOWTSNJIFi8TU6jJI+JZ+t/+ym+F06V8QpEayeIFacaXiEXQs//bTzW+P66MtZe8WdLuoHEBqooyWJskD3r2t7KXvRlftBdAaucQGrs5X067FnN+lbXliu1wefArOZ9QmkLf/yec3JQVdaJQe9Hdb66hjCrvvauktm0UtDvGUYCq6vorT5LHs1S+mRZ0x96jO4zX06zMY5pEuwWM/VPObWZ8yWCA2plCxm4ma7VUemgmdXOpvkyF0pVa3D2C5m7LEj2kdrqEGdTFznI5CrLz6ERDZm+hrCoLKD00lcLtHemO947JKUbXbk/Ll9+ZX1hXRGtH+JBa05eikupSwgrG8t0O+E8JMMZYPVze+BLaP/A9Wn+0DxtHB8o3o+qRnxaLA4czkG9whldgJ3QO9oS139z6/DTEHjiMjHwDnL0C0alzMDzr8hr3khhM6NQdH9m9g5KD0+TE25kBBakx2BOfiUuSG/wj7kBH31pOvdjcNprpL2XhxPFkZJzNQaFWAYdG3vA3vpzQsz6nmkpw/lgM4k6eQ2GpGg192yAiPAiNb9LVtpKYCejU/SPYvbMfMdPCbuhep9tlTOcAhjHG6kqfhk/u7YjJ+qnYtWks2t7oHa/1YaODe738G7bxb/JPDGBu4IIrY4z9u+jTNmK39kHMWfjKXxu8MMaq4TMwjDFmCwwXEbNyKXYpe2Lc4HA58R/m37CNfxPDxX1YuXQ3lD2HY3D4td+pUxu+hMQYY4wxm8OXkBhjjDHGrhMHMIwxxhizORzAMMYYY8zmcADDGGOMMZvDAQxjjDHGbA4HMIwxxhizORzAMMYYY8zmcADDGGOMMZvDAQxjjDHGbA4HMIwxxhizORzAMMYYY8zmcADDGGOMMZvDAQxjjDHGbA4HMIwxxhizORzAMMYYY8zmcADDGGOMMZvDAQxjjDHGbI6CBPm/bxmFQoG/YDWMWTAg7+hmRKdo0K1/V/iq5OTiVOxYHw+E3YcerRzMabpM7P09BpcDeiKw4E/sTi+B9d6qgHNAbwyI8AQKUnEg7iRyCq6iuLQUelLBUeOFVu07INjLSc4vM+Tg0PpoHC80mJarUEhQ2rvAvWkQwsL84WZnzmaV4SJO7ItHam4+rhSL9Sjs0cDLHx0iguElF9+sAIl/bEJ8jq5iHQ4N4NkqDBGhPigvkSEfRzZtREKeuSxGxrwqB1c08WuHsPYtoCmrKyN9FmJ+34Vz3t1xfxcfqHAVadHLsfTXGGRoG6H9gBF44cE2cJGz39i2ZmHf6u1ILbaofXHskJT2cGnsi4CwDghsXHkBhuw4rPszDc6hkegd5CqnmunO7MPavYVo3acvQhpV/61myI7F2uiTuKp2RdOw7ujmr4HS9I0OZ/atw55sD3Tt1w3N7E2JZiUZ2L1uP4oC+6J3Ow2k+m7vlWRs23gEyg4W/c/SddRB5WXa4eKJfYhPzUX+lWKU6hWwb+AF/w4Rol9WXl9B4h/YFJ8DnbngYh0OaODZCmERofAp6zD17S9iv8s5tB7RxwthKF+uKLt7UwSFhcH/2h2g9rLrRP2v3o30Eov6saRwRkDPu2Afv7keZa7KgKx9q7E9tbh8frEEKCQl7F0awzcgDB0CG8NyS66/H1rZ5obeYpvDEexZub2uJG/DxiNKdLivB8xdp477vNGN7JdW3DZjujGAudX+otUwZkFLO8YFkkodTBNiSuU0otLDUylcrabwaUeoLFWfEUW97ZTk+/w3NL+3HSlEfzX22eqTRJohP1GRmPPgpDBSW8mjUGmozcPv05+5ennpQtEaGu4pVcsrDgOkdu9ETy+Kpyty1qqMZetlZ2U+z+701rpzVL6WS9/Qw86KKvnEpFCRJvhJWpxQbM5XvJ5G+iqr5zNNCrL3iqCnonZRefFL99GEEDVJHo/TytMJtHR4e2qociGfwDbUXKMmheRO/T5JJJ2c/Ua2lbI/o3vsrWyDPCnU7tRx2EI6eEnO///tnQtUVNfVx/9z5+UAIuAbI4TKQ0GgvqrWoGiiMdF8sdYkavKZGNtEa7UxGk2MUeMXjagJRi2N2tj4zmdjgpqH1mi60mIUTETDgOgQHiooiCKCODB3ds/MXOYFyAwgC+j5rTWw1uHOOXvvu8/e+557z4Uh5u2mp5k+8gcm057LdjZnlrm8YSSphK40/WCF1OZI+b7J5MPisKVvfxq3KY15jYkKOrV0IHnKlBQ68yubLRgG3RoappRTz5lHyWxRN/XVn3qdIhRK6rc0VWpxogE2cOhTzKP1sapavteVhi38iq7aHIZ2/sazFl+XkcIngp79q9ain7v+wmx3aHpXYmm6xvEm2ftP20Jn63b2emUXL29gc7Vu+0DwoSl7D7gpszOF9OGj6rrjAPOLTv2eowS7k9BgP6xT5y40dMEXVGDtSk+nXo9g8awfLU2VIperc95EY+ZlLZi+2xLgBQynjSLS1YTRpJZ506Q9tkBTlbKY+rICZvCq89akK+bE0whWwJiT0o18ysvNpVzrR0c7JnchQRVLcWdzqaDElOKkYKIIpzkHtXQxK5tysi/ST99/QX+ZPYQ6CqwYeiGRblq6Z1RR6dU8uz5zKCvjRzq2+22a0IsFSjULSqdtRZYDhkI6n5xCZ7WZlJWdQzlZWjqxbzGN7CyQos9COmnJuGTIWksPKRUUNudL+lkaQ/dTEn22eiL1UgnUfkwC5ZqDoUhlhXmk/etvqYtcRVELjrLjmTzaZPrHzhX0TF9vEoSONDbhomQfkbI3jab2gop6BHQnr14TKT7pmvlvhvxPaVogC9pBs+m4NVY2QleWMm/k51HW3mnUQ66kQW8lUTbrIycrnU4f20MrnwojD5Y8+ixIsiRXMyJdS3yRfsGKii7jt5DOWkmxxPGBKXF0o+mHai9gyFBKV/OYnVJ20PMhCpL7T6eDZdLf7p6lNbE+JCgCadqnBaw3C4aLcfRrNlbgrG8kGdzTt94CpgE2cOzTQIXnkynlrJYyTX6Zk0XaE/to8cjOTJc+tNDmMLT2ISUpwubQlz9bZM/R/URJn62mib1UJLQfQwlmh3HXX5hFSq86zKGcrAz68dhuentCLzYf1UzO09aLB0dckd1iH5u92Ue3gyZ3EUgVG0dncwuoRO++zM6Y40DWXprGihLloLcoKZuNw+RJP32M9qx8isI8WOLvs4CSrI7YUD806ZxCp8+lW3TO1lFa0ie0MKajWefXvpfOVy0FjOtz3kRj5mVNeAHD4dxn7h6dST1ZErBfbak4NJ26yT3oiW03pBYWCDJW0WAWCELn/UtqsUPMpvdilCQPmEVHrcGqlquhagzp9M4g04rF83SgjrxpT+mBF8ifydh/+TmpxRXKKXEaC+rqRyhBukTTn1pE4QoVjYjPsSZbM+JV2jzWg2ReE2hHidRGxbRrIkvOHqNooy3CmRFzt9J4P1YchS2gE9WxU1oVkD8wkf520V7fu/TNHwJJrhxIK9LqSgU2XNW1+rwNW6NzTDDlh+mlnnJShC+yFm4WimnfFHbVz66+R75fvYpSRWkrBpBSHkR//NZW7tSOnk4uCmcFqV2CZxh0W2g8S4zy7hNpe45FEv2J16g3KxYiF6fUkYRt1KZv/QWMBXds4Eqf5YnTqLOgpkcSpGJMf4oWhStINSKechwdhq5uHsuKJC+aYHUYN/2lLkoP0Av+rCDov5zOuZ4ra8ruhJj9HsWwwiFglrQqZqYJZL57lGYyWyuHrbErSEyU0+GXepKcXcAscnDExvqhjfL9z7ILIRU98udqnWvGHPfmfN00JAa1lJzOH+LltFmUwSF4UBCRo9PBYGoQr+DA3m9QJI/EkCHe5mNMiEXXUEwydOrWTWqxw5CPgkKC4NcZnSwPSNwbeRCiIvyAkjzkFhulxrrxjI5CsFxEwaVLUosrKODnZ3r+ogwlt0yxhFFZyXQk6O/qzWvDVgRfhIV2h1xfgEsFoqVNn4Lvkm9D3mcEYv0dQ4AQ8FtMekgDMfsHpFyzyC+WlaHcKKDb4y9hSrD9wwMKBAU9wORgfV8yW/ieNExXO9pFIzpMDjE/F/bDGTL3YOuRIhZRb+Gfy36H1Sl3mI5a7D+kheg7CMOi7B9iqQ0VwiN7QyPmIiO9XGpjp7LXDGzeOAU9ihIxf9YWXKi8gWMffw4dAjFydF+m/b1ptL61UYcN6kPh5wcfwYiykluSf1Sikn2f9Hehd3QY+IaFortcz+QugNlj3PSXOvGMRlQwk73gUiNld8SQX4BClsr8OneSnmFiNJXMtdIO0dFhkIv5yLVTpPF+aEPRqSPTmXC7pKRWnc24M+fvwX3x02aCFzCcNovQLRi/8GW1xOGleHz0CAwM6Yvn9hYj7Pdv4fcsCVgwoiQjE1eMvggJ85fa7KmCvoqFB5UKapnUdE9k8PLUQEaVuFv9IKYhDWtGdYf/o+uR6RRPBA8PtGP93q24K7W4hiCYhDFAlPpThPZDhLeI5LVTMTMhCVet4wjQeJie+NOzQCfJU3EZl4uMkPsHoGeNLOwB/+5+EKgExTctwb1Kq4VOlCM0oi+U5pZqZPBgfctIf191tSK0Z7ZlHVQyXaQmoBifLX8Hx/W/wpJtb2AgJePdGa9gxeznsPpHDWLfXIpJrJ6sD01oGAIVldCdv8BSezUC/CdtwOaXQlB65A1MfeJ/8OK2PAQ9vw5vDK9+qPQ+6lsbtdrABQSBnS0mrs1h0C/CG2LyWkydmYAkm8NA0DC52W89K27MZ9UtfzEgbc0odPd/FOtrGgQeFoPALYs4y+5MlR6WKao2H2fGTR93DwHtvTzZWJXMRlJTE/mhFbnCXIyJxrrlc2vON7efNhO8gOG0XZTBCA6Uw1haDqNfT0Q9PhvvfZ6MpA3j0Nnq+aX49ngKKj0HIWaIlJTsMa+WuonMGkYtGO/gZuF1XC+6CfvNJdVYjm7AOHYIXaZi4643Mdo7HR/H7cRZa2A1wiiagqDcFBMtsEQgsvGI/a45KqGyynRdp4bGXLGJuJyeiWJZN/QO71QjYBjNW00UUFb3fV91ldkSVDVlx/HZ4SJoHn4Zf5q2DB8tjUE77VYs25aN4Jk7sGtuRL0rJSYUptU6hYhLFy6gQmozI/hhbNxHmP/LKvz4j+9RFbsan256Et2qDdEM59aRWmzQEIQumLpxF94c7Y30j+Ow0+Yw7JyKzGuYx1Q7jFv+YsSdm4W4fr0IN+s2SJNapNYp6pbM7uM8xZvKD93BrTnf7H7aPPAChtN2kQciJMi0mTAYUzbuwLZN72DukxHwsfN6Ubcdm78ugc/oyRhvq2paIXL0eGwFDmsz8MORlRht3UNJuFNewX5q4OEhRV3PrujqLcB4JRc5zkv5xqu4oCsG2gch+AHTNWAVtNqLEBUhiIhwXH8xUWm6DyFTQtnARNBYxMJcXC6XoVPPAHgJKkTO24KVY1ihJXREv1ED0dWFU3rnwn4snLgER1hk12edx0Vnm3gNY4loKWJ8gNt5F3GlvCFX7S0PeY/HsOKwFhk/HMFKm8OA7pSjguUyDbsyN59Vt/ylhdDMMjeFH7qPG3O+jcILGE6bQV+YibMZBXbL02r0CgmAQsyDLss5irE4dvMEVs14G9+J/TF38VP3Kcg0Mx6BiOrd0W5iE26VloKEDvDzk4K1ahCG9tfAkHEI+1NtN0xM6M/8DbtPGeAzchxGaFiDmIP0zBLI/Psgws/ZQEaUlZWDZB6W2xpNhHi7jCVQGdQaTf2rDRUV0LOjlEql5VhFKF7+cB2e7HIFu+fMxq7cOm47mDDexOnN0/HrwU8jXtsDA0JUMORm4oLDEowFdfR8fLT6MXTQbcXLc/+O/Ptcw7hlg0bhgcCo3uhod2rpVilKSUAHPz/zbQy3/KWl0BQyi7dRxio5mVoDTX0noTF+2FhcmfNtlLYQsjkcyz3ecZHoF/Uwlp2sDlgKBAcHQSleYlco3+LED2nQ/ZyFjNPH8Un8XIwbNAbLT3bAbz7YgUUDXH/AriViLD6JPRvWIz4+3umzAYnnbrOrTT/4Vd8hE/zxzJypeJDOYt2zzyLu85OsSNEi6e/v4Jln4nBG9SvMe2OS5TabPgPpOhHKkAj0UbJxir7Hbus4H2B7UgGMsvbw8WmCQHknDYkbV2He2q9xQwhAZFTNW1bOkLH6xVy2DCMP/F/8+YMp6FGYiFdf/hCZNWtXoPIcEiYNxPBZu3Et+jXsTz6O9554EPKKLGRm6ZHzzVasd7DjRhwqj8bQABkuf/IK5v3/NfNtlianATZoEMZinNyzwUlHy2dD4jncRnuW/CSHccdfWgqNkvkO0hI3YtW8tfj6hoCAyCh0qke3BvthI3BrzrdVpN1I95VmGobz34whizaN8SVlh+EUl2bbo1mVupKGeNV82ZNM3p4eHD6D4v+ZX+e7IMzoT9CicBV5jHjfbitlFaUuH0BqzVB6N93523pKeq0PqTwepg3V+1OrUmnZADVphqwirfPhN7bTBG8l+c/4QmpwhSpKWRLNxo+hdRctHer//SqFKhx1tH1k1G7AMjrjsHX1Np35y3MU6aOwvbBLJpBn0Fh66+srVpsYdOtouEZNfV8/Yd4Wqv/uFQp2GEdGgu9E2nndcnxjdDVkraMYtUBK70CKnX+QHN4HZqac9k32IYXvVPpU2qJuOB9Hw5h8UW8mO25rFq/TV3P6kpfCl8ZvzZMabZhfiObZg0Yt+ZJypZ2wxTsnko+iO714qJj2PuV9zxeZRS2R3mXipr5VqctpgFpDQ99Nl1ocaYgN6uvTRFXKEopmx8Ssk959ov83vRqqqF0/9pG1G0DLHBzGNX9hI1HqMtPcGEKrahqEtk/wJqX/DPrChVcMVFNDdif0JxZRuMqDRrzvtOXcZZmdYLFkXYyaBKU3BcbOp4M1T4LlJYjMt6ZKJ6GhflgXlvmspIH/p5XkrBlz3JrzTRyDTGO0BPi/EuC0ecTb+bhwXoe8giKU6mVo59sdwZHR6NPV4WXb/5UYy/Jw5lQqsm+K8PKPxODBwfBt26vOFsQr+CldgfDIrpbbJByXaI3+0hplrkyaj8jYjfBeloqTS8JbnI+2lJzOCxgOh8PhcFoQvIBxjZZ015LD4XA4HA7HJfgKDIfD4XA4LQjzw/I7T0I96nd4+peO/926JcBvIXE4HA6Hw2l18FtIHA6Hw+FwOA2EFzAcDofD4XBaHbyA4XA4HA6H0+rgBQyHw+FwOJxWBy9gOBwOh8PhtDp4AcPhcDgcDqfV0WzbqDkcDofD4bQNWsI26mYpYDgcDofD4XCaEn4LicPhcDgcTquDFzAcDofD4XBaHbyA4XA4HA6H0+rgBQyHw+FwOJxWBy9gOBwOh8PhtDKA/wBSZw3Rd2jjqgAAAABJRU5ErkJggg==;" vertex="1" parent="1">
          <mxGeometry x="150" y="830" width="560" height="302" as="geometry" />
        </mxCell>
        <mxCell id="9yQweUYaB5Ay2i9U1sqV-33" value="" style="edgeStyle=orthogonalEdgeStyle;rounded=0;orthogonalLoop=1;jettySize=auto;html=1;" edge="1" parent="1" source="9yQweUYaB5Ay2i9U1sqV-30" target="9yQweUYaB5Ay2i9U1sqV-31">
          <mxGeometry relative="1" as="geometry" />
        </mxCell>
        <mxCell id="9yQweUYaB5Ay2i9U1sqV-30" value="start" style="ellipse;whiteSpace=wrap;html=1;fillColor=#d5e8d4;strokeColor=#82b366;" vertex="1" parent="1">
          <mxGeometry x="380" y="1169" width="120" height="80" as="geometry" />
        </mxCell>
        <mxCell id="9yQweUYaB5Ay2i9U1sqV-34" value="" style="edgeStyle=orthogonalEdgeStyle;rounded=0;orthogonalLoop=1;jettySize=auto;html=1;" edge="1" parent="1" source="9yQweUYaB5Ay2i9U1sqV-31" target="9yQweUYaB5Ay2i9U1sqV-32">
          <mxGeometry relative="1" as="geometry" />
        </mxCell>
        <mxCell id="9yQweUYaB5Ay2i9U1sqV-31" value="number" style="shape=card;whiteSpace=wrap;html=1;fillColor=#dae8fc;strokeColor=#6c8ebf;" vertex="1" parent="1">
          <mxGeometry x="400" y="1300" width="80" height="100" as="geometry" />
        </mxCell>
        <mxCell id="9yQweUYaB5Ay2i9U1sqV-39" style="edgeStyle=orthogonalEdgeStyle;rounded=0;orthogonalLoop=1;jettySize=auto;html=1;entryX=0.5;entryY=0;entryDx=0;entryDy=0;" edge="1" parent="1" source="9yQweUYaB5Ay2i9U1sqV-32" target="9yQweUYaB5Ay2i9U1sqV-35">
          <mxGeometry relative="1" as="geometry" />
        </mxCell>
        <mxCell id="9yQweUYaB5Ay2i9U1sqV-40" style="edgeStyle=orthogonalEdgeStyle;rounded=0;orthogonalLoop=1;jettySize=auto;html=1;entryX=0.5;entryY=0;entryDx=0;entryDy=0;" edge="1" parent="1" source="9yQweUYaB5Ay2i9U1sqV-32" target="9yQweUYaB5Ay2i9U1sqV-37">
          <mxGeometry relative="1" as="geometry" />
        </mxCell>
        <mxCell id="9yQweUYaB5Ay2i9U1sqV-32" value="number&amp;gt;=10&lt;br&gt;&amp;amp;&amp;amp;&lt;br&gt;number&amp;lt;=99" style="rhombus;whiteSpace=wrap;html=1;fillColor=#ffe6cc;strokeColor=#d79b00;" vertex="1" parent="1">
          <mxGeometry x="372.5" y="1440" width="135" height="130" as="geometry" />
        </mxCell>
        <mxCell id="9yQweUYaB5Ay2i9U1sqV-41" value="" style="edgeStyle=orthogonalEdgeStyle;rounded=0;orthogonalLoop=1;jettySize=auto;html=1;" edge="1" parent="1" source="9yQweUYaB5Ay2i9U1sqV-35" target="9yQweUYaB5Ay2i9U1sqV-36">
          <mxGeometry relative="1" as="geometry" />
        </mxCell>
        <mxCell id="9yQweUYaB5Ay2i9U1sqV-35" value="rn=number%10&lt;br&gt;ln=(number-rn)/10&lt;br&gt;newnum=rn*10+ln" style="rounded=0;whiteSpace=wrap;html=1;fillColor=#fff2cc;strokeColor=#d6b656;" vertex="1" parent="1">
          <mxGeometry x="200" y="1570" width="120" height="60" as="geometry" />
        </mxCell>
        <mxCell id="9yQweUYaB5Ay2i9U1sqV-43" style="edgeStyle=orthogonalEdgeStyle;rounded=0;orthogonalLoop=1;jettySize=auto;html=1;" edge="1" parent="1" source="9yQweUYaB5Ay2i9U1sqV-36" target="9yQweUYaB5Ay2i9U1sqV-42">
          <mxGeometry relative="1" as="geometry" />
        </mxCell>
        <mxCell id="9yQweUYaB5Ay2i9U1sqV-36" value="newnum" style="shape=document;whiteSpace=wrap;html=1;boundedLbl=1;fillColor=#e1d5e7;strokeColor=#9673a6;" vertex="1" parent="1">
          <mxGeometry x="200" y="1700" width="120" height="80" as="geometry" />
        </mxCell>
        <mxCell id="9yQweUYaB5Ay2i9U1sqV-45" style="edgeStyle=orthogonalEdgeStyle;rounded=0;orthogonalLoop=1;jettySize=auto;html=1;entryX=0.5;entryY=0;entryDx=0;entryDy=0;" edge="1" parent="1" source="9yQweUYaB5Ay2i9U1sqV-37" target="9yQweUYaB5Ay2i9U1sqV-42">
          <mxGeometry relative="1" as="geometry">
            <Array as="points">
              <mxPoint x="602" y="1740" />
              <mxPoint x="440" y="1740" />
            </Array>
          </mxGeometry>
        </mxCell>
        <mxCell id="9yQweUYaB5Ay2i9U1sqV-37" value="&quot;number is invalid&quot;" style="shape=document;whiteSpace=wrap;html=1;boundedLbl=1;fillColor=#e1d5e7;strokeColor=#9673a6;" vertex="1" parent="1">
          <mxGeometry x="542" y="1570" width="120" height="80" as="geometry" />
        </mxCell>
        <mxCell id="9yQweUYaB5Ay2i9U1sqV-47" value="" style="edgeStyle=orthogonalEdgeStyle;rounded=0;orthogonalLoop=1;jettySize=auto;html=1;" edge="1" parent="1" source="9yQweUYaB5Ay2i9U1sqV-42" target="9yQweUYaB5Ay2i9U1sqV-46">
          <mxGeometry relative="1" as="geometry" />
        </mxCell>
        <mxCell id="9yQweUYaB5Ay2i9U1sqV-42" value="" style="ellipse;whiteSpace=wrap;html=1;aspect=fixed;fillColor=#f5f5f5;fontColor=#333333;strokeColor=#666666;" vertex="1" parent="1">
          <mxGeometry x="420" y="1840" width="40" height="40" as="geometry" />
        </mxCell>
        <mxCell id="9yQweUYaB5Ay2i9U1sqV-46" value="stop" style="ellipse;whiteSpace=wrap;html=1;fillColor=#f8cecc;strokeColor=#b85450;" vertex="1" parent="1">
          <mxGeometry x="380" y="1930" width="120" height="80" as="geometry" />
        </mxCell>
        <mxCell id="9yQweUYaB5Ay2i9U1sqV-48" value="" style="shape=image;verticalLabelPosition=bottom;labelBackgroundColor=default;verticalAlign=top;aspect=fixed;imageAspect=0;image=data:image/png,iVBORw0KGgoAAAANSUhEUgAAAjgAAABKCAYAAAC2AC4VAAAAAXNSR0IArs4c6QAAAARnQU1BAACxjwv8YQUAAAAJcEhZcwAADsMAAA7DAcdvqGQAAC0/SURBVHhe7d0HXJXV/wfwz11s9IKIDAcqQwVEQAMz908stVJTf2pmrtIyTetX7kEpZv9KtLRylaZp/VqmYmrhzIGylKlsFWQoQ9aFe+/3f+6Cyx6i9aPzrucl9/Dc5znPOec55/tMBMSA4ziO4ziuFRFq/+U4juM4jms1eIDDcRzHcVyrwwMcjuM4juNaHR7gcBzHcRzX6vAAh+M4juO4VocHOBzHcRzHtTo8wOE4juM4rtXhAQ7HcRzHca0OD3A4juM4jmt1eIDDcRzHcY9VPoKWjsDgiYEIl2uT/q7yg7B0xGBMDAzH3z2r1fEAh+M4juMeJ2Uxkq+exfnz15H+N48alMXJuHr2PM5fT3/sAY7yfgS+3zAfE/0GwLuPF558+iWs2BuOXKV2hgbwAIfjOI7juL+XsjP4T39fTA0Iwh3jrnDrYYW8kAPYMGMwRvpfQrF2tvrwP7bJcRzHNYsyPxmhEQnIzi9EiawccqUABmZW6NTLE326SiHWzqdTlHAax6+L0OeZgehmxL6fl4zImDTk5OYiv1gBgzY26O7hDVcb9ks1Je7fuIzIpBzkFZWiXCGAIZvHsU9fvXkY+S1cOnIJOZ0GYZR3hypH7oqMqwi6kI3Og0bCo31tx/RKZEccQ3BcAZSq0VAggFBkCDOrjnDx8ICjpYFmNjUlcqNOIjhRCt/RPrDXbWBpEs4diwQ8nsFA1YapqPMUgkKn4fiXq1S18Th9/DpEfdg8DrnY6ueAhaFPYemWOXCTsHWKjSG1dYZnv56wVq/yIdZVnTIXUX8EI8HcF8/62kPElp0VehTBN0tYmXdE7yd94CgVaWeuWk8OuVvh57AQoU8txZY5bpAIhBAbS2Hr7Il+Pa2hKx1ldgSOBcehQF2IDCtHkcQEFmybPLx7wNpQk9xoZZexbe0VuC+Yh4G2mo0vDl2LIQPfQ6jxRHyb9B3+3VadXDdVgMNxHMdxTVNOYas8SMKGEdVQUmUSGJKt7zzaHyfTzqsio8tLXUks8aTVEeXsczldW+tV4/sCsQW5T9tB10rYLIo0ChxiUOX36nkkHWjAu0F0V6FeMFHhf2mKpZAkvhsoTq5N07q/4xkyFEhp8vdF2pTqSujwzA7EQp9a1mNFXtO3U2TFV2V0brEz2wZXWhai2gaN8mtryVsiIW//62yrNBRpgTTUQET2rxxTf5ZdXkquYgl5ro5gn3Jo1xhTEtRYp4AM7YfTe2dzVd9o9rpqKP2NXrUXkWTAh5SgLp8S+vklK+02C0gk9aI3fr5NmuKsVk85u2iMqaBaPtnE6th++HukzipTcngmdRBWm0c9CUhi/QS9/l1iRX6brTyS1nhJCBJf2hBfraJrwS9RcRzHcc2gRHm5HCTuhQWH45CUnIKUlCTEhp3CgfdHwTR8O16dsxmxCu3sNYjhPHMngi9HIiYhGSnJ8Yg8+z3eH2OBuP2LsGDbDUBoh6lfnMeVyGjEJ7J5UhIRfeF7LHtKiYufvI1PrpRpFmXkBa9eIsjjwhFRoknSYeMcG2PZ/8K6hjsjPL05EimpqUjVTimJsQj7Yz/Wjm6L6G8WYMbGUO39J2I4OXWBSH4LNxNK1SlqsjLI2D9iiUS1Kg0lsRJimyCqfh5LpR1mHEzGrbTKdSbFheHEthfRNTsYAWv2Ik3ZUutiRO3Q3pJFH/ezka2uDyOM2RrFyvMmrvz3LfRDBD5/6wOcUS24unYzcDD5FtIqyicJcWEnsO3FrsgODsCavWnq2Yye3ozIlMrtUU3J8ZE4vW8ZBolC8cXrS/Hf++pZm09ZiKIiFluJLWBlUXnGqS48wOE4juOaT2AIi07d0dWhC7p06YoenkMwecVX2DDeEiWXf8HhlDojHBh29sRTT/RGz+4O6OLgjN4DJ2LZl8vhZ1KMkJOn2RwitHfph769e8G5G5unSzf06j8RK958Bu2USQgLu68e2CGyR98+HSEsjEJ4tDboUVNCrlCAWGAiqWPsVxGbd0Cnzp3RWTt16dYDnsOmYvXeTzDFVo6oI0cQq45whJA6dYe1sATJN1MqbrqV381AjlICaxtrlmMNKilBKQlgbKx3KU2P0LQ97DtVrrOriydGzJqNER2FUOTew31ly60LQmtYWQqgvJ/DvqtJUm9zF0f0neCPd8ZYgm5fwNkburXoE8K0vb1e+XSFi+cIzJo9Ah2FCuTe00YtYnN00Nse1eTg3BuDX1yD9S85Q5gfidA4/bppurLo33AySQGjfsMxxFKbWA8e4HAcx3EtzAzu7o4QKW8jJbm2QbNuQmkPuNiLIM+4rU2pSWxpCalQicK8fPV1EBYqwaNvbxgrkhARkasJerRKS9mgKjCGsUnF+Y7GM/VAb0cRFBm3cEu7GRJHJziwgT0lIUETdCju4NCB35Etcoevbxv1PCqK7EzcY0GHlY2NNqVhijthiEwnSF090J0FZC22LqHqDI4ElM8CnBpnaSSwtbWCkAqRn69fcvVR4E5YJNJJCleP7tq0uqnPnrE6MDF5iJBDkYw9qz/HdeqCF9+dBVYtDeIBDsdxHNfCBDA3M4aASlFSoglBGk1oCjMWjJCs2rUmfWzAVIUrqrMzOuZennARlyM6LALl2jTVGZz8/EKQUIp2dV7SkCPqw2GwtRuJwPhqZ5uEJjAxYmsqLYHuIpHQxhHdLIC831Zj1IjB6OvkhmkH7sHllVV4xUW3DiXyYuNxR2kBJxc7bVpDZAjd+TUultvj+al+MGcpLbcuMdpZSSFU3Ed2TvUzagRZiQwkMGF11siQQBaKnV9fRLn985jqp8opK8WoDzHM1g4jA+NZ+KNHeR/hEclQmvWAm2M9p9HqVYrrW17BsqACOM7+DAHPsEJpBB7gcBzHcS1PoDljUvmcrhAm0vawtLSCVBU01EkBVdwiMGjaYzdip77waEfIvB6B1IoRVo60W+lQiuzQuXNdw50SxblZyMnJRm5pLcGYNqsVv5E4wrGLCMqCIigtO6H3qPn4+OcQ/LllNCof0irAqeArKDPth4G+dVw2qkZ5ax/Wb4+BxOd1LPIz0yS22LpEaG9tCSGxAEdzE04lZT5uJmZCadSVrasxAYgSt/atx/YYCXxeXwRdVpXFucjKyUF2bmllWTHKrCAcvVgKswF+GGyiTWwSBVK/n4cXlp6GcNgGfPeJ/rbXjwc4HMdx3GMghtuSU8i8ewKLK84+1EJZjCLVWR+DxgUGFQy84O1mAEWs3o3G8pu4Gp4DQbc+6CNtoeFO1AVOXVUjtSOmfLoXuz9bh4XPu0J/8YqEPfjyWB6kIyZjTKNG4zwcXxeAoHwHvOw/H666OKPF1iVE+/btIFDeZ4Fc1ctQyqyjOMICEJMnhmFQQ49dq+Qdx7qAIOQ7vAz/+a6sVuujQMp3+/DHg7YYPunZRgcmlZS4e3QRnpu1D9l9V+DH7xehTxOCpCavjuM4jvsnkiErPhKxGXpP9DwKynzkP1BC0LYRd5HqE7aDl1dXzY3GMao7VhS49dNGfHUNcB4zFp76r7N5KIbo7tQZYkUaEhJr3l+kzL2AgNn+OKvwwsLlE9GhEaNsWWggVu1NhXTMSqwYprnko9FS6xKiXXtLSCifBTh6N+EoM3F01QYce2CLF+ZPQacG81qG0MBV2JsqxZiVK1Alq7WRX8PXX5+HzG48Zo9rX2/AIcuKR2RsRsWlQFVwc//0Koyd9jlSeizC9z+vwUCLpoUsTZub4ziO+0dS3WMx2t0TvYevwaUqDypl4+rBzdi0aZPetBm7zt1hQ1Q9lLm4cnALAqt8j02f/oiIXIKxlZV2xoYUI+qXrWw5W3E6QwyB4iYOf/A25oz1gc9LB5DlOAsb3nqi4oV0D08MR8eukChuIfT4KVwIjUJCUiJirwbj4KaFGN3PD2svtcW4zXuxxLsRl9kUydi9cgvCBd54038a7KuMyi23LnE7K0iFCqTfiEBi8g2E/74HqycMwpTdt9F9zjZsfL5dgwGBInk3Vm4Jh8D7TfhPs29w/uIzO7HvOuAy9RWM0F7KqpU8Ch+Ododn7+FYo21cylt7MeffHyCkxAHDR9ohar9eGwvcjJ1/pKrnq5fmdTgcx3EcVzd54mfkZyGhtoM2UpT6jW1yitnQn4wF6lsuap0EEidadEb/ZX96ZJdoSS9xrd9TvUSu94rL2hlrKr+ykjwMjWngRzdJLk+k/3vKQPvSPAEJhGIybNOeHHoPpknv7KCLmQ29EK6cItZ4k6GxLwVEV5/3Pu0Z24YkdrPpiOrFg1rlEevJ16zmy+8EInNyGDSbNp1OZ6VTVXnEWvJmee6/IUaboiE7u4icJKbktugk5WnT9DVnXbWRR6+jJwz0lyMgA2svmrLxD0qvsgBWHmtV5dGfNsTo/0JGZxc5kcTUjRadrJlT/RcZal7oV0JHZ9uRRDqcAht6KR+rw8/8LEjSdhBt1DQuKg9ZTu5V8qs/CajthAPq+erD/1QDx3EcxzWR4kE6bsQlIC0jGwUyAYwsbOHo7oGeHZp1J229WmZdZciMCUH4zbsoKJegrX0P9PV2QbsWOrVVFrIMXgM+hsHyKwjx92jg3pzHgwc4HMdxHMc9lL9jgMPvweE4juM4rtXhZ3A4juM4jnsoyvuXceDrCxANnonJ3rX8RfO/AA9wOI7jOI5rdfglKo7jOI7jWh0e4HAcx3Ec1+rwAIfjOI7juFaHBzgcx3Ecx7U6PMDhOI7jOK7V4QEOx3Ecx3GtDg9wOI7jOI5rdXiAw3Ecx3Fcq8MDHI7jOI7jWp3/4QAnH0FLR2DwxECEy7VJXL3yg5ZixOCJCGzNBZYfhKUjBmNiYDh4s/jf9Y9oq/+jyi5uxNjBflhxvBBQJOObV4dh2KvfIFmhnYH765VdxMaxg+G34jgKoUDyN69i2LBX8c0/rJL+dwMcZTGSr57F+fPXkc77wEZQojj5Ks6eP4/rrbjAlMXJuHr2PM5fT+cBzv+sf0Zb/V+lzInHJVY3MdkCgIqREsb2t4hUlGh/z6Ie3Ph5A1a+/x2iy7RJrVTZxQA87dUXEz6L0qb8TShzEH+J1UtMNgQgFKeEsbEyAqmVlfSPwC9RcRzHcY0mMDeFicgU5mYiNoKYwcxMAIGpOcxZvKMhQ+j+AASs34OLRdqkVqo8Mx7h167hetJ9bcrfhMAcpiYimJqbQcSGeTMzMwgErM4qK+kf4TH/sU050i4cwoXUMhZT1kYAU6ehGONpgOTQa0jIvI8HJXKIzKzR1c0bvTubVUZkygxs9XPAwtCnsHTLHLhJBBCKjSG1dYZnv56wNtDMpshNROi1BGTef4ASuQhm1l3h5t0bnc0aju2KEk7j+HUR+jwzEN2M5MiKuYTIhEzkK83Quc+T6OtgXpEfZW4UTgYnQuo7Gj72Ym1qKZLOHUMkPPDMwG4wUqfJcevSEYQUOmH4MFdIkY2IY8GIK1Cqy0QgEEJkaAarji7w8HCEpXY71BTpCDnyJ+7aDsCoJ+wgRjGSg/fh659DkCazgPuY2Xj1uR4w085elRIZW/3gsDAUTy3dgjluEgiEYhhLbeHs2Q89dQXG6G9356wLOHQhFWV1tBKBqROGjvGCIPwogm8WQ2LeER4DfOEoZZ1ffYoScPr4dYj6PIOB3VjJKHMRdTIYiVJfjPaxZ9umUZp0DsciAQ91HWjS5Lcu4UhIIZyGD4OrVFglvw65W+HnsBChTy3FljlukLDyFBtLYevsiX49raHeyodYlzI7AseC41CgVNcWK0MRDM2s0NHFAx6OlprlVyhCwunjuC7qg3Gs/utStZ2pE6qUTfPbVhbCg84g2bQ3Rgx1gbl6Hi35HVw+egkF3YdheC9CwuVIJOXkoai0HAqBIdrYOKJPX1fYaMtBTcnbqqo+5FkxuBTJ+pR8Jcw698GTfR1gru0Iml1XQiWyI44hOK4AmqbF+jORIcysOsLFwwOOVQq3Fsp81mdGICE7H4UlMpTLlRAYsLrp1AuefbpCqsuKmhJZ4UE4k2yK3iOGwqVqw8Cdy0dxqaA7hg13g0Ut3aT86gp4DtiPQUHx2Dq8GDtH2eIN4TbcPTKLtTmVYhyY0AEvHhmI7RlBmGOhTmy15KWlgJFRRT/ytyC/ihWeA7B/UBDitw5H8c5RsH1DiG13j2BWbX/oW5mF0KPBuFksgXlHDwzwdYRut5DfuYygi1mw9vGDbydDTaJaGRvPg3ClxBnDh/ZibZgtpkn942OgCnAeG8Vt2jLUgFQnNlWrrjkJSTrlB3oQvoo8JFV/JxCak/Okz+laiXZZlEO7xpjWsiwBGdoPp/fO5rJ5yil8lQdJqv1eaO5Mkz6/RhWLqpWMLi91JbHEk1ZHlLNFhdAyV0nFcgQSGxrxcTiV6uY+t5icxRJyXRbC1qpVfo3WektI4u1P13WJijQKZGUgsn+Fjqm+XHKYZnYQ6uWvMp8SKy+avj2SijTfZMu7TMvcJCS0nkQHbkfT1zPdqa3YjOyce1BnqYSVkRX5fRZLcu3s1eXsGkOmqvOV1dYlMLSn4e+dJVWJVd1uGd3eMpQMavmObhJKp9APJUX0/WSpti5Yvu1G02dRMvXS6iK7vJRcWXl5ro7QJpyjxc5ikrguo5DKAqRra71JIvEm/8oCpLRAlieRPb2iLsBq9ZSzi8aYCmrkEwJDsh/+HqmbRbPXpaqumdRBWG3Z6uVLyMprOm2PrKgt1UbSUle2Hs/V2oTaVMu/KqVa2TS7bbHP+yfZk0jUkSZ/e5ttTSXF7S001EBIHWb+SkVpgTTEoPo2sXrsMIDeDbpb+T3eVtmncgpZ5lrZp7B6txnxMYVrO4Jm1xXrjQ7P7EBsjKiSZ9UkkFiR1/TtpN+0qisPq9lnaibWH9r60rz9cay0dFi73j+J7EUi6jj5W7pdtWGo+2hhh5n0ax0dpDw2gHyMe9GSy6olFtHBiW2o7aTvKuue/fTtC2asrp6hHfe1SYpcivhlF317/g7JC+Po140L6MXx42nq6+vo++sF2pn0PaDYXz+h/8yaROPG/Ztmv7uJfonO0/xKb1mytBP04dyJNG7yW7QvpqLESXb7DO1cPY+mjh9HL7z4Oq3dc5HuVmtsivvX6detq+mNl9n3x46naa+tpp3n7lTWm5qC7kccoHXzp9H4seNo6tyV9PmptMqyzLtGv+76io7Fabe+idupyLlC+957nV4cN44mzl5KH362jbZt20afbz9E1x5oZ2oOeSwF+BhTryWX1XktOjiR2rSdRN/V1YaKvqfJUm2/ydq03ejPSLdblFxeTX1ZnypxnkdBOXqNRZ5AHw6QkKjTPDqpbf9N6h8fg8cb4DCl99MpLTWVUiumBNo72ZqEBkNoY2QqZeSxUi1No/BzlygiNoGSUxIp5vJR+nS6KxmzIGfk52kVHa6iMItup1UuKykujE5sm0Y9DARkNHQzpbIZS9PC6dylCIpNSKaUxBi6fPRTmu5qzIKckfR5mv6eXV31gUdGd29G082kJIr9cwdN7SYmoc0MOqRr13e30QhDAbWZ8C3bNbXKr9By1slLfAIoTrdzKVJo02DWsVU0inIquJumVx4plBgbRn/s96ex3Q1ZJ8HWf7WiV6Tkz0aQudCA7Dvbkln38bTpz0z1ICFP/4GmdxGRqOt8CtY2thoUhZR1W29dSXEUdmIbTevBgk6jobRZVWDVt7v0PqXrlbFqStg7maxZHoZsjKTUjDz1DiQvuEtpKQl0Ze/L5CQWkR0bOAvVK61djQBHcZe2jWDb22YCfVtZgHRluRsLOnwooLIAKWXTYBZ0dKJ56gKsXk8KKsy6rdfGkigu7ARtm9aDDX5GNHRz6kOsiykvoLv65cHaZ2zYH7Tffyx1Z/VvyIKZiupqoQCn+W2LJWX+QrO6sU7IegxtT9DNyNJvb1YHODYzD1OJPIviQq5QZHQ8JSansP0kmi58v5yGtheSuOe7dKmiN+dtVf357k2KvplESbF/0o6p3UgstKEZ2o7gYeqqXJUvvbynJMZS2B/7yX9sdzJkAbrn6qvVBt9KmjyKqdeCwxSXxPq6lBSWvzA6dWAdjXM0JKHpU/RhTGX9s4ZBv8zqRhKRNY3ZnlAZaLIAZ7MqwLGZSYfrOgIsz6DIM2F0W51vBeXFX6AL8XnsJ51aAhz1viAh6ei3aLGPBZnYuJLPEy5kxfpqYbt/0Ra94ISN+nTibS9qIxSReac+NGCANzlasGC57SjafoetRbesZxfTPFdTknb3pr69XOnVQ5oMP7gUwNqumIzsfWjcy7No6tNu1I7VX+cXdtNN3YaW/kbzOktI3KYLeQ9/lsY9O5R6WbHAW+JIc4/qMk1U+OdK8jYTk6X7aHpp9kyaOLQHWTkvoFPaOtO1DZ+AWF1Co7dTkXWEXutpTGJLNxo1bSZN+Zcz22YBy4MhmUgH0QfRevXVZOWUEXmGwjSVRIq8eLpwIZ7y6hzy5Op9OyXhCu192YnEIjua+aturyilyA+HkFQopi7Tf6AM3TLkN2njk6xv6fIa/a7bj5vSPz4Gjz3AqUGRTB8PZIXU+bWKHb1WWV/SSCMhtZv2U/1nXkpP0YJuIpL0WU3hdRRk1pcjyUjYjqb9VN+Sag48lUrpj9e7kIgNhutjtY2w9CTN68TWq3+UpjritRGRybO7qWKXUUfWbMdyXkznKgaO2hUcmkF2Igl5rb2mTWGyvqCRrKGIOo6nr27q56uUflfnqS+9F9WUHaOUTi3oxr7Xh1arC6y+7VZhA9fHA1nH2Jleq63CZJdoSS9xtYGxphoBDsvHyXmdWD70z6CojmptSGTyLO2uLECKDfAhidiZFqsLsKH8apSeWkDdWFn2WR2u+tTMddWngA7NsGPL9KK117TLbKEA52Hb1r3vp7CjKiFJh35ScVRWHvUeeUtE1PWNU6w0alNEv0xvT0LDf9G2ih6tbv+stlqp9I/XqQvbbp/12gHuEfQDrHBphh1bptda0jWt6vTzWH2WvP9OISuhhJ7cmKBN0br3PU3pICShdCh9Utkw6D1v1h93faNiEG+6ugIcMQlYoNb93zu0ZyfkdPubF8hGJCanxefUs6mUnH6TnFngaT9uF8Xr8lAQTd+9v4lO3GM/a4MIIdveDs98SlH63Xh5GK3xNiKJ81w6mqlrt6V0beMgMhfZ0Es/as79UXksHdp1iGL0Rvzy+I9piKmQ2ozbp03RnFUTW7IDIdV61VhAl5lVMQbVHuA0ZjvlFPdBfzJkfcvCU7ozO/fo0MzOJLGfTj9VNJTHT3ZpCfViwXLPdy+xPUxLnkDbx1iTUGRL4/eksNwzsgv0Tg/Wv7kvpyt1tMtKtfSPj0EtV1gfM3k6MrIIQsv2sKrvUri5FaxMgMJ79/Tu1q9JcScMkekEqasHutdxUdTcygomKMS9e829pVyENtI2EFIhHhSozsAxEkc4OQihSElAgvrBDwXuHDqA37NFcPf1RRv1TIwiG5n3CAIrG9g0cOnf1KM3HEUKZNy6pU1hXy8sRJFSCJtRr2KKo/4GitG1a0cIlRm4dasJT54o7iAsMh0kdYVHXQVWhRzpGVkgoSXa11ZhBr3g3sMYitRYxDTpBkMJHJ0cIFSkIEFTgCxrh3Dg92yI3H3hW1mAyM68BxJYwaahAqzA6iIsEukkhatHd/b5UazLFB69HSFSNLH8G+Nh2pY8Ht/uOI5sdjCTf3oN5nxwBcWQIfrHw4hWWKDfgN7Qv6peSQxLSylrT4XIy9e28Xr8s9pqJVEbKdoICYUPCjQJj6AfYIWL3o4iKDJuoTlNy8zdndWNErdTkrUpKnLEf7sDx7PZQW7+aayZ8wGuFAOy6B9xOFoBi34D0Lv2hvFQRC7z8fXuOXBX33wlgv24yRjSRom0mBj171U3KJ8/+DMSBe6YvXo6nHV5MO+FSSsXYYSl9rPqykebf8F/62tw1btPrOzKt/guUokn5ryDkda64c0QrjOm4klJNs6cvKpJEvfAc7OeQ8+2lUOg2OEp+LK6K0lP1aawalIoQWXZuH1Xpk0Roq11e+19VHVreDvLER+XCIVlfwz31d0EZYmBT7pCmHkJf8b+dY+fGfRyRw9jBVJjY1CxW4i6Y/aXn2KKfTZ+efs1bL9Rhvt/fI2fE4AuQ0fArcHd8RH2j/X46wMcVtGyctZYDQxgWO8N3iKIWEdAZWWQKbVJNcgQuvNrXCy3x/NT/areVKmPLUjEdpCyMhnqXFQDxCJV0SmgUGqXILSBYzcLIO83rB41AoP7OsFt2gHcc3kFq15xYevTUObFIv6OEhZOLrBTJcqj8OEwW9iNDER8tVcUCE1MYMTKpLSkVJvCSis6GgkKEZxd3dgwrU8AExMjCEiG0tKGByQdWehOfH2xHPbPT4VfnQVWVbmsnJWeAQxqrTBjOLt0gbgsAXFsJ2g8NhA6doMF8vDb6lEYMbgvnNym4cA9F7yy6hW4VBYgYuPvQGnhBBd1ATaCLBQ7v76IcvvnMVW9kc1flzzqQwyztcPIwHhW+/qEmvJHKfSqq2U0t20x935ai3XBMjyxcjeW9SWEbJiNRe/Nx7QPwmA8ZAVWT6gYMWoQClX1K2edvOYzb6u1EKueUdEMhGrNris5oj4cBlu7kQisWbgw0RQua11NJzA3g7GA2Nf1Duju/YS164Ihe2Ildi/rCwrZgNmL3sP8aR8gzHgIVqyewIbblidoyw5U9QMnsSXatRWASrVDqTIHMfF3Qeau6NOj/lFT5DQQgzvrSlTjQVSU+n086UeWY9qUKZiinV5c8C1rs0rkZGZp51QpQtKpPfi/FQvxyoxpmDrdH0HprB7luvI3wrBZs+BOZ7F84BOYsHQHTqc2rgYa3E7Waqzbt4OgIBkJ6br1FeNaFAt6hB1gZ1t1ux4rY2e4dBGjLCEO+ruF0G4Ctnz5KpwKjmPZ1GdZgLgbaV1fxkfLBlUEfH9J/1iPvz7AafRDXAL2nwo74lD/W5Py1j6s3x4Dic/rWORX+/MZagJtZ1fvulmFSNuzo1grSFWdS4MkcHTsApGygB21WqJT71GY//HPCPlzC0a3ryzmglPBuFJmin4DfTWNQlmM3Kwc5GTnora+XrfNGgrcjonHPYENevSyqlF5SvWd62JIGnNwq6K8hX3rtyNG4oPXF/nV8URLdXWXv4ZYfXZErLiFGzfqPkMmNJGivaUlrKSVx0ISR0d0YUeaBUVKWHbqjVHzP8bPIX9iy+j2ldtacArBV8pg2m8gfNVfbaielLi1bz22x0jg8/oi6JpF89alqq5cZOXkIDu3tJZy0LUrzT8tp5ltC4UI/uk3ZBsPx9w3p2PNrtUYaBSNHWt2I9lxHvbuWwjXxrYVFd5WtSn1aW5dKVGcm4WcnGzk1l24zWxa2r5Tr78rDP4Jv2UbY/jcNzF9zS6sHmiE6B1rsDvZEfP27sPCJjWMh8HypsqcLmv0AEXFBIGxCQvKtGmNpkRhYbFmUdW/K7SD74SX8PoEL81nRSK+meYJt3/NxUeHruFuobzWsjUfHIA/Tu3Egv7lCP5kLob1dMEz687ifpOPjKttJwu6+/57PHoqzuP98dOw8uMt2Lj4Bcz8Igkdxs3D5C5/YYAjVp2FFENx6waq7hZCWD69Ebve7oPysBO4WD4EH/zwGZ63qWzXf03/WLfq/c7fl4A1eNbiqbQYrP3XIg/H1wUgKN8BL/vPr7fjFpgYa45oirU7Q63EcFtyCpl3T2BxxSF9fUTo4tQVJuwnxymfYu/uz7Bu4fPqR4srKBKw58tjyJOOwOQxegNpo5UjOvomFGInuLpWPSZWKSuTs42TQFL/qbAKecfXISAoHw4v+2N+i3Roxbjx47sYv/I4GwBlSIy7yY5Layd2W4JTmXdxYrGLNoWVYBcndNUUID7duxufrVuI512leuWkQMKeL3EsT4oRk8dAM140UE95x7EuIAj5Di/Df74rm1ujeev6qzSzbSmykHq7CAKrTurXIhi4L8b29X6wEgrRznMY+nZ4lBvVuttq3R5HP/CwFMhKvY0igRU6qV69YeCOxdvXw89KCGE7Twzr2+EvyJOWQIq25kIoC1gg3eQjfSHaWkjZPs76hBlf4sCBA1Wnb/fg/6b2UM9ZdCwASw6moPvC3xB77TQO/3AQB/atw3OdqvchbFDvNwufHIlCcvhBLOrzACf85+KDyw97CakY5/Z8hzjbEXjBPRvHdmzBrlMl8HnnW5zcNRV2f1UFFN/Aj++Ox8rjLECRJSLuZvW9wgwD2AHS6oFS4EEabt4pavZVkMfh0RejLAvxkbHIeNjTUiIb2LJRhrIzkVntDK5KWWggVu1NhXTMSqwYVv/5a5GNLRuwCNmZmWxXbzmG3Z3QWaxAWkJizc5SmYsLAbPhf1YBr4XLMbE5g4siBTHxeRDY9YSrZfXvq45eikAsEDQzbcSgURaKwFV7kSodg5UrhtV9Oa+RlLlX8eXMJ+EzaROi7b3hZCBHavyNeu+XqsGwO5w6syOHtAQk1ixA5F4IwGz/s1B4LcTyiY3phMsQGrgKe1OlGLNyBao0ixZf16PVvLZVghKZKo5ggYS6SYjhPPcLfPS8Ne7sX4D5+1JbtP1X0drbaj0eeT/QAko0DQMSTcOA2HkuvvjoeVjf2Y8F8/ch9ZE1jAYILdHHwwGi4ss4EZyrTdQovHEdicXaD3Uw8/ZCT7EMocHBqPptfUrcS0zCPVij/8j+qGieZfnIr/3omWHBk+skBLwzGhbKNCQklWvTm0mejPMXUiHq/jRWfPU7QuMScCPiNA68PxE9TbXzaMky4xEZnwndXUCQ30diZDRYbKGlRH7qdVxPfcB+ai7W5139EjOf9MGkTdGw93aCgTwV8bWd2TT0wNu7PsAzbROwY+5C/Fd1We9v6hHvXarryqPh7tkbw9dcYsNNYyiRfXE/tgRuwqZNetOnQUhSCKBIDcbOwM346kx6ZWUqkrF75RaEC7zxpv802Ou2SpmNi/u3IFB/OWz6NCgJCoECqcE7Ebj5K5xpRAUpsy9i/5ZA7TI24+DVezUak9jREV0lCtwKPY5TF0IRlZCExNirCD64CQtH94Pf2ktoO24z9i7xruPGzgbIYhGToIDEyRU92UFx9Tzt+TMDSoE5pA29uIwNa8m7V2JLuADeb/pjWkWBNU/ZtW2Y0HcQXtufCY93fkRI8Md41kGEksT4WoKHeogd4dhVAsWtUBw/dQGhUQlISozF1eCD2LRwNPr5rcWltuOwee8SeDeiABXJu7FySzgE3m/Cf5p91cbewut61JrVtkhZ8dK4ijBC1AUvbd2MKfZZ+OUtNqjFN6WCmqC1ttVqfcrmg1dxr1pH8Mj7gTqxvvPqQWzW5k03bd51Dneq5JG0lwi1l03UROjy0lZsnmKPrF/ewtwv4us8o/VoGeCJl19GX6MMHHxrJj44HIobNyIQtHkWBj81C/saqCRxr+mYO9ICdw8uxkvvH8K19AcoLrqH5KtB2Om/DDvVf9tMCCtnJxbeZOLU978imR18l2WcR+BLc7ArRS/AkUfioymTsGrfn0jOLcKDWxew45szyJe4wuth78AWd4ff831hePZt9LLuiG7OPeDm4Q3foc9j9up9CM/VVpg8ChtHu8PTfTQ2RqnyrkTGzqno7dkHg5ef1YyphT9gbh8P9PGah58bCABrV4Zr2yag76DXsD/TA+/8GILgj5+Fg6gEifGJkKX8jh3VxuNPDxfBo39nCG4fxKLF3yGz4SH0r6F9muoRkVPiZ35kIWlLgzZG1f4OB9kFWtLLgEwGf0Ka13TI6NxiJxJrrtTVMQnJesavlY/qnV1EThJTclt0krSvgtJQvdDNSVzL9/UmoTXNqOuNVnpUL/ByElf9rsDIh9ZXPAvKlEfQel+zmi8fFIjI3GEQzd50mtKrPxXLvrPG25CMfQOoxmsP7u+hsW0kZDf7iPqjPOEjGmRsSG5LL6gf31Ntt2OVPAlIaDGevslRz1432Vla5CQhU7dFdLJKgamUU8RabzI07k8b9N+bUUFGF5b0IgOTwfSJusIU6hesmdoPo5VHU7WPFd6jb8ZLSWw7q+53adSKrXu9L5nVeFmbgETmDjRo9iY6XaMA6yKjs4ucSGLqRotqbiTTvHWVR6whb0Nj8g2I1jwqqef+nrHURmJHs49oN5rV7VpV3fbfoPlcq5qPOpdHrFWvo/+GGPVntea0LXkcbRxgTIa9V+i90FBFQTlBC8jNTEwWY3ZQ7a+DKqcrKz1YOxhIH+leHsLbKltkLX2KwIh81l/XzsA0p65U27JGtS2+FFCzcGnP2DYksZtNuqZVnTxmA/VXXXevvk7dJJCQ06IzurkpbuMAMjbsTSuqNgxS5ATRAjczEluMoR31viesPiX080vtSdxmPO3T1Zl6XzAikyGbKFF/82R/0rs9Dchs5OfaBJVSivtmDvWxEFWUoUBiTU+8doDUbxuoa1lairu/k//oblVfFClQvfBwKH2ge55ZnkTfzuxJZkK2vxsYkYFESn1mfUmfzuhIpk/9n2YexR36braLeh7dcgQm3Wjspsuke7Bbva8amdCQTYm6hEZup4xivniO7A1tacjclbRq+RL6z+LX6OVR7tROrHqlwyZSv4FEnkhbn25HhpZP09YkzQJzDk4lGwNz8nk/nLUapuQEveFoQibOb9IfzXm0X/1yR1OyH7aSjqZqHwy/9w2Nl4rJdtZhundgIrWp0U/qJgFJeq+seLdNk/rHx+Ax/6mGfwDFA6TfiENCWgayC2Ss77OAraM7PHp2UF+Xb40Ud64jRtwL7h0ac69SQxR4kH4DcQlpyMgugExgBAtbR7h79ESHFi/Ax7muupQhZJkXBnxsgOVXQuDvUc/9Jf/AttXSWrat1oPX1UNTPkhGyJ+RyChvi27e/eFh15ibvHXkyEsMxZWo2yggE1g5uMLLvTPMq1R7GbKiLuDyjQKY93wKA3taVjzlVkmB/GS2nGu3kC9qj54+vujVvgX+4MC9/ZjgNAOXxnyHa3vH6z2x9gC/vOyMFw66YkvKCcy3fcQXWdQUuHM9BuJe7njUu8XjxgMcjvtLNSHA4TiuVVDErkd/j7XInXcSkVuGVAa9ZXH4yK8flsZPwE8JX+G5avfjcE3zOMJDjuM4juO0RE5jMMHXDEmfT4Dv6Bl44z/v4j8LZmJ036ew/IIUY/yXYBQPbh4aP4PDcX8pJe6HHMDXf4oweNZkeLfVJnMc17oVxiPoq6/w05lrSM4ugtJQCjvnfnhm+iuY8kSHWi6XcU3FAxyO4ziO41odfomK4ziO47hWhwc4HMdxHMe1OjzA4TiO4ziu1eEBDsdxHMdxrQ4PcDiO4ziOa3V4gMNxHMdxXKvDAxyO4ziO41odHuBwHMdxHNfq8ACH4ziO47hWhwc4HMdxHMe1OjzA4TiO4ziu1eEBDsdxHMdxrQ4PcDiO4ziOa3V4gMNxHMdxXKvDAxyO4ziO41odHuBwHMdxHNfq8ACH4ziO47hWBvh/1Cs8OrTK594AAAAASUVORK5CYII=;" vertex="1" parent="1">
          <mxGeometry x="114" y="2130" width="568" height="74" as="geometry" />
        </mxCell>
        <mxCell id="9yQweUYaB5Ay2i9U1sqV-62" value="" style="edgeStyle=orthogonalEdgeStyle;rounded=0;orthogonalLoop=1;jettySize=auto;html=1;" edge="1" parent="1" source="9yQweUYaB5Ay2i9U1sqV-49" target="9yQweUYaB5Ay2i9U1sqV-50">
          <mxGeometry relative="1" as="geometry" />
        </mxCell>
        <mxCell id="9yQweUYaB5Ay2i9U1sqV-49" value="start" style="ellipse;whiteSpace=wrap;html=1;fillColor=#d5e8d4;strokeColor=#82b366;" vertex="1" parent="1">
          <mxGeometry x="354" y="2270" width="120" height="80" as="geometry" />
        </mxCell>
        <mxCell id="9yQweUYaB5Ay2i9U1sqV-63" value="" style="edgeStyle=orthogonalEdgeStyle;rounded=0;orthogonalLoop=1;jettySize=auto;html=1;" edge="1" parent="1" source="9yQweUYaB5Ay2i9U1sqV-50" target="9yQweUYaB5Ay2i9U1sqV-51">
          <mxGeometry relative="1" as="geometry" />
        </mxCell>
        <mxCell id="9yQweUYaB5Ay2i9U1sqV-50" value="a,b,c" style="shape=card;whiteSpace=wrap;html=1;fillColor=#dae8fc;strokeColor=#6c8ebf;" vertex="1" parent="1">
          <mxGeometry x="374" y="2420" width="80" height="100" as="geometry" />
        </mxCell>
        <mxCell id="9yQweUYaB5Ay2i9U1sqV-60" style="edgeStyle=orthogonalEdgeStyle;rounded=0;orthogonalLoop=1;jettySize=auto;html=1;entryX=0.5;entryY=0;entryDx=0;entryDy=0;" edge="1" parent="1" source="9yQweUYaB5Ay2i9U1sqV-51" target="9yQweUYaB5Ay2i9U1sqV-53">
          <mxGeometry relative="1" as="geometry" />
        </mxCell>
        <mxCell id="9yQweUYaB5Ay2i9U1sqV-73" value="true" style="edgeLabel;html=1;align=center;verticalAlign=middle;resizable=0;points=[];" vertex="1" connectable="0" parent="9yQweUYaB5Ay2i9U1sqV-60">
          <mxGeometry x="-0.4411" y="-3" relative="1" as="geometry">
            <mxPoint as="offset" />
          </mxGeometry>
        </mxCell>
        <mxCell id="9yQweUYaB5Ay2i9U1sqV-61" style="edgeStyle=orthogonalEdgeStyle;rounded=0;orthogonalLoop=1;jettySize=auto;html=1;entryX=0.5;entryY=0;entryDx=0;entryDy=0;" edge="1" parent="1" source="9yQweUYaB5Ay2i9U1sqV-51" target="9yQweUYaB5Ay2i9U1sqV-56">
          <mxGeometry relative="1" as="geometry" />
        </mxCell>
        <mxCell id="9yQweUYaB5Ay2i9U1sqV-72" value="false" style="edgeLabel;html=1;align=center;verticalAlign=middle;resizable=0;points=[];" vertex="1" connectable="0" parent="9yQweUYaB5Ay2i9U1sqV-61">
          <mxGeometry x="-0.5285" y="1" relative="1" as="geometry">
            <mxPoint as="offset" />
          </mxGeometry>
        </mxCell>
        <mxCell id="9yQweUYaB5Ay2i9U1sqV-51" value="b&amp;gt;a" style="rhombus;whiteSpace=wrap;html=1;fillColor=#ffe6cc;strokeColor=#d79b00;" vertex="1" parent="1">
          <mxGeometry x="343" y="2570" width="142" height="130" as="geometry" />
        </mxCell>
        <mxCell id="9yQweUYaB5Ay2i9U1sqV-65" style="edgeStyle=orthogonalEdgeStyle;rounded=0;orthogonalLoop=1;jettySize=auto;html=1;" edge="1" parent="1" source="9yQweUYaB5Ay2i9U1sqV-52" target="9yQweUYaB5Ay2i9U1sqV-64">
          <mxGeometry relative="1" as="geometry" />
        </mxCell>
        <mxCell id="9yQweUYaB5Ay2i9U1sqV-52" value="&quot;not incrreasing&quot;" style="shape=document;whiteSpace=wrap;html=1;boundedLbl=1;fillColor=#e1d5e7;strokeColor=#9673a6;" vertex="1" parent="1">
          <mxGeometry x="343" y="2940" width="120" height="80" as="geometry" />
        </mxCell>
        <mxCell id="9yQweUYaB5Ay2i9U1sqV-58" style="edgeStyle=orthogonalEdgeStyle;rounded=0;orthogonalLoop=1;jettySize=auto;html=1;entryX=0.5;entryY=0;entryDx=0;entryDy=0;" edge="1" parent="1" source="9yQweUYaB5Ay2i9U1sqV-53" target="9yQweUYaB5Ay2i9U1sqV-57">
          <mxGeometry relative="1" as="geometry" />
        </mxCell>
        <mxCell id="9yQweUYaB5Ay2i9U1sqV-75" value="true" style="edgeLabel;html=1;align=center;verticalAlign=middle;resizable=0;points=[];" vertex="1" connectable="0" parent="9yQweUYaB5Ay2i9U1sqV-58">
          <mxGeometry x="-0.5847" y="-1" relative="1" as="geometry">
            <mxPoint as="offset" />
          </mxGeometry>
        </mxCell>
        <mxCell id="9yQweUYaB5Ay2i9U1sqV-59" style="edgeStyle=orthogonalEdgeStyle;rounded=0;orthogonalLoop=1;jettySize=auto;html=1;entryX=0.5;entryY=0;entryDx=0;entryDy=0;" edge="1" parent="1" source="9yQweUYaB5Ay2i9U1sqV-53" target="9yQweUYaB5Ay2i9U1sqV-52">
          <mxGeometry relative="1" as="geometry" />
        </mxCell>
        <mxCell id="9yQweUYaB5Ay2i9U1sqV-74" value="false" style="edgeLabel;html=1;align=center;verticalAlign=middle;resizable=0;points=[];" vertex="1" connectable="0" parent="9yQweUYaB5Ay2i9U1sqV-59">
          <mxGeometry x="-0.6385" y="2" relative="1" as="geometry">
            <mxPoint as="offset" />
          </mxGeometry>
        </mxCell>
        <mxCell id="9yQweUYaB5Ay2i9U1sqV-53" value="c&amp;gt;b" style="rhombus;whiteSpace=wrap;html=1;fillColor=#ffe6cc;strokeColor=#d79b00;" vertex="1" parent="1">
          <mxGeometry x="170" y="2730" width="150" height="140" as="geometry" />
        </mxCell>
        <mxCell id="9yQweUYaB5Ay2i9U1sqV-69" style="edgeStyle=orthogonalEdgeStyle;rounded=0;orthogonalLoop=1;jettySize=auto;html=1;entryX=1;entryY=0.5;entryDx=0;entryDy=0;" edge="1" parent="1" source="9yQweUYaB5Ay2i9U1sqV-56" target="9yQweUYaB5Ay2i9U1sqV-67">
          <mxGeometry relative="1" as="geometry" />
        </mxCell>
        <mxCell id="9yQweUYaB5Ay2i9U1sqV-56" value="&quot;not incrreasing&quot;" style="shape=document;whiteSpace=wrap;html=1;boundedLbl=1;fillColor=#e1d5e7;strokeColor=#9673a6;" vertex="1" parent="1">
          <mxGeometry x="517.5" y="2740" width="120" height="80" as="geometry" />
        </mxCell>
        <mxCell id="9yQweUYaB5Ay2i9U1sqV-66" style="edgeStyle=orthogonalEdgeStyle;rounded=0;orthogonalLoop=1;jettySize=auto;html=1;entryX=0.5;entryY=0;entryDx=0;entryDy=0;" edge="1" parent="1" source="9yQweUYaB5Ay2i9U1sqV-57" target="9yQweUYaB5Ay2i9U1sqV-64">
          <mxGeometry relative="1" as="geometry" />
        </mxCell>
        <mxCell id="9yQweUYaB5Ay2i9U1sqV-57" value="&quot;incrreasing...&quot;" style="shape=document;whiteSpace=wrap;html=1;boundedLbl=1;fillColor=#e1d5e7;strokeColor=#9673a6;" vertex="1" parent="1">
          <mxGeometry x="30" y="2940" width="120" height="80" as="geometry" />
        </mxCell>
        <mxCell id="9yQweUYaB5Ay2i9U1sqV-68" style="edgeStyle=orthogonalEdgeStyle;rounded=0;orthogonalLoop=1;jettySize=auto;html=1;" edge="1" parent="1" source="9yQweUYaB5Ay2i9U1sqV-64" target="9yQweUYaB5Ay2i9U1sqV-67">
          <mxGeometry relative="1" as="geometry" />
        </mxCell>
        <mxCell id="9yQweUYaB5Ay2i9U1sqV-64" value="" style="ellipse;whiteSpace=wrap;html=1;aspect=fixed;fillColor=#f5f5f5;fontColor=#333333;strokeColor=#666666;" vertex="1" parent="1">
          <mxGeometry x="222.5" y="3120" width="45" height="45" as="geometry" />
        </mxCell>
        <mxCell id="9yQweUYaB5Ay2i9U1sqV-71" value="" style="edgeStyle=orthogonalEdgeStyle;rounded=0;orthogonalLoop=1;jettySize=auto;html=1;" edge="1" parent="1" source="9yQweUYaB5Ay2i9U1sqV-67" target="9yQweUYaB5Ay2i9U1sqV-70">
          <mxGeometry relative="1" as="geometry" />
        </mxCell>
        <mxCell id="9yQweUYaB5Ay2i9U1sqV-67" value="" style="ellipse;whiteSpace=wrap;html=1;aspect=fixed;fillColor=#f5f5f5;fontColor=#333333;strokeColor=#666666;" vertex="1" parent="1">
          <mxGeometry x="391.5" y="3280" width="45" height="45" as="geometry" />
        </mxCell>
        <mxCell id="9yQweUYaB5Ay2i9U1sqV-70" value="stop" style="ellipse;whiteSpace=wrap;html=1;fillColor=#f8cecc;strokeColor=#b85450;" vertex="1" parent="1">
          <mxGeometry x="354" y="3390" width="120" height="80" as="geometry" />
        </mxCell>
        <mxCell id="9yQweUYaB5Ay2i9U1sqV-76" value="" style="shape=image;verticalLabelPosition=bottom;labelBackgroundColor=default;verticalAlign=top;aspect=fixed;imageAspect=0;image=data:image/png,iVBORw0KGgoAAAANSUhEUgAAAcIAAAAYCAYAAABpyv24AAAAAXNSR0IArs4c6QAAAARnQU1BAACxjwv8YQUAAAAJcEhZcwAADsMAAA7DAcdvqGQAAB2FSURBVHhe7Z0JXFRV//8/c2eGXRwQkSXFhUVBQAW3SEXNpSctNS1Ts8zH8qkn//lomfvyuKE+j2aGLVZWKmVWLrnnkoYKiICIiIIsKiIoILINzJ3v78zMHZgVBrUe+zvvXjdec+Z7z/2e8/2e7/ece88dRcSAFStWrFix8pjCCX+tWLFixYqVxxJrIrRixYoVK4811kRoxcpjx13s+2AQ+o1ZhySFUPTY8Ki2/XG2yf8eayK08nhwNw07lk7B8/26o0toGPoMn4KVe69CLnzdIBafexdpO5ZiyvP90L1LKML6DMeUlXtx1UjQUrk/CGUlss+ewO+/pyL/AYLuvdQfsGreQnwVf08o+QvwkNr+0HlU9fqrcy8F362Yiw/mLsd35yuEQmOsidDK//+UHsPsgRF4acleFLQKR2TfQEjTtmHuyEi8ujUPSkHMJBafW4pjswci4qUl2FvQCuGRfREoTcO2uSMR+epW5NUJWir3CMMX4LfVoxHe+yXMWrYCX54oAi98ZcXKo0MlTi+fiNfmrsCqFYuwfv9Ns37atF2jFZk4fjAV4i7PoE97O6HoOA6mitHlmT5ob5OPuF0ncLVap0qRCJzYFk4tvOEX2gX+LWyELwT06rRB8eU4pFy9jdKKatTyItg6e8C3SziCPDTX03AX6b8eQkqRAqoriUQcxHbOaNU+FOEhXnDQCLFZVilSDx1EWolSLadCJSuxa4aWPoEIDW4LmUT4wgTK4suIS7mK26UVqK7lIbJ1hodvF4QHeUBXG9xNx6+HUlCkUGsDESeGnXMrtA8NR4hXnTZMnVQcOpiGEmWdNkxWArtmLeETGIrgtjLoqsPnx+OX2AJ4RvwNPbzYN5XZOLplM36Oz4PcJRjDJr+B5zo6CdKGKJEftwsnrlbXtV2rm61TC3j7haKLfwvoWUNZiKR9vyHbMQSD+gegmVCsRnEDcXvPoKzDAAzs7GI8g2LnJu49iiuVUjR7IhQRvXwhE2u+UtyIw77ThXDvORi9WttqCtXUIO/UPiRU+WNg/0DIWKXKomTsP3oJZeo+0urrhicCQhHq66qvr0UokLKoJ3r8Ow+Dos9g55sd1H2svLkdr3Qfh+12b+HwhfWI1DOoFsvPVaQsQs8e/0beoGic2fkmOmgEsf2V7hi33Q5vHb6A9UzQUjnTVCDz+EGkirtgZJ/2QpHBmORLkJV4Hpm3inGvSgGxkzvadQ5DSBunepux6308uC2mJT6FD9b/HZ2lbIxK7CHz9EfX7p3g3kAnK28ewILxk7EqVoQeEa44f/wSQlddwvGZ7SGY2yx6sULdRMP28CjJSsT5zFsovlcFhdgJ7u06IyykDZwam7Ir7yI7MRmZRXdRXiVHrUIJkY0T3FoHomuXdvXj3KK2K1Fy4TCOZsnQ69me8NaeW30VJ/enAKH18Q+KazjzSzzK/Qbi6SCZpkwXZQkuHDmKzGa9MLyXN+sjJQoT9+LolSrYOD+BkCd7wlc1UCy1ibIIyfuP4lKZNqaxMSKWwsHFE/6hYejorjO+DGTVcdKW9ckTAQgN9YVrQ4NJWYzLcSm4ersUFdW14EW2cPbwRZfwIOiFYgMbKvPjsOvEVeinAM11W3j7IbSLP/RSgCX+ep/UpK5E/yf/jaqBfVG69wg8ll7EyVm+pv1UlQgtRR73AQVJpNR1QbK2hOI+CCKJtCstSK4lKvyEhtiKVF1g8hBJ3ajrhGg6d084naFXJ59H6yJtTJzXiiLe30cFvHDSvW9ppKOJ64gkJAsaT5vSqjVy1ftpirfYWE59iMjWI5xeWRdLt7X16sFT3rpIYjbTP08kpVYR79O+OmVU6owkR5GBHDtEEhkFjd9E9epMIW+xsZz6ENmSR/grtC72Nruyhtq42dRZypH7izF0PW0zTQpuThInL/Lv2IZkUhFxboNpQ7pCkDakkD4ZYksiU9dSHawdbl0nULSuMVj/b33Rm8TiJ2jstut1eqjgr6+n/jYctZq0m6qEMj0qttNYmWATVrfXsxvoglzzVVXcAgpn9pL6T6V9up2tyKRVEVISt55Kh4U+qtoziVpxBrpq9e02kT5LqdAIWoriCkU9KSXOfSL9XC6UqZHTiXd9SSLxo+knBUUNsfhcBV2JepKknDtN1Bck+Yl3yVciIb/pJ9knS+XMII+jD4IkJO26QChQFemPydqk+RQq1e87EdeM/F/cSOfrDHebvhjmaMI32JjwHkhLTpQIcsZU7ZxE/mGT6OPThVS+61Vy56T01Oos1rLGMIgV6iKD9tQm0fxQqb5OIo6a+b9IG+uVN0ntOeN2aw7WJs9eNHXrJaaBCkvaLqeT0/2ZrkE0O17QlVF7fhGFSaUUtjiVtKV83jo2LsTkPWW/UGJA9QF6g8UgacQqylR3UhX9/IobsSCvvqZY1o3++bNqrFlok6o9NKkVZyCjOURSd+rx1veUpVXOrCwbi27daOJnKWRuNKnaFWlj4rxWEfT+voL62GBgw8JPhpCtiVhYd75bV5oQfY60Uccyf70PFFm0cagr2Qb+i349NJ382RjpvfKKWT99uImQqqk4P4+yYiaygC+l7vNjKTs3l3KyLtLZI9to2ZgAcmABrdPMWCapQb9OBRVeiqeElDTKyMqmnJwsSju1neb0b0mcpBO9f0bjyoqs1fSUVEIB7+ylq6z+3NwcykyNpZ9WjqIOLFg3GxxNuWpL8VRemEdpm14gd7ENhcw8zORzKCstng59u4Re6uxMHNeChkab7iBF4SWKT0ihtIwsys5RnXeKts/pTy05CXV6/4wwsBSUtfopkkoC6J29V5kuTJ+cTEqN/YlWjupANsyog6NzNY7Dl1NhXhptesGdxDYhNPMwk1e1Mf4QfbvkJerszBHXYihFXxG04bNpw6BmxNl4UxtPJ+owai3F3lJ9p6D8HRPJRyymdm8f1ciaoLo4n/KyYmiiaiB2n0+x2Srdsuji2SO0bdkYCnBgjtlpJsVqjcHgb+2k19uz5OQ+jD7TjFw1/PUP1YnQY9Ie04mQ6VRWkEc5mQn0zat+JBF70aTd2mBfTSmrIknG+s1n4g66qR1FQqIR+/yDftXqUFtGBXkqmwoH0zf93BHaungEdWCTLFs24M7Wx6bGkcfSDH8JSQJYOw3yXclXw8leZEfPfH5bKDHA4nPlFDuDBU7mAzONBWm4vYjsnvmcfbBUzgwWJEKqzqOkk2coOT2T+Syzddxe+mhiENkzPxyyMa8ugPHlhXRdp5+vXjpHh6InUEcbpkP/D4XxYwq+ro6qh50ImZ/kJZ2kM8nplJnNxtvFONr70UQKsmdjeshGyjOrk7YfJBT4zh66dFUVO3Loavo5OhazlEb62hLn+BStuqjRsvG281QQPYgFdGcava1+olibMIdNTKXUc/mluvbyOWupH0uEraceFkoMqE2gucFSknR6j04LJq8tK6C8nCuU8MMM6iXjSNzun3SU+b9lNqlVjzOtjPrIzqCU41tozkBPErN4NmbbHfV1jGVZn7I+ObJ1MY3owCbJtswW5gaTopAuxSdQSloGZTFb5GSl0antc6h/S4615X0SQrGxDauLKT8vi2Imsgm1tDvNj83WXPfiWTqybRmNCXBgCbsT839hwFvor02Dp5sxY8lL2pYm77lD1Sf/9ESoofrwVGrNEmHEqkz9C1ew2VFrMUkCZ9V1pHGdxlTsnMiSjy09HX1T3THyuFkUKLGhfmtz9DuKL6BPh7KOdhpB35QKZXSHtoySEecwgD4yGN187uc0zJUZlgW6UwZxySwVO2kicwbbp6OFgM76YFYgSWz60docg/oLPqWhLNk4jfiG6tXZQqOY8zsM+Mgg2PCU+/kwcmXJImDmKVarBs0MS0xPjPqKruj6bPWv9JYPS3DhS4QCM1Qfpqmsz+tnpFoq6MAbrUksCaRZdV6t4c72l9mqjCNZ///WrepqLyxhs2GWeP95rG4SYw75GZV9dCcLDLb6+2yYO3FiTxr1dY7GL+Sn6L2ObBAFz6GERpNbGe16zYsNrm606HyjwvUoMmhFLymJmo+gzQb5ThXIW7JAHsECuUksPldBGSt6kVTUnEYYC9KrzF+kEavZB0vlzGBJIjRF4ac0xI6jFhN+MjOJEag+Ru+0Z77SZQElWdDFDz8RmqKQPh1ixyaIE+inBpTX7QdD1Ut/eJncmJ5PRmUKJSYwaLs2humu/lR3KzzEDjT8y2KhhFk0fTn1ZJNyf3MreT6X1vazIa7VJNpjpH85/TiBrQ4b8ukm2ER+5n3qxMad/4xYocQ8ZbteIy/Wvm6LzgslllBBOyeyRYnt0xStnc2atGE1HZ7KYos0glbpBx2WAt5g/comLLN0YoMhlvqrOUr20ZsdpOQxegvdYGrKLUiED3obtmnYhSI0QAw+PxfXmrAzSuLqChmnRHnpXfXaGTU1UD0dlFfLNZ+1cC4I8PeEWH4T124Kj0XlCTgRfw/iTv0Q6aXfXK7NCxj9lD347EQk3LJwl4LEFa4yDsryUtwVLl5TwxpDclTL9bRh6gTA31MM+c1rqFfnBOLvidGpXyT01eHQ5oXReMqeR3ZiAjTq8Cgvr4CS88Df3ngZvtpnFSok7dDuCaYHq/v+sENoaADEfD5ydY2hyMC2zw+iiE2S7h5fiL+vTEAl5Ej7cQ/SeBd0jwiB7lM+U9gEBqMja0du+kXU7dMSd8DkTz/Cy95F2DnjH/jscg2Kj2zGz5mAT/9B6KzbNpM4IjTEl+nLbNsU5xG3x9AhIbAp24fl0z5BbC6z261MJB7YhAUfH1PbsFZuZrumxeeK0X7oEITYlGHf8mn4JDYXpXdvITPxADYt+BjHNIJNkHvINHODmwNQfucOqoQiU/A3ziElnyALCtU8u3wkaAY3jfK405DyDeAUHAxfsRLXc7KFEmMM2y719UNbjkdOZiaLNWoB7Ir5FUXiYPTq5aw+RwVfdAt3SAQ3Dw+hxACuBVq6SkF3b+O2kWml8PR0A0fluHvXdPxpkk1EHIsiItg71O9LMIdjaAjrEx43rzUlfkjg6ioDpyxnfqsf6yzFLjQUAey6+bnXNP1qCgv91TSVOLVyFr4u7o/5K8caxFjz/LmJkGsGJ0cRyxxyy7ata+FU5mUxmtdkE4l/VwQ584hfPQ5To2NRULcViGNOoHqSy+rXPq2tuo7rRUqIvdqgtZEjOcDL05U5YinulFi6XY85m0YZYQeSBP5dg+DMx2P1uKmIji2o35nE2UOjDkuSdepcR5FSDK82rfU2xqhx8IKnKwcqvQONOrVIS8sEL/ZHUGepWqQOkQOrW8Tyb7VQ0FQ4NHNyZP1ao1Kvjjs/LcLSo3L0mPclZocT4ldMxrtL3saEledgHzkXC0a7CpINYO+PAB8JajIvgeW7Ojiv0Vj/6RvwKzuI2eOG47nXv0Reu1exZnbfus1HigurMMDTC0PWZRjs8OLgwDpThGpUNanJEnSZ+QlWjfTBjZh/4Km2LpB5+KH78Pewq0ACG1ajYzNzG44sP1fSZSY+WTUSPjdi8I+n2sJF5gG/7sPx3q4CSGyYuRw1W48slXu4iCEWs7kam0DKzbq5HImbNuN0rTeeHzdYf6PU/xixRnkWNiwdo/qImI3sRYTqKnNh1bjtnIcv2rsApQcW4G+D+iHcrzMmxNxBwJT5mMIm8xqUKE3PwA2lC/wCvIQyQyRo4caSB1+Motv6Hq16JCavYpN5NpabmdwNZMImigtYNcATXkPWIUOvOiWKk5KRrXRCx86+miKzsqx9LFmy8MH6pGnxg9MEPwihuMlwzBaaFNBQBrDEX01Tk/ohZn6cja7vrcbfO5jcFmOSB0yELDjJWrJZghtkql5tFBH778Hh3Mfhoy1zMcj5IjZHfYuUuj5VQsmreo51pDbLMIvxzOGI/TWewxBqalVrS1vY296vZhzcx32ELXMHwfniZkR9m1Kf5JVKaNQR1yU9XuVBbLXF8yZmVGyw16p2ntraQ60Ofx0XM+5A5NERgW6GpmJtVVUhMUiQTUBk1ORyHP3pAIrsB+LN/zcRC79YgD52afh84ZfI9p2Kb7ZMQ1Bjs1IVEl/4tZWAv3YZl/ViDwfXoVH4YkYX1J47xAZ4JFbu2IDnPerbpqwsQeHt2ygq0d3tqkVQ2ETXNYhTOKb9eAHZF37Dnh3bsWPPMSTl3kD8rC5sYDdHa5+WgqAJLD7XCeHTfsSF7Av4bc8ObN+xB8eScnEjfha6sIlc89Y+TZSzDM5BxlYcrnCT6W3lM0A77tg4UP81RnltC5Z9dhHSnm/h3cHmJgYPGc4BspaucGWJoiG0ftqE/e0GCO03U4HJtkt94esjhrKsAkrX1gj529v4z8/xiF3/LFrWuWsZjh1NQI1jd/TpZa7/xWjprppss0RYZJA9lHdxJesWlHbt2LWMB5ZJvZSVKClkq8uiEr2dmapd2/v2nka1UwQG9xNWhOZkBbQ+8adiHHRM0Li/mkR5EzEL1iCh2dMY3bUYp44fx3F2nEy9iSpWUXneWZz4PRUFOpNzLQ+YCCXoPOsYbhUcwvS6WdKfgRjezyzBgbR0JB5chkF1dwIIlRVV7P9sJeYgdLhjK7Ry5qC8kYscw7W4sgCXM++wpThzxCceQH+xN55ZcgBp6Yk4uGxQ/esbVIkKlQXs2eqtTp1WcOaUuJGbY3RrQFlwGRp1fKFWpzYNaVd4SPyCEGSU79gMmVUgkt5/IjSCL0Tu9QqI3FqjDZuh2gRPx2fLBsONBegWXQcgvJUF7lJ5GT++PwrzDrJEJs/CpSuGrXRCBEusC/qw4HcvD1dusEAjfPPHYoOWgX0x7IUxeGFYJEK9OCScTESlXVf07q67n9sUlp9r0zIQfYe9gDEvDENkqBe4hJNIrLRD197dBQkNlso1hqTzLBy7VYBD0wOEEhOwFYe9vQhUXYlKk5GlFAeXLse+u23x6uK3LZvsPAwknTHr2C0UHJouFJhCBAd7e4ioGpWmlX9AzLRd7AO/dqqR7IuXP/oGX25YimnPB6lf8dHCZ36NT/eXQjZoLIbVZ0cDOLRs2QIiZTFu39b3dGXhXvxyuhoOPQagb3OhsI6m2YTP+R5bjtxD84EvYrhZXf4iNOqvZlDk4EJ6GRQ3d2LGM/3Rv7/mePqt73CNr0Vq9MsY0H8UouKMM2EDPSZHYUYK0m82/dYbf6+cZWARW9gwBxbK/hAcfBDSsYVOIwh3y8pAbKbu6iokNpvu6N3NHor0PfgxWb8D5ElfYWucArL+z6KfvVD4ADj4hKBjC50upbsoKyNwzdmst06d3uhmr0D6nh+hr44cSV9tRZxChv7P9mOpXOXcF5FRKoJXpyC4GlpKWY7yCmI+08jsnb+HcpaMRWyVyXyrEapQxZazquQqVctK4P/mJ1jzvDtubH0Hb2/JNbhdqYsSJWc/xaQne+LFtWnwDvODjSIXGfpLQg22oZjxxUo80zwTn785DT/kP8RUKC9ERko6GnPbmkufIer762g+eDxG1K1IlSw3p+J8TmmDydn0uSaouYTPor7H9eaDMX6EmWdIKiyVu1/EHvBkwZGKbuGWCQPWJK7D/G9yIRs2D3MHPEo3RVWI4eHZkq2oinDLlPIPiPm226KDXxtI+DxkZhk/zVKWnMLyyYtxgu+GaXPGwPwckU0i2apXymLBbd2HhMpb2Dt/Bfbf88QLb7+M1gbnN80mCpzfvBm/y70wavJInRXr/woe98rZgkRkq05oTaYRf9VFXpiBlPSbUA93mx54f/cpnDl9Gqd1jt83jUcbsRSh037CqVN7MedJ44mv2XmG6lnNs90WItn3PZxMjkKvxibNKiovYOcXu7E/Zj+KuTYIDnF70CWnSZR3zuC7rWdYJxlOF2qRfP4eW1KxxKO9U8F54aV3xmHV0U1YM348nFbOwPDAZig5/zNWz45CEuu8xbNHP4DzKHHnzHfYeuYWjNVJhkYd17pnYJzXS3hn3Coc3bQG48c7YeWM4QhsVoLzP6/G7KgkZsvFmD2aDXwmW5l+EZm8FGFBnSBl1yk6HYOYuELNdZT5iL2phMjL3G2lSlzY+QV274/B/mIObYJD2MpO+MocJNxuFencwmYz41c+/hC/Jo7Dtn+9iU96/oK3Awzdpgbno8di5MyduNa8L977cTPmuW1AWL/1yMrIgjznNr7ZmYpyvf4hhPZug0N7vsO709mqKOblBoKJpShwYdWz6LYwGb7vnURyVC+2llMi/8DH+Da/PSJ7d2J2LkHWqR/w38XrcEw8EGuXjkVdLpP/htn9BmGj/DXsvroJz9pZfq4y/wA+/jYf7SN7oxNzppKsU/jhv4ux7pgYA9cuxVhB0FK5+8PAR+qoxVVeBD73KDat+xAZPcfg1X5sFar6is/Gl/PWI0kUhsWLJ8C7kcsr78SxsXdaPfb4SxlswksoOPU1PlwrA+fQCc/9fSja3+fNFWXRacTExKHQYCDVXuUh4nPZmFmHDzN6Ysyr/cxsgmDtP/sd0+WoftwpP4MbpmY2DbZdAl/fdpDyR5B48BhO2XjD3cUetcW5SDm5E19//CUOXWuJUdHfYFZYw9vHJC3c2EqSR/7lZGRle6Is6zR+jl6O/+66jg5TvkPU87qTeUYTbYLK37BpSyoQMANTBv1Jt7XNUHlhJ77YvR8x+4vBtQlGSINB5z78VRfVM9Bnu2Fhsi/eO5mMKJakWvp3h+GDjhrFdvXzUAevYPTo3sQX6hVZG2iwi5Sa942iC8K23drkRRRma0+9V1zUFBigyFpDfWw5kjr7UOSM3XRd/20CRgVtHysjics42iHsi22sThW1CfMolMn0WaPZ/ir//V/kL1HfPjZxiMgubKHBVuN7lLRxAgXLJPUvrIo4cmw3lObvv2HB1m8dahNoXqgt2fdZQ5rX/eT0+7/8iaUGAz2EQ2RHYQuT9Ld030uijROCSSap/1EAEedI7YbOp/03tNooKHNNX7K37UwfqN/tEF7i1qubI5dR32rEDVFk0Zo+tsRJnckncgbtNjYGVWwfy3RwoXFaYyguUVSEPdmGzCWd94gZPN3e9w51dpKQy7DPjd/n4q/T+v6O5D1gHu3NFTZF3/mWRrH+9nx9D92JGUPODb1kGzKv7t3A2uSFan/otTzNyC7FX48gZ6kXTf7F3KZqBWVtGEwu0ubUN+qC0OeqskEk43R+gEEkJffw12hjgsGL41W/0OseHEk6at/5svxc1XgZJON0Xohm7XIPp9c2JpCupKVyJmn0dQPVi+B+5n1RfXDk/lr9jyKoXuT3kzpS53cP17/i0wBqeTNjT+T0HH2lfYXNCNOvWumi2uZurm7twbm/RrtNmF9xcQX1Vu2IMXGO+mB283v3N0FaQ2Ntr01eRr2cjOsUiZtR276Tae3xfCMfNYUibSn1sNGtR0Q27t3o5agjlG+iggb10vEBbTdW7Z1MXlIZDVyXoa9PbTItDGOxqtdySjMeTDTCWUpek38RCiyhlhLmhZKtfR9ao33XmV1jkeoavVewD2y8rOlDtpyUnH0iacZu/R/lUKP+4Q0WR8btYD7YdH/Vg8W4DYNdSNq8L0Vpk5QJ5HFzKNjGgQZ8mG2sj8Bj9Q/zKsvzkBSXjOwSHk5sdtCzpy9c7nP2+uAoUZ6XhLjkbJTwTvAK7omevi6mZyuPPDxupF6EJDAYrR7JBvAozU7E2fN5KFU6wsO/G7oHtTJ6DaT84FQED/8eHf4Th4Pv+Au2sOxcFXxpNhLPnkdeqRKOHv7o1j0IrUwIWipnRE08ZneLwH9s5qDm3GKh8K9CDeJnd0PEf2wwJyEei0MN7yo8mvD38nH5UibybhahTC6CnYsnfIND0alV3U4AC6jBrYvxSLpSgLJaKZp7d0R4WID+T41Zio4PJMQvxl+kGx95rP9CvRUrKvhsbBjaFQv4RYg99C46PYoBxpoIrVgT4R9CY3efrVh5LOCzD+KU/Dmsiv7no5kErVix8odhXRFasfJXQVmM+JjNiBX3w/SxYULhXwUliuNjsDlWjH6vj0WY0esCViyC+UAc84FTzAcmMR9o+A1MK5ZiTYRWrFixYuWxxnpr1IoVK1asPNZYE6EVK1asWHmMAf4PODp1TvDCLgAAAAAASUVORK5CYII=;" vertex="1" parent="1">
          <mxGeometry x="280" y="3530" width="450" height="24" as="geometry" />
        </mxCell>
        <mxCell id="9yQweUYaB5Ay2i9U1sqV-83" value="" style="edgeStyle=orthogonalEdgeStyle;rounded=0;orthogonalLoop=1;jettySize=auto;html=1;" edge="1" parent="1" source="9yQweUYaB5Ay2i9U1sqV-77" target="9yQweUYaB5Ay2i9U1sqV-78">
          <mxGeometry relative="1" as="geometry" />
        </mxCell>
        <mxCell id="9yQweUYaB5Ay2i9U1sqV-77" value="start" style="ellipse;whiteSpace=wrap;html=1;fillColor=#d5e8d4;strokeColor=#82b366;" vertex="1" parent="1">
          <mxGeometry x="171" y="3620" width="120" height="80" as="geometry" />
        </mxCell>
        <mxCell id="9yQweUYaB5Ay2i9U1sqV-82" value="" style="edgeStyle=orthogonalEdgeStyle;rounded=0;orthogonalLoop=1;jettySize=auto;html=1;" edge="1" parent="1" source="9yQweUYaB5Ay2i9U1sqV-78" target="9yQweUYaB5Ay2i9U1sqV-79">
          <mxGeometry relative="1" as="geometry" />
        </mxCell>
        <mxCell id="9yQweUYaB5Ay2i9U1sqV-78" value="num" style="shape=card;whiteSpace=wrap;html=1;fillColor=#dae8fc;strokeColor=#6c8ebf;" vertex="1" parent="1">
          <mxGeometry x="191" y="3770" width="80" height="100" as="geometry" />
        </mxCell>
        <mxCell id="9yQweUYaB5Ay2i9U1sqV-81" style="edgeStyle=orthogonalEdgeStyle;rounded=0;orthogonalLoop=1;jettySize=auto;html=1;entryX=0.5;entryY=0;entryDx=0;entryDy=0;" edge="1" parent="1" source="9yQweUYaB5Ay2i9U1sqV-79" target="9yQweUYaB5Ay2i9U1sqV-80">
          <mxGeometry relative="1" as="geometry" />
        </mxCell>
        <mxCell id="9yQweUYaB5Ay2i9U1sqV-85" style="edgeStyle=orthogonalEdgeStyle;rounded=0;orthogonalLoop=1;jettySize=auto;html=1;entryX=0.5;entryY=0;entryDx=0;entryDy=0;" edge="1" parent="1" source="9yQweUYaB5Ay2i9U1sqV-79" target="9yQweUYaB5Ay2i9U1sqV-84">
          <mxGeometry relative="1" as="geometry" />
        </mxCell>
        <mxCell id="9yQweUYaB5Ay2i9U1sqV-79" value="num&amp;gt;=1&lt;br&gt;&amp;amp;&amp;amp;&lt;br&gt;num&amp;lt;10" style="rhombus;whiteSpace=wrap;html=1;fillColor=#ffe6cc;strokeColor=#d79b00;" vertex="1" parent="1">
          <mxGeometry x="178" y="3920" width="106" height="100" as="geometry" />
        </mxCell>
        <mxCell id="9yQweUYaB5Ay2i9U1sqV-113" style="edgeStyle=orthogonalEdgeStyle;rounded=0;orthogonalLoop=1;jettySize=auto;html=1;entryX=0;entryY=0.5;entryDx=0;entryDy=0;" edge="1" parent="1" source="9yQweUYaB5Ay2i9U1sqV-80" target="9yQweUYaB5Ay2i9U1sqV-112">
          <mxGeometry relative="1" as="geometry" />
        </mxCell>
        <mxCell id="9yQweUYaB5Ay2i9U1sqV-80" value="&quot;1&quot;" style="shape=document;whiteSpace=wrap;html=1;boundedLbl=1;fillColor=#e1d5e7;strokeColor=#9673a6;" vertex="1" parent="1">
          <mxGeometry x="17" y="4040" width="120" height="80" as="geometry" />
        </mxCell>
        <mxCell id="9yQweUYaB5Ay2i9U1sqV-87" style="edgeStyle=orthogonalEdgeStyle;rounded=0;orthogonalLoop=1;jettySize=auto;html=1;entryX=0.5;entryY=0;entryDx=0;entryDy=0;" edge="1" parent="1" source="9yQweUYaB5Ay2i9U1sqV-84" target="9yQweUYaB5Ay2i9U1sqV-86">
          <mxGeometry relative="1" as="geometry" />
        </mxCell>
        <mxCell id="9yQweUYaB5Ay2i9U1sqV-91" style="edgeStyle=orthogonalEdgeStyle;rounded=0;orthogonalLoop=1;jettySize=auto;html=1;entryX=0.5;entryY=0;entryDx=0;entryDy=0;" edge="1" parent="1" source="9yQweUYaB5Ay2i9U1sqV-84" target="9yQweUYaB5Ay2i9U1sqV-89">
          <mxGeometry relative="1" as="geometry" />
        </mxCell>
        <mxCell id="9yQweUYaB5Ay2i9U1sqV-84" value="num&amp;gt;=10&lt;br&gt;&amp;amp;&amp;amp;&lt;br&gt;num&amp;lt;100" style="rhombus;whiteSpace=wrap;html=1;fillColor=#ffe6cc;strokeColor=#d79b00;" vertex="1" parent="1">
          <mxGeometry x="334.5" y="4020" width="102.5" height="100" as="geometry" />
        </mxCell>
        <mxCell id="9yQweUYaB5Ay2i9U1sqV-109" style="edgeStyle=orthogonalEdgeStyle;rounded=0;orthogonalLoop=1;jettySize=auto;html=1;entryX=0.5;entryY=0;entryDx=0;entryDy=0;" edge="1" parent="1" source="9yQweUYaB5Ay2i9U1sqV-86" target="9yQweUYaB5Ay2i9U1sqV-108">
          <mxGeometry relative="1" as="geometry" />
        </mxCell>
        <mxCell id="9yQweUYaB5Ay2i9U1sqV-86" value="&quot;2&quot;" style="shape=document;whiteSpace=wrap;html=1;boundedLbl=1;fillColor=#e1d5e7;strokeColor=#9673a6;" vertex="1" parent="1">
          <mxGeometry x="204.5" y="4140" width="120" height="80" as="geometry" />
        </mxCell>
        <mxCell id="9yQweUYaB5Ay2i9U1sqV-92" style="edgeStyle=orthogonalEdgeStyle;rounded=0;orthogonalLoop=1;jettySize=auto;html=1;entryX=0.5;entryY=0;entryDx=0;entryDy=0;" edge="1" parent="1" source="9yQweUYaB5Ay2i9U1sqV-89" target="9yQweUYaB5Ay2i9U1sqV-90">
          <mxGeometry relative="1" as="geometry" />
        </mxCell>
        <mxCell id="9yQweUYaB5Ay2i9U1sqV-99" style="edgeStyle=orthogonalEdgeStyle;rounded=0;orthogonalLoop=1;jettySize=auto;html=1;entryX=0.5;entryY=0;entryDx=0;entryDy=0;" edge="1" parent="1" source="9yQweUYaB5Ay2i9U1sqV-89" target="9yQweUYaB5Ay2i9U1sqV-94">
          <mxGeometry relative="1" as="geometry" />
        </mxCell>
        <mxCell id="9yQweUYaB5Ay2i9U1sqV-89" value="num&amp;gt;=100&lt;br&gt;&amp;amp;&amp;amp;&lt;br&gt;num&amp;lt;1000" style="rhombus;whiteSpace=wrap;html=1;fillColor=#ffe6cc;strokeColor=#d79b00;" vertex="1" parent="1">
          <mxGeometry x="454.5" y="4120" width="106" height="100" as="geometry" />
        </mxCell>
        <mxCell id="9yQweUYaB5Ay2i9U1sqV-105" style="edgeStyle=orthogonalEdgeStyle;rounded=0;orthogonalLoop=1;jettySize=auto;html=1;entryX=0.5;entryY=0;entryDx=0;entryDy=0;" edge="1" parent="1" source="9yQweUYaB5Ay2i9U1sqV-90" target="9yQweUYaB5Ay2i9U1sqV-104">
          <mxGeometry relative="1" as="geometry" />
        </mxCell>
        <mxCell id="9yQweUYaB5Ay2i9U1sqV-90" value="&quot;3&quot;" style="shape=document;whiteSpace=wrap;html=1;boundedLbl=1;fillColor=#e1d5e7;strokeColor=#9673a6;" vertex="1" parent="1">
          <mxGeometry x="324.5" y="4260" width="120" height="80" as="geometry" />
        </mxCell>
        <mxCell id="9yQweUYaB5Ay2i9U1sqV-97" style="edgeStyle=orthogonalEdgeStyle;rounded=0;orthogonalLoop=1;jettySize=auto;html=1;entryX=0.5;entryY=0;entryDx=0;entryDy=0;" edge="1" parent="1" source="9yQweUYaB5Ay2i9U1sqV-94" target="9yQweUYaB5Ay2i9U1sqV-95">
          <mxGeometry relative="1" as="geometry">
            <Array as="points">
              <mxPoint x="520" y="4300" />
            </Array>
          </mxGeometry>
        </mxCell>
        <mxCell id="9yQweUYaB5Ay2i9U1sqV-98" style="edgeStyle=orthogonalEdgeStyle;rounded=0;orthogonalLoop=1;jettySize=auto;html=1;entryX=0.5;entryY=0;entryDx=0;entryDy=0;" edge="1" parent="1" source="9yQweUYaB5Ay2i9U1sqV-94" target="9yQweUYaB5Ay2i9U1sqV-96">
          <mxGeometry relative="1" as="geometry" />
        </mxCell>
        <mxCell id="9yQweUYaB5Ay2i9U1sqV-94" value="num&amp;gt;=1000&lt;br&gt;&amp;amp;&amp;amp;&lt;br&gt;num&amp;lt;10000" style="rhombus;whiteSpace=wrap;html=1;fillColor=#ffe6cc;strokeColor=#d79b00;" vertex="1" parent="1">
          <mxGeometry x="580" y="4250" width="106" height="100" as="geometry" />
        </mxCell>
        <mxCell id="9yQweUYaB5Ay2i9U1sqV-101" style="edgeStyle=orthogonalEdgeStyle;rounded=0;orthogonalLoop=1;jettySize=auto;html=1;" edge="1" parent="1" source="9yQweUYaB5Ay2i9U1sqV-95" target="9yQweUYaB5Ay2i9U1sqV-100">
          <mxGeometry relative="1" as="geometry" />
        </mxCell>
        <mxCell id="9yQweUYaB5Ay2i9U1sqV-95" value="&quot;4&quot;" style="shape=document;whiteSpace=wrap;html=1;boundedLbl=1;fillColor=#e1d5e7;strokeColor=#9673a6;" vertex="1" parent="1">
          <mxGeometry x="460" y="4390" width="120" height="80" as="geometry" />
        </mxCell>
        <mxCell id="9yQweUYaB5Ay2i9U1sqV-102" style="edgeStyle=orthogonalEdgeStyle;rounded=0;orthogonalLoop=1;jettySize=auto;html=1;" edge="1" parent="1" source="9yQweUYaB5Ay2i9U1sqV-96" target="9yQweUYaB5Ay2i9U1sqV-100">
          <mxGeometry relative="1" as="geometry" />
        </mxCell>
        <mxCell id="9yQweUYaB5Ay2i9U1sqV-96" value="&quot;invalid num&quot;" style="shape=document;whiteSpace=wrap;html=1;boundedLbl=1;fillColor=#e1d5e7;strokeColor=#9673a6;" vertex="1" parent="1">
          <mxGeometry x="697" y="4390" width="120" height="80" as="geometry" />
        </mxCell>
        <mxCell id="9yQweUYaB5Ay2i9U1sqV-107" style="edgeStyle=orthogonalEdgeStyle;rounded=0;orthogonalLoop=1;jettySize=auto;html=1;entryX=0.5;entryY=0;entryDx=0;entryDy=0;" edge="1" parent="1" source="9yQweUYaB5Ay2i9U1sqV-100" target="9yQweUYaB5Ay2i9U1sqV-104">
          <mxGeometry relative="1" as="geometry" />
        </mxCell>
        <mxCell id="9yQweUYaB5Ay2i9U1sqV-100" value="" style="ellipse;whiteSpace=wrap;html=1;aspect=fixed;fillColor=#f5f5f5;fontColor=#333333;strokeColor=#666666;" vertex="1" parent="1">
          <mxGeometry x="611.5" y="4530" width="43" height="43" as="geometry" />
        </mxCell>
        <mxCell id="9yQweUYaB5Ay2i9U1sqV-111" style="edgeStyle=orthogonalEdgeStyle;rounded=0;orthogonalLoop=1;jettySize=auto;html=1;" edge="1" parent="1" source="9yQweUYaB5Ay2i9U1sqV-104" target="9yQweUYaB5Ay2i9U1sqV-108">
          <mxGeometry relative="1" as="geometry" />
        </mxCell>
        <mxCell id="9yQweUYaB5Ay2i9U1sqV-104" value="" style="ellipse;whiteSpace=wrap;html=1;aspect=fixed;fillColor=#f5f5f5;fontColor=#333333;strokeColor=#666666;" vertex="1" parent="1">
          <mxGeometry x="363" y="4630" width="43" height="43" as="geometry" />
        </mxCell>
        <mxCell id="9yQweUYaB5Ay2i9U1sqV-114" style="edgeStyle=orthogonalEdgeStyle;rounded=0;orthogonalLoop=1;jettySize=auto;html=1;entryX=1;entryY=0.5;entryDx=0;entryDy=0;" edge="1" parent="1" source="9yQweUYaB5Ay2i9U1sqV-108" target="9yQweUYaB5Ay2i9U1sqV-112">
          <mxGeometry relative="1" as="geometry" />
        </mxCell>
        <mxCell id="9yQweUYaB5Ay2i9U1sqV-108" value="" style="ellipse;whiteSpace=wrap;html=1;aspect=fixed;fillColor=#f5f5f5;fontColor=#333333;strokeColor=#666666;" vertex="1" parent="1">
          <mxGeometry x="256" y="4707" width="43" height="43" as="geometry" />
        </mxCell>
        <mxCell id="9yQweUYaB5Ay2i9U1sqV-116" style="edgeStyle=orthogonalEdgeStyle;rounded=0;orthogonalLoop=1;jettySize=auto;html=1;" edge="1" parent="1" source="9yQweUYaB5Ay2i9U1sqV-112" target="9yQweUYaB5Ay2i9U1sqV-115">
          <mxGeometry relative="1" as="geometry" />
        </mxCell>
        <mxCell id="9yQweUYaB5Ay2i9U1sqV-112" value="" style="ellipse;whiteSpace=wrap;html=1;aspect=fixed;fillColor=#f5f5f5;fontColor=#333333;strokeColor=#666666;" vertex="1" parent="1">
          <mxGeometry x="127" y="4791" width="43" height="43" as="geometry" />
        </mxCell>
        <mxCell id="9yQweUYaB5Ay2i9U1sqV-115" value="stop" style="ellipse;whiteSpace=wrap;html=1;fillColor=#f8cecc;strokeColor=#b85450;" vertex="1" parent="1">
          <mxGeometry x="171" y="4850" width="120" height="80" as="geometry" />
        </mxCell>
      </root>
    </mxGraphModel>
  </diagram>
</mxfile>
